<svg xmlns="http://www.w3.org/2000/svg" viewBox="0 0 264 336.89"><defs><style>.cls-1{fill:#fff;}.cls-2{font-size:70px;fill:#b89161;font-family:ArnoPro-BoldSmText, Arno Pro;font-weight:700;}.cls-3{fill:#a98d66;}.cls-4{font-size:40px;font-family:CHei3HK-Bold-B5pc-H, CHei3HK;letter-spacing:0.01em;}</style></defs><title>資產 46</title><g id="圖層_2" data-name="圖層 2"><g id="work"><circle class="cls-1" cx="132" cy="152.51" r="132"/><text class="cls-2" transform="translate(114.01 310.08)">3</text><path d="M164,127.45,162.36,122a11.77,11.77,0,0,0-22.28,0l-1.64,5.41a30.33,30.33,0,0,0-.85,14.1,13.24,13.24,0,0,0,6.83,9.24L142.57,192a8.14,8.14,0,0,0,2.05,6.31,9,9,0,0,0,12.65.57,7.66,7.66,0,0,0,.57-.57,8,8,0,0,0,2-6.14L158,150.78a13.25,13.25,0,0,0,6.81-9.23A30.33,30.33,0,0,0,164,127.45Zm-4.2,13.21a8.13,8.13,0,0,1-5.31,6.12,2.56,2.56,0,0,0-1.66,2.51l1.95,43.27a3,3,0,0,1-.77,2.32,4,4,0,0,1-5.57,0,3.07,3.07,0,0,1-.76-2.49l1.93-43.1a2.57,2.57,0,0,0-1.65-2.51,8.12,8.12,0,0,1-5.32-6.12,25.19,25.19,0,0,1,.7-11.7l1.65-5.42a6.64,6.64,0,0,1,12.46,0L159.1,129A25.19,25.19,0,0,1,159.8,140.66Z"/><path d="M124.31,114.07a2.56,2.56,0,0,0-2.56,2.56v22l-6.94,6.94a2.58,2.58,0,0,0-.75,1.94l2.24,44.85a3.44,3.44,0,0,1-1,2.61,3.61,3.61,0,0,1-5.1,0l0,0a3.52,3.52,0,0,1-1-2.61l2.26-44.85a2.58,2.58,0,0,0-.75-1.94l-6.94-6.94v-22a2.57,2.57,0,0,0-5.13,0V139.7a2.56,2.56,0,0,0,.75,1.81l6.89,6.89-2.19,43.72a8.66,8.66,0,1,0,17.3.84q0-.42,0-.84l-2.19-43.72,6.88-6.89a2.56,2.56,0,0,0,.75-1.81V116.63A2.56,2.56,0,0,0,124.31,114.07Z"/><path d="M108.93,114.07a2.56,2.56,0,0,0-2.56,2.56v20.51a2.57,2.57,0,0,0,5.13,0V116.63A2.57,2.57,0,0,0,108.93,114.07Z"/><path d="M116.62,114.07a2.56,2.56,0,0,0-2.56,2.56v20.51a2.57,2.57,0,0,0,5.13,0V116.63A2.57,2.57,0,0,0,116.62,114.07Z"/><path d="M132,75.63a76.89,76.89,0,1,0,76.88,76.88A76.88,76.88,0,0,0,132,75.63Zm0,148.64a71.76,71.76,0,1,1,71.76-71.76A71.76,71.76,0,0,1,132,224.27Z"/><path d="M140.32,200.62a2.56,2.56,0,0,0-2.8-2.3h-.09a47,47,0,0,1-10.86,0,2.56,2.56,0,1,0-.6,5.09,51.67,51.67,0,0,0,12.05,0A2.56,2.56,0,0,0,140.32,200.62Z"/><path d="M171.21,119.49a2.56,2.56,0,0,0-3.61-.32h0a2.57,2.57,0,0,0-.31,3.61,46.14,46.14,0,0,1-2.72,62.4,2.56,2.56,0,0,0,3.62,3.63A51.25,51.25,0,0,0,171.21,119.49Z"/><path d="M114.83,109.5h0Z"/><path d="M144.09,102.69a51.71,51.71,0,0,0-30.17,1.85,2.56,2.56,0,0,0,.9,5,2.51,2.51,0,0,0,.9-.16,46.56,46.56,0,0,1,27.16-1.67,2.56,2.56,0,1,0,1.21-5Z"/><path d="M99.32,185.06a46.12,46.12,0,0,1-4.63-59.68,2.56,2.56,0,1,0-4.1-3.08l0,.06a51.25,51.25,0,0,0,5.14,66.33,2.57,2.57,0,0,0,3.63-3.63Z"/><path class="cls-3" d="M81.78.72c.27,0,.1-.6.12-.72C81.47.21,81.81.88,81.78.72Z"/><polygon class="cls-3" points="77.83 3.02 77.83 2.75 77.42 3.53 77.83 3.02"/><path class="cls-3" d="M74.11,4.36c.77.83,1.26-.69,2.06-.6l.19.19V3C75.6,3.47,74.78,4.4,74.11,4.36Z"/><path class="cls-3" d="M71.11,3.29c.33.3-.26.54.54-.13a.38.38,0,0,1-.14-.05A1.75,1.75,0,0,1,71.11,3.29Z"/><path class="cls-3" d="M71.51,3.11c.39-.23-.43-.17,0,0Z"/><path class="cls-3" d="M69.83,4.36l.31-.64c-.23-.14-.71.1-.64-.16C69.08,4.07,69.33,4.2,69.83,4.36Z"/><path class="cls-3" d="M69.79,5.32,70,5C69.86,5,69.77,5,69.79,5.32Z"/><path class="cls-3" d="M70.32,4.4,70,5c.16.1.35.39.18-.26C70.26,5.06,70.2,4.74,70.32,4.4Z"/><path class="cls-3" d="M70.71,4.34c.39,0,.83,0,.51.56C72.11,4.27,71.6,3.65,70.71,4.34Z"/><path class="cls-3" d="M74.4,5.45c.16,0,.32.07.48.12l.17-.45C75,5.33,74.23,5.15,74.4,5.45Z"/><path class="cls-3" d="M66.5,6.07c.11.2.54.35.75.55l.18-.48C67.16,6.16,66.73,6.31,66.5,6.07Z"/><path class="cls-3" d="M67.25,6.62l-.25.7C67.47,7,67.44,6.79,67.25,6.62Z"/><polygon class="cls-3" points="70.36 6.37 70.77 5.12 70.2 6.48 70.36 6.37"/><polygon class="cls-3" points="64.58 7.73 64.49 7.08 64.56 8.13 64.58 7.73"/><path class="cls-3" d="M63.46,9c-.14-.51-.8-.21-.8-.62a2.62,2.62,0,0,0-.21,1.45C62.55,9.4,62.86,9.13,63.46,9Z"/><path class="cls-3" d="M62.45,10.57a3.2,3.2,0,0,0,0-.76A1.76,1.76,0,0,0,62.45,10.57Z"/><path class="cls-3" d="M66.1,7.94a.9.9,0,0,0-.8-.13l.62.3Z"/><path class="cls-3" d="M65.94,8.12h0l-.42.35Z"/><path class="cls-3" d="M66.15,7.9l-.05,0C66.16,8,66.19,8,66.15,7.9Z"/><path class="cls-3" d="M68.7,6.81c-.08.51-.41,1.27.48,1.26C69.11,7.57,68.59,7.58,68.7,6.81Z"/><path class="cls-3" d="M66.91,8.29c.19-.12.4-.21.6-.31-.12-.12-.37-.23-.34-.49C67.08,7.76,67,8,66.91,8.29Z"/><polygon class="cls-3" points="66.81 8.66 66.91 8.29 66.69 8.41 66.81 8.66"/><path class="cls-3" d="M63.67,10.06a1.51,1.51,0,0,1-.37,1,3.7,3.7,0,0,0,.9-.75C64.09,10.1,63.93,9.73,63.67,10.06Z"/><path class="cls-3" d="M64.79,9.12l0,.07C64.83,9.2,64.87,9.19,64.79,9.12Z"/><path class="cls-3" d="M61.19,13.88h.13l-.09-.07Z"/><path class="cls-3" d="M64.33,10.31c.28-.14.28-.37.24-.63a2.38,2.38,0,0,1-.37.6C64.26,10.36,64.3,10.4,64.33,10.31Z"/><path class="cls-3" d="M62,11.55c.2-.05.39-.12.59-.19C62.37,11.34,61.94,11.4,62,11.55Z"/><path class="cls-3" d="M64.57,9.14a.07.07,0,0,1,0-.05C64.41,9.06,64.47,9.1,64.57,9.14Z"/><path class="cls-3" d="M64.57,9.14a2,2,0,0,0,0,.54,1.87,1.87,0,0,0,.2-.49A.73.73,0,0,1,64.57,9.14Z"/><path class="cls-3" d="M64.18,16.9c-.48-.33-.65-1.24.24-1.36,0-.71-1.85-1.53-3.1-1.65.21.16.38.28.37,1,.36-.05,1.41-.77,1.55,0-.21.84-.52.46-1,.64.8.09.42,1.44,1.46,1.81v-.77C63.84,16.63,64,17,64.18,16.9Z"/><path class="cls-3" d="M62.09,12.89l.1-.26A2.66,2.66,0,0,1,61,13c0,.54.1.74.25.87l.85-1.06Z"/><path class="cls-3" d="M62.92,11.63c.35.56.23,1.25,1,1.36.42-.63-.09-.75,0-1.28-.7,1.06,0-.51-.93,0A2.39,2.39,0,0,1,63.3,11a3.79,3.79,0,0,1-.67.33h.06c.1,0,.15,0,.08.05v0a.9.9,0,0,1,.15.19c-.35.2-.17-.06-.15-.19l-.07-.08h0c-.2.4-.34.85-.5,1.27A3.69,3.69,0,0,0,62.92,11.63Z"/><path class="cls-3" d="M69.54,9.56a.2.2,0,0,1-.12-.1C69.41,9.57,69.42,9.63,69.54,9.56Z"/><path class="cls-3" d="M68.92,9.55c0-.12-.1-.36.16-.49s.19.25.34.4c0-.23.17-.72-.44-.64l0,.12a2.46,2.46,0,0,1-1.52-.21A6,6,0,0,0,68.92,9.55Z"/><path class="cls-3" d="M66,10.53a7.71,7.71,0,0,0-.46,1h.75L66,11.27C66.52,11,66.15,10.76,66,10.53Z"/><path class="cls-3" d="M60.85,13.81l-.5-.49c.14.34.32.71.49,1.06Z"/><polygon class="cls-3" points="60.2 15.08 59.72 14.74 59.84 15.25 60.2 15.08"/><path class="cls-3" d="M98.93,46.81l.09-.28A.75.75,0,0,0,98.93,46.81Z"/><path class="cls-3" d="M97.49,47.79l.13.26C97.6,47.87,97.56,47.76,97.49,47.79Z"/><path class="cls-3" d="M62.88,47.81c-.14.71-.45,1.69,0,1.21l.4-.53A.87.87,0,0,1,62.88,47.81Z"/><path class="cls-3" d="M83.7,54.74c0-.07-.07-.13-.1-.2l-.33.58C83.4,55,83.55,54.89,83.7,54.74Z"/><path class="cls-3" d="M84.15,52.06l.46.43A1.61,1.61,0,0,0,84.15,52.06Z"/><path class="cls-3" d="M104.38,39.25c-.15-.18-.3-.35-.47-.53C103.73,39.08,104.1,39.07,104.38,39.25Z"/><path class="cls-3" d="M56.62,29a2.52,2.52,0,0,0-.42,1C56.59,29.49,57.16,29.12,56.62,29Z"/><path class="cls-3" d="M102.45,52.83a.46.46,0,0,0,0-.49C102.34,52.55,102.33,52.72,102.45,52.83Z"/><path class="cls-3" d="M56.27,31.16c.06-.08.09-.15.14-.22a1.87,1.87,0,0,1-.21-1A.75.75,0,0,0,56.27,31.16Z"/><path class="cls-3" d="M95.4,10.17a.29.29,0,0,1,0-.1C95.32,10.15,95.35,10.17,95.4,10.17Z"/><path class="cls-3" d="M85.86,1.28a2.7,2.7,0,0,1,.53,0A.76.76,0,0,0,85.86,1.28Z"/><path class="cls-3" d="M57.6,20.2c.06-.3-.05-.06,0,0Z"/><path class="cls-3" d="M60.48,19.74a.53.53,0,0,0,.26.22A.67.67,0,0,1,60.48,19.74Z"/><path class="cls-3" d="M60.59,33.52v0C60.71,33.44,60.69,33.46,60.59,33.52Z"/><path class="cls-3" d="M58,19.87a1.46,1.46,0,0,0-.31.3A1.31,1.31,0,0,0,58,19.87Z"/><path class="cls-3" d="M57.72,19.82l.15-.23C57.78,19.52,57.7,19.53,57.72,19.82Z"/><path class="cls-3" d="M57.5,20.62a1.57,1.57,0,0,1,.22-.45c-.06,0-.1.06-.12,0Z"/><path class="cls-3" d="M108.24,23.62l.05-.07C108,23.38,108,23.48,108.24,23.62Z"/><path class="cls-3" d="M72.5,47.69h0v0Z"/><path class="cls-3" d="M73.44,47.76c-.73.48-.85.27-1,0l-.85,1.69C72.24,48.89,72.85,48.33,73.44,47.76Z"/><path class="cls-3" d="M101.82,43.84l-.79,0c-.28-1.15.25-1.26-.69-1.43.74.68.47,1.15.12,1.55s-.68.79,0,1.57l-.56-.06c.09-.06,0-.16.11-.21-1.15-.24.59,1.46-.36,1.86-.37.08-.73,0-.7-.34l-.27.87c-.2.09-.36-.22-.17-.32-.27.27-.56.49-.85.75l0-.06a5.67,5.67,0,0,1-.06,1.26c-.4-.09,0-.27-.18-.44-.1.25-.19.52-.3.77a.72.72,0,0,1,.11-1.21c-.78-.71-.8-.54-.86-.22s-.18.73-1,.48l.39-.49c-.87-.85-1-.29-1.89-.66.25.29,1.9,1.06,1.54,1.81-.24-.05-.48,0-.64.53-.3-.65-.55-.37-1-.17l-.33-.9c-.32.42-.11.87-.22,1.38-.53.11-.87-.55-1.18-1.12-.84.07.92,1,0,1.41-.8-.18-1.12.4-1.87,1.11-.57-.24,0-.59-.27-.83l-.29.83c-.11,0-.12-.24-.12-.36-.32.36.14,1-.43,1.31,0,.53-.38.23-.81-.09s-.9-.66-1.24,0c-.2-.26,0-.6,0-1a9.89,9.89,0,0,0-1.68,1.68l-.72-.65c.51.73-.19,1.57-.91,2.25a7.42,7.42,0,0,0,.46.81A9.77,9.77,0,0,1,83,56c-.11-.18,0-.49.24-.87l-.21.21c-.35-.4-.09-.93.22-1.43.1.21.21.43.32.64a4,4,0,0,0,.55-1.78.68.68,0,0,1-.34.25.58.58,0,0,0,.1-.39c0-.1-.14.12-.31.34l-.13-1.1-.09.42-1.13-.82-.78.78c-.27.25-.56.51-.86.74a3.57,3.57,0,0,1-2.13.83c.58-.63.43-1.2.71-2.09.12,1.06,1.18-.15,1.83.21-.35-.19-.17-.6,0-.73l-1.46.58c.22-.73-.12-.61-.34-1-.19,1.53-1.22.65-1.9.91.15-.49.45-.93,1-.61-.27-1.29-1.51,1.39-1.82.18.15.05.2.16.36,0-.52.26-1.23-.45-.84-.76l.14.06a4.35,4.35,0,0,0-.84-.44,5.8,5.8,0,0,0-1-.4,1.7,1.7,0,0,0-1.8.32,17.87,17.87,0,0,1,1.13-1.41,34.36,34.36,0,0,1-4.08,2.38c.79-.78,1.84-3.23,2.92-3.23a.83.83,0,0,0-.89-.59c0,.23-.65,1.52-.9,1.45a8.71,8.71,0,0,0,.13-2.13c0,.35-1.3,1.46-1.6,1.13.23-.15,1.12-1.27,1.35-1.31-.63.2-1.28.39-1.91.53.4,0,1-1,1.22-1.49-.17.31-.57-.63-.87-.71v.57c-.6-.95-2.54.73-3.26-.3.37-.09,1.9-1.05,1.71-1.62a18.79,18.79,0,0,1-2.51.79,4.65,4.65,0,0,1-2.79,0l.29-.45c-.32-.16-.65-.32-.95-.5l3-.2c1.12-.08,2.18-.18,2.81-.19.09-.57.41-.43,0-.92.27-.44.75-.12.87,0l-.49-1.31a1.14,1.14,0,0,1-1.12.09c-.33-.13-.64-.28-1-.05a14,14,0,0,0,1.71.8,3.16,3.16,0,0,1-1.82.48,1.49,1.49,0,0,1-1.5-.85c.22-.43,1.68-.65,2-.83-.36.05-1-.58-.86-.77l.68.15c.09-.65-1.65-.27-1-1.31,0-.26,1-1.13.38-.95A15.64,15.64,0,0,1,60,39.39a6.22,6.22,0,0,1,1-2.25c.74-.67,2.22,0,2.86-.61a1.41,1.41,0,0,1-.78-.1c.15-.32.85-.15.58-.64-1,.18-.23-1.12-.91,0-.42-.47,0-.62-.15-1.24a2.89,2.89,0,0,1-2.7-.72,1.54,1.54,0,0,0,.71-.28,6,6,0,0,1,0-.83,7.28,7.28,0,0,1,.14-.73,5.32,5.32,0,0,0,.14-1.47c.23-.12.51-.65,1-.44-.18-.15-.52-.29-.54-.63.9-.64.12.75,1.19.25-.59,0-.79-.85-1.15-1.35-.92.11-.21,1.13.15,1.6a3.42,3.42,0,0,1-3.11-2.18c-.26-1,.85-.37.67-.56a1.78,1.78,0,0,0-.68-1.83c-.41-.43-.75-.85-.11-1.56.93-.46,1.58.31,2.18.29.1.82-.76,1.09-.79,1.65l.47-.6c.23.29.36.83.09,1.09.73-.39.63-3,1.72-4.09-.18-.31-.31-.8-.68-.71l0,.45c-.75.2-.58-1.08-1-.63-.22-.71-.73-1.69,0-2.36l.91.21c-.25-.09-.74.31-.58.64-.22-.51,1.69-.72.75-1.57l-.83.3c-.16-.75-.74-2,0-2.54-1-.1,0,.2-1.24.25,1.4.12-.94,1.93.67,1.76-1.37.06-.94.72-2.18,1.11.29.08.63-.07.27.55a1.5,1.5,0,0,1,.2.24l0,0,0,0c0,.05,0,.05,0,0a1.12,1.12,0,0,1,.55-.18c.54.57.18,1.58.41,2-.26.34-.28-.25-.66-.14a7.44,7.44,0,0,0,.37.67c-.66-.13-1.33.78-1.49-.27l-.23.86a1.61,1.61,0,0,0-.61,1.61c-.2.4.6,1.17.12.73l.24,1.43h-.17a6.06,6.06,0,0,0,.25,2.12,3,3,0,0,1-.46,2.26,2.59,2.59,0,0,1,.31,1.69l-.57.21c.24.56-.28,1.88.35,2a1.51,1.51,0,0,0-.4,2,8.68,8.68,0,0,1,.76,2.06l.74-.2a5.13,5.13,0,0,0,1.26,2l.6-.31c.74.48.36,1.94,1,3-.26,0-.35-.25-.31-.52a1.4,1.4,0,0,0,.09,1.22,3,3,0,0,0,.88.78c.69.45,1.35.84,1.3,1.67a.56.56,0,0,1,.48.62.1.1,0,0,0-.07,0,.49.49,0,0,0,.07.11c0,.18,0,.38,0,.58a1.79,1.79,0,0,0,0-.53,2.73,2.73,0,0,0,.82.62l-.45.59s0,0,.07,0c0,.47.44,0,.73-.5a1.57,1.57,0,0,0,.65.07c-.66,1,.94.41.32,1.56.3-.12.7.13,1.15.31a1.44,1.44,0,0,0,1.49-.19c-.1.13-.08.26-.23.14.2.36.41.74.91.69l-.45.82c.48-.12,1-.27,1.44-.44.08.74.09,1.14-.77,1.4,1.68-.14,1.1.28,2.56,0l-.36.48c.35.17,1.28-.21,1.23.32.09.7,1,1.3,2.13,1.8a14.59,14.59,0,0,1,3.37,1.87c0-.91.23-.63.47-.3s.57.68.78,0c0,.43.28.73-.17,1,1.23-.14,1.61,1.08,2.61,0,.07.43-.34.57-.26.83.11-.08.42-.31.51,0s-.22.32-.44.47c1.25.1,1.5-1.16,1.7-2.34.52.65.83.59,1.29-.19.17.4.5.81-.23.93.39.07,2.49.66,2.5-.33.13.24.56,0,.66-.08a7.61,7.61,0,0,0,1.85-.09l-.26-.13c.21-1.16.67-.35,1.35-.6v.12c1.73.52.59-.46,2.35.09L92,55.56c-.25-1.53,1.57.51,2.32-.32l-.45-.3c.29-.62,2,1.49,2.63,1.47.16.08-.1.27-.21.42,1.67.32-.18-.94.69-1.52.38.39.29,1.29,1,1.08.24.1.54-.51.91-1.08s.82-1.08,1.47-.94c-.38-.22-.75-.45-.5-1,.5-.5,2.5.18,2.31-1.23a.51.51,0,0,1,.28.16c.25-.6,1.1-1.54.91-2.24,1,.78,1.44-.07,1.77-.84s.55-1.54,1.4-.77l1-1.38.15.18a1.61,1.61,0,0,0,.34-2c.27-.11.34.15.43.24,1.31-1,1.27-1.3.93-3l.72.24c-.1-.26.45-.6,1-1.18a2.7,2.7,0,0,0,.92-2.2.55.55,0,0,1,.26.28c-.14-1,.73-1.81,1.23-2.66s.74-1.64-.52-2.2a12.75,12.75,0,0,0-.49-1.24c-.39,1.4-1.13-.39-1.65.12-.09-.54,1-1.29,1-.6l-.15.09c1.36.45.74-1.71,1.66-1.6.14-2.9.61-5.84.07-8.64l-1,.56c0-.32-.12-.62-.18-.93.18-.31.74-.55.88.13.5-.51-.82-1-1.05-.93.06-1.42,1.37.14,1.28-.26l-.23-.53-.09.16c-.57-.31-1-.21-1.24-1,0-.56.54-.48.5-.69.08,0,.09-.11-.08-.31l-.38-1.19-.61.79c-.58-.33-.38-1-1.07-.15.54-.67.13-1.73-.36-2.7s-1.24-1.73-1.17-2.08a3.28,3.28,0,0,1-1.87-1.58c0,.29-.68,1-1,.34.85-.53.82-1,.6-1.41A1.8,1.8,0,0,1,106,9.48c-.14.54-.58.17-1-.12s-.93-.47-1,.32c-.38-.55.48-.58.42-1.26a4.66,4.66,0,0,1-2.06-1.58A6.42,6.42,0,0,0,100.07,5c-.15.21-.08.72-.64.85-.07-.55-.15-1.1-.25-1.66-.42-.07-1,1.14-1.23,0,0,.24,0,.6-.29.57a9.69,9.69,0,0,0-5.31-2.2c-1-.16-1.9-.38-2.85-.61A11.51,11.51,0,0,1,86.64.67c.52.53.15.57-.25.58.26.13,0,.65,0,1-.52-.34-1.06-.71-1.61-1-.26,1-1.75.19-1.83,1.15l.49-.21c-.55,1.17,1.08,2.42,1,3.86.29-.67.75-.22,1.22.21s.94.77,1.53-.13c.2.3-.23.46-.13.79.3-.62.64-.69,1.19-.34l-.08.14c1.66,0,2.26.82,3.84,1.67l.08-.72c.35.22.36.46.47.68.77-.87-1-.41-.28-1.41.05.78.69,1,1.32,1.24s1.19.62,1,1.42c.53.25.18-.82.72-.56l-.05.46.4-.45c.32.24.22.86.06,1.19-.06-.08-.28,0-.38-.06.18.71,1.28.53,1.35.77l-.34-.51a4.49,4.49,0,0,1,1.16.49l1.09.74c.19.13.38.24.57.36a5.07,5.07,0,0,0,.54.36,4,4,0,0,0,1.24.48l.13-.32c1.34.39.44,1,1.59,1.71l-.1,0a1,1,0,0,1,1,.47c-.51,0-.2,1-.81.91,1.33.61.82.15,2.36.15l-.35.5c.58,0,.82-.15,1.33.37-.72-.23-.48.81-1.36.62a1.19,1.19,0,0,0,.2,1,2.23,2.23,0,0,0,.58.49c.4.26.71.5.06,1.17,1.68-.09.2-1.47.66-1.3.3-.52,1.28,0,1.36.47s-1.47,1.55-1,2.54c0-.1-.14-.07-.18-.17-.23.52.84.57.35,1.27,1,0,.13.65,1.29.4l-.54-.94c.44.46,1.94.66,1.57,1.82a2.39,2.39,0,0,1-.87-.38c-.26.36.4.48.1.85-1.15.18-.6-1.17-1.62-1.51-.41.42,1.14.89-.18.93.85,0,.87.28.86.6s-.13.69.55,1l-.71.08c.13.09.51.28.53.5l-1-.23c.87.46-.46,1.2,0,1.7-.11-1.16.85-.36,1.3-.93,1.09,1.43-1.78,1.05-1.32,2.6-.1-.21.37-.83.73-.5a1.72,1.72,0,0,1-.78.92c.11,1.06.74-.16,1.16.3-.88.36.34.54.6,1.07l-.72,0c-.55,1.21,1.48.46.79,1.58l-.94-.6.19.61-.81-.22c.51.7.39.9,0,1.45.53,0,1.27.33,1.16.91-.51.29-.62-.36-.7.44-.4-.29-.91-.6-.19-.78-.22-.09-.4-.27-.62-.35-.57.28-.33.94-.39,1.21a.51.51,0,0,1,.23-.25,10,10,0,0,1,.65,1.37c-.32.1-.48-.11-.64-.3,0,.23.27.49.22.83-.53-.27-1.11-.45-1.23-1l.29,1.2c-.26,0-.83.26-1,.05-.56.35.49,1.74-.28,2.25a.48.48,0,0,1,.13.39c-.52.57-1.35.77-1.21,1.9l-1.15-.21c-.19.69,1.47.22,1.13,1.39-.21.88-.88-.29-1.29-.25.18.61.51,1.87-.61,1.87C101.49,44.11,101.73,44.06,101.82,43.84ZM95.4,49.36c.08-.22.15-.78.46-.46C96.08,49.72,95.75,49.44,95.4,49.36Zm-13,3.83c.17-.22.35-.08.56.22A.56.56,0,0,1,82.44,53.19ZM57.3,23.55l0,0C57,24,57.09,23.85,57.3,23.55Zm.53-.91a.26.26,0,0,0-.28-.13c.16.12.12.34,0,.58C57.77,23.06,57.92,23,57.83,22.64ZM112,19.42l-.11.25C111.55,19.34,111.77,19.38,112,19.42Z"/><path class="cls-3" d="M84.1,52.37a1.67,1.67,0,0,1,.05.39A.3.3,0,0,0,84.1,52.37Z"/><path class="cls-3" d="M104.46,39.35h0a.81.81,0,0,0-.1-.09Z"/><path class="cls-3" d="M64.11,36.12a.87.87,0,0,1-.27.41A.34.34,0,0,0,64.11,36.12Z"/><path class="cls-3" d="M58.46,17.14l-.1.68c.1-.31.29-.35.46-.44C58.66,17.32,58.39,17.33,58.46,17.14Z"/><path class="cls-3" d="M65,14.76c0-.12.1-.15.07-.27l-.28-.18C64.6,14.61,64.68,15,65,14.76Z"/><path class="cls-3" d="M60.88,17.62c.58.23.52-.22.64-.64a.16.16,0,0,1,0,.07C60.79,16.54,60.81,17.08,60.88,17.62Z"/><path class="cls-3" d="M61.55,16.89a.9.9,0,0,1,.18-.35C61.46,16.33,61.59,16.64,61.55,16.89Z"/><path class="cls-3" d="M57.77,21.3c.21-.16-.71-.36-.43-.4C56.66,20.45,57.8,22.54,57.77,21.3Z"/><polygon class="cls-3" points="62.82 18.2 62.09 18 62.54 18.47 62.82 18.2"/><path class="cls-3" d="M61.09,20.92l.4-.54a.28.28,0,0,1-.18-.26C61.16,20.49,60.88,20.86,61.09,20.92Z"/><path class="cls-3" d="M61.31,20.12a.66.66,0,0,0,.09-.53A1.33,1.33,0,0,0,61.31,20.12Z"/><polygon class="cls-3" points="62.67 19.09 62.45 19.19 62.22 19.58 62.67 19.09"/><path class="cls-3" d="M59.52,27.73l.2.72c.25.08.41-.1.32-.37S59.77,27.64,59.52,27.73Z"/><path class="cls-3" d="M61.8,25.9c-.17.15-.34.14-.6.2l.92.15Z"/><path class="cls-3" d="M61.79,27.81c.26.09.72,1,.68.17C62.21,27.9,62,27.23,61.79,27.81Z"/><polygon class="cls-3" points="61.99 37.87 61.91 37.71 60.48 38.23 61.99 37.87"/><path class="cls-3" d="M69.27,43.33c-.14-.77-.83.47-.87-.32-.39.09,0,.65-.31.71C68.66,43.83,68.63,44.14,69.27,43.33Z"/><path class="cls-3" d="M68.09,43.72a2.5,2.5,0,0,0-.32,0A.79.79,0,0,0,68.09,43.72Z"/><polygon class="cls-3" points="83.65 0.53 83.02 0.26 83.45 0.74 83.65 0.53"/><path class="cls-3" d="M82.61,1.75l-.24-1-.26.9C82.24,1.64,82.49,1.54,82.61,1.75Z"/><path class="cls-3" d="M93.47,48.09l.06.23c.16.21.26.19.47.15Z"/><polygon class="cls-3" points="98.78 45.72 98.69 45.77 99.4 46.33 98.78 45.72"/><path class="cls-3" d="M101.33,41.49c-.13.14-.13.43-.29.55C101.2,41.64,102.23,42.11,101.33,41.49Z"/><text class="cls-4" transform="translate(64.8 44.51)">開鍋囉!</text></g></g></svg>