<?xml version="1.0" encoding="utf-8"?>
<!-- Generator: Adobe Illustrator 23.0.6, SVG Export Plug-In . SVG Version: 6.00 Build 0)  -->
<svg version="1.1" id="圖層_1" xmlns="http://www.w3.org/2000/svg" xmlns:xlink="http://www.w3.org/1999/xlink" x="0px" y="0px"
	 viewBox="0 0 249.3 284.1" style="enable-background:new 0 0 249.3 284.1;" xml:space="preserve">
<style type="text/css">
	.st0{fill:#EFEFEF;}
</style>
<path class="st0" d="M127,284.1c-20.7,0-41.4,0-62.2,0c-3.4,0-3.4,0-2.9-3.3c4.8-28.4,9.5-56.7,14.2-85.1c0.6-3.5,1.1-7.1,1.7-10.6
	c0.6-3.4,1.4-4,5-4c28.4,0,56.8,0,85.2,0c3.5,0,4.1,0.5,4.8,4c5.3,26.3,10.6,52.6,15.8,78.9c1.2,5.8,2.3,11.6,3.5,17.3
	c0.5,2.5,0.4,2.7-2.4,2.8c-7.8,0-15.7,0-23.5,0C153.3,284.1,140.2,284.1,127,284.1z M126.6,264.6
	C126.6,264.6,126.6,264.6,126.6,264.6c12.8,0.1,25.6,0.1,38.4,0.1c3.6,0,4.5-1,3.8-4.5c-3.7-18.1-7.5-36.1-10.8-54.3
	c-0.8-4.3-1.6-4.9-5.9-4.9c-18.2,0-36.3,0-54.5,0c-4.2,0-5.1,0.8-5.7,5c-0.6,4.7-1.1,9.4-1.7,14.1c-1.7,13.4-3.5,26.8-5.3,40.1
	c-0.5,3.8,0.2,4.4,3.9,4.4C101.5,264.6,114.1,264.6,126.6,264.6z"/>
<path class="st0" d="M125.2,171.9c-13.2,0-26.4,0-39.6,0c-4.8,0-5.7-0.9-5.1-5.6c2.5-19.8,5.1-39.7,7.7-59.5
	c1.1-8.4,2.1-16.8,3.1-25.2c0.6-4.6,1.1-5.2,5.8-5.2c17.9,0,35.7,0,53.6,0c4.3,0,5.3,0.9,6,5.3c3.1,20.7,6.3,41.4,9.5,62.1
	c1.2,7.8,2.5,15.6,3.7,23.4c0.6,3.6-0.3,4.7-4,4.7C152.4,171.9,138.8,171.9,125.2,171.9C125.2,171.9,125.2,171.9,125.2,171.9z
	 M124.3,91.9C124.3,91.9,124.3,91.9,124.3,91.9c-4.9,0-9.8,0-14.7,0c-4.9,0-5.4,0.4-6,5.3c0,0.3,0,0.6-0.1,0.9
	c-1.2,10.6-2.3,21.3-3.6,31.9c-0.8,7-1.7,14-2.5,21c-0.4,3.5,0.4,4.6,3.2,4.6c15.5,0,31-0.4,46.5,0.4c4.5,0.2,6.3-2,5.1-6.5
	c-1.3-5.1-1.7-10.4-2.4-15.6c-1.6-12.3-3.2-24.6-4.8-36.9c-0.6-4.6-1.4-5.1-6-5.1C134.2,91.9,129.3,91.9,124.3,91.9z"/>
<path class="st0" d="M37.3,150.9c10.3,0,20.6,0,31,0c4.6,0,5.3,1,4,5.2c-0.8,2.8-0.9,5.7-1.3,8.5c-0.8,5.7-3.5,8.1-9.3,7.6
	c-10.2-0.8-20.5-0.2-30.7-0.4c-2.4,0-2.5,0.3-1.5,2.6c6.6,14,14.9,26.7,26.8,36.8c2.8,2.4,3.7,5.4,2.7,9c-1.4,4.7-2.1,9.5-2.9,14.4
	c-0.4,2.5-0.6,2.6-2.7,1.2c-10.4-7.2-18.8-16.4-26.5-26.3c-12-15.6-19.7-33.1-24.4-52.1c-1.4-5.8-0.9-6.5,5-6.5
	C17.5,150.8,27.4,150.8,37.3,150.9C37.3,150.9,37.3,150.9,37.3,150.9z"/>
<path class="st0" d="M214,150.9c10.9,0,21.7,0,32.6,0c2.9,0,3,0.1,2.4,2.9c-6.7,31.6-22.8,57.6-47.5,78.3c-1.2,1-2.5,2.1-3.8,3.1
	c-1.2,0.9-2.2,0.6-2.8-0.8c-4.5-11.2-5.1-21.3,5.2-30.1c9.8-8.4,15.6-19.1,20.8-30.5c1.1-2.3-0.6-2-1.9-2c-10.6,0-21.3,0-31.9,0.1
	c-5,0-6.2-0.9-7.1-5.9c-0.7-3.7-1.4-7.5-2.1-11.2c-0.6-3.1,0-3.9,3.3-3.9C192.3,150.9,203.2,150.9,214,150.9
	C214,150.9,214,150.9,214,150.9z"/>
<path class="st0" d="M126.4,14.7c11.5,0.6,13-0.7,13.9-11.9c0.9,2.4,0.6,6.3-0.7,9c-1,2.2-1.3,2.4-7.7,4.9c1.1,0.8,2.4,0.4,4.1,0.9
	c-2,0.5-3.7,0.1-5.2,1c-3.7,2.2-5.7,5.4-6,9.7c-0.4,5.9-0.7,11.8-2.7,17.4c-0.5,1.5-1.1,3.1-1.9,4.5c-2.2,4-5.2,6.7-10.5,5.6
	c5.2,4.1,12.2,3.8,17.5-0.6c4.5-3.7,7.6-8.6,10.2-13.7c2.6-5.1,4.8-10.4,5.7-16.2c0.2-1.7,0.5-3.3-1.1-5.3c1.4,0.7,2.1,1,2.8,1.4
	c-3.1-2.5-3.5-5.6-2.8-9.2c0.8-4,0.8-8,0-12c1.4,1.8,1.4,4,1.4,6c0.1,2.4,0,4.8-0.5,7.2c-0.6,3.2,0.6,5.4,3.1,7.1
	c0.5,0.4,1.6,0.4,1.4,1.3c-0.1,0.7-1,0.9-1.7,0.9c-1.6,0-1.2,1.1-1.2,2c-0.7,12.2-5.3,22.8-13.8,31.5c-4.4,4.6-9.9,6.6-16.3,4.4
	c-4-1.4-7-4.1-9.9-7.5c1.4-0.1,2.1,0.5,2.9,0.8c4.7,1.8,7.9,0.8,10.4-3.7c1.9-3.4,2.7-7.3,3.3-11.1c0.5-3.6,0.8-7.2,1-10.9
	c0.1-3.4,1.5-6.4,3.9-8.7C127.3,17.9,129.5,16.8,126.4,14.7z"/>
<path class="st0" d="M140.8,23.9c-1,8-3.2,15.3-7.2,22c-2.3,3.9-5.1,7.4-9.2,9.7c-2.8,1.6-5.7,2.4-8.8,1.7c-0.2-0.4,0-0.5,0.2-0.6
	c7-1.6,11.2-6.6,14.7-12.3c3.8-6.2,6.5-12.9,9.2-19.6C139.9,24.6,139.9,24.1,140.8,23.9z"/>
<path class="st0" d="M17.1,91.6c-1.1-0.9-2.1-1.8-3.2-2.6c-0.8-0.6-1.2-1.2-0.7-2.2c0.5-1.1,1.3-0.9,2.1-0.6
	c1.1,0.4,2.2,0.8,3.5,0.9c-1-0.8-2-1.7-3-2.5c-0.9-0.7-1.2-1.4-0.4-2.3c0.8-1,1.4,0,1.9,0.4c2,1.7,4,3.5,6,5.2
	c0.9,0.7,1,1.4,0.5,2.4c-0.6,1.1-1.3,0.8-2.2,0.5c-1-0.4-2-0.7-3.2-0.8c1,0.9,2,1.8,2.9,2.7c0.7,0.6,0.7,1.3,0.3,2.1
	c-0.5,0.9-1.1,1-1.9,0.7c-2.6-0.8-5.2-1.7-7.7-2.5c-0.7-0.2-1.4-0.5-1-1.5c0.4-0.9,0.8-1.5,1.9-1.1c1.3,0.5,2.7,1,4,1.5
	C17,91.8,17.1,91.7,17.1,91.6z"/>
<path class="st0" d="M6.1,132.2c-1.4-0.5-2.8-1.1-4.2-1.6c-1-0.3-1.4-0.9-1.2-1.9c0.2-1,1-1.1,1.8-1.1c1.3,0,2.6,0,4-0.4
	c-1.3-0.4-2.5-0.9-3.8-1.3c-1.1-0.3-1.6-1-1.2-2.1c0.4-1.4,1.4-0.6,2.1-0.3c2.4,0.9,4.7,1.9,7.1,2.8c1,0.4,1.3,1,1.1,2
	c-0.2,0.9-0.8,1.3-1.7,1.3c-1.2,0-2.5,0-3.8,0.4c1.3,0.5,2.6,1.1,3.9,1.6c1,0.4,0.9,1,0.8,1.9c-0.1,0.8-0.6,1.2-1.4,1.2
	c-2.7,0.1-5.4,0.3-8.1,0.4c-0.8,0-1.6-0.1-1.5-1.2c0.1-0.9,0.5-1.4,1.4-1.5c1.5,0,3,0,4.6,0C6,132.4,6,132.3,6.1,132.2z"/>
<path class="st0" d="M190.5,34.5c-0.1,0.3-0.2,0.6-0.4,0.9c-1.3,2.5-2.6,4.9-4,7.3c-0.4,0.7-0.8,1.3-1.8,0.8c-0.9-0.5-0.9-1-0.5-1.9
	c0.4-1.1,2.3-2.2,0.5-3.3c-2.1-1.3-2,1.2-2.7,2.1c-0.5,0.5-0.8,0.9-1.5,0.5c-0.6-0.4-1.2-0.8-0.8-1.7c1.5-2.7,3-5.4,4.5-8.2
	c0.4-0.7,0.9-0.8,1.5-0.5c0.7,0.4,1.1,0.8,0.7,1.7c-0.1,0.2-0.2,0.4-0.3,0.6c-0.3,1-1.8,2-0.1,2.9c1.6,0.9,1.6-0.9,2.3-1.5
	c0.2-0.2,0.3-0.5,0.5-0.8c0.3-0.5,0.8-0.4,1.2-0.2C190,33.6,190.5,33.9,190.5,34.5z"/>
<path class="st0" d="M199.7,54.9c-2.1-0.1-3.9-2.1-3.7-4.5c0.3-2.8,1.8-4.9,4.3-6.2c1.4-0.7,2.9-0.7,4.1,0.4c1.2,1,1.8,2.3,1.5,3.9
	C205.3,51.7,202.2,54.9,199.7,54.9z M203.4,47.8c-0.1-1.1-0.6-1.9-1.8-1.3c-1.7,0.8-2.8,2.2-3.1,4.1c-0.2,1.4,0.6,2,1.8,1.4
	C202,51.1,202.9,49.6,203.4,47.8z"/>
<path class="st0" d="M239.7,105.2c2.7,0,4.5,1.7,4.5,4.2c0,2.8-3,5.2-6.6,5.3c-2.6,0-4.4-1.8-4.4-4.3
	C233.3,107.6,236.3,105.2,239.7,105.2z M237.5,111.9c1.9,0,4.5-1.5,4.4-2.7c0-1.1-0.9-1.3-1.8-1.4c-1.8-0.1-4.4,1.5-4.4,2.7
	C235.7,111.7,236.6,111.9,237.5,111.9z"/>
<path class="st0" d="M11.3,113.8c-3.6-0.1-6.4-2.6-6.3-5.5c0.1-2.5,1.9-4,4.5-4c3.4,0.1,6.5,2.7,6.4,5.5
	C15.9,112.4,14.1,113.9,11.3,113.8z M12,111.2c0.6,0,1.4-0.2,1.5-1.3c0.1-1.2-2.3-2.8-4.3-2.8c-0.9,0-1.7,0.2-1.9,1.3
	C7.3,109.6,9.7,111.2,12,111.2z"/>
<path class="st0" d="M58.3,36.6c0.1-2,0.8-3.5,2.6-4.2c1.7-0.7,3.2,0,4.4,1.3c1.5,1.6,2.5,3.6,2.5,5.8c0,1.8-0.9,3.1-2.5,3.9
	c-1.6,0.8-3.1,0.2-4.2-1C59.4,40.8,58.4,38.8,58.3,36.6z M65.2,39.5c0-1.8-2.1-4.7-3.3-4.6c-0.9,0-1.1,0.7-1.2,1.4
	C60.7,38,62.7,41,63.9,41C65,41.1,65.2,40.4,65.2,39.5z"/>
<path class="st0" d="M52.9,49.8c0.1,2.5-0.6,3.8-2,4.7c-1.5,0.9-2.8,0.4-4.1-0.4c-2.1-1.3-3.3-3.3-3.6-5.7c-0.2-1.7,0.4-3.2,2-4.1
	c1.4-0.9,2.8-0.7,4.1,0.2C51.4,46,52.6,48,52.9,49.8z M50.5,50.8c-0.5-1.6-1.4-3-2.9-4c-0.4-0.3-1-0.6-1.5-0.2
	c-0.5,0.4-0.7,1-0.5,1.7c0.5,1.6,1.4,3,2.9,3.8C49.7,52.7,50.4,52.2,50.5,50.8z"/>
<path class="st0" d="M237,90.6c-0.1,1.4-1,2.5-2.5,3.1c-1.4,0.6-2.7,0.2-3.5-0.9c-1-1.3-1.9-1.7-3.2-0.6c-0.7,0.6-1.4,0.5-1.9-0.4
	c-0.5-0.9-0.1-1.4,0.7-1.9c2.4-1.3,4.8-2.6,7.1-3.9c0.7-0.4,1.3-0.5,1.8,0.3C236.3,87.5,237,88.8,237,90.6z M233.5,91.2
	c0.5-0.2,1.1-0.5,1.2-1.3c0-0.5-0.3-0.9-0.9-0.8c-0.7,0.2-1.6,0.5-1.5,1.4C232.3,91,232.8,91.2,233.5,91.2z"/>
<path class="st0" d="M31.1,60.9c0-1.8,0.5-2.9,1.4-3.9c0.5-0.5,1.1-1.3,1.9-0.5c0.7,0.6,0.6,1.2,0,2c-1.5,1.7-0.8,3.3,0.6,4.7
	c1.3,1.2,2.7,1.6,4.1,0.1c0.6-0.6,1.1-1.1,1.9-0.3c0.8,0.8,0.2,1.4-0.2,2c-1.1,1.5-2.6,2.5-4.6,2c-2.7-0.7-4.3-2.7-5-5.3
	C31.1,61.3,31.1,61,31.1,60.9z"/>
<path class="st0" d="M220.3,62.2c-0.4,0.7-0.8,1.8-1.9,0.8c-1.1-0.9-1.6-0.3-2.3,0.3c-1.2,1.2-2.5,2.3-3.7,3.5
	c-0.6,0.5-1.1,1.4-2.1,0.4c-0.9-1-0.4-1.6,0.4-2.3c1-0.9,2-1.9,3-2.9c1-1,2.5-1.7,1.2-3.6c-0.4-0.6,0.4-1.5,1.5-1.4
	C216.7,57.1,220.2,61.6,220.3,62.2z"/>
<path class="st0" d="M244.9,130.6c-1.7,0.3-3.3,0.6-5,0.8c-0.8,0.1-1.9,0.6-2.2-0.9c-0.2-1.3,0.7-1.5,1.6-1.7
	c1.3-0.2,2.6-0.5,3.9-0.7c1.3-0.2,2.7-0.1,2.5-2.2c-0.1-0.6,0.7-0.8,1.2-0.8c0.7,0,1,0.4,1,1c0.2,1.5,0.5,3,0.7,4.6
	c0.1,0.7,0.2,1.4-0.7,1.7c-0.8,0.2-1.4,0-1.6-0.9C246.2,130.8,245.6,130.5,244.9,130.6z"/>
<path class="st0" d="M78.8,35.7c-1,0.1-1.2-0.5-1.5-1.1c-1.1-2.7-2.1-5.3-3.1-8c-0.3-0.8-0.3-1.5,0.6-1.9c1-0.4,1.4,0.2,1.7,1
	c0.7,1.7,1.4,3.4,2,5.2c0.4,1.1,1,2,2.4,1.2c0.8-0.4,1.4-0.4,1.9,0.5c0.4,1-0.3,1.4-1,1.7C80.8,34.8,79.7,35.3,78.8,35.7z"/>
</svg>
