<svg xmlns="http://www.w3.org/2000/svg" viewBox="0 0 84.95 385.73"><defs><style>.cls-1{fill:#231f20;}.cls-2{fill:#a98d66;}.cls-3{fill:#b89161;}.cls-4{fill:none;stroke:#000;stroke-miterlimit:10;}.cls-5{fill:#fff;}</style></defs><title>資產 40</title><g id="圖層_2" data-name="圖層 2"><g id="work"><circle class="cls-1" cx="41.14" cy="42.05" r="31.47"/><path class="cls-2" d="M70.94,71.41c-.3.25.24.59.28.71C71.57,71.54,70.81,71.31,70.94,71.41Z"/><polygon class="cls-2" points="73.89 65.67 74.03 65.91 74.06 64.81 73.89 65.67"/><path class="cls-2" d="M77,60.78c-1.2,0-.9,1.89-1.76,2.59l-.29,0,.49.86C76,63.08,76.29,61.4,77,60.78Z"/><path class="cls-2" d="M80.41,58.89c-.47,0,0-.78-.44.64a1.18,1.18,0,0,1,.16-.08A4,4,0,0,1,80.41,58.89Z"/><path class="cls-2" d="M80.13,59.45c-.25.6.49-.24,0,0Z"/><path class="cls-2" d="M81,56.61l.06.93c.29-.07.6-.78.67-.45C81.85,56.19,81.56,56.29,81,56.61Z"/><path class="cls-2" d="M80.54,55.6v.46C80.67,56,80.74,55.93,80.54,55.6Z"/><path class="cls-2" d="M80.56,57v-1c-.2.06-.53-.05,0,.44C80.25,56.32,80.48,56.59,80.56,57Z"/><path class="cls-2" d="M80.23,57.47c-.36.37-.75.84-.77,0C79,58.9,79.76,59,80.23,57.47Z"/><path class="cls-2" d="M76.12,60a4.27,4.27,0,0,1-.54.37l.06.61C75.62,60.69,76.45,60.14,76.12,60Z"/><path class="cls-2" d="M83.05,51.7c-.21-.1-.66.14-1,.13l.11.67C82.43,52.23,82.71,51.67,83.05,51.7Z"/><path class="cls-2" d="M82.09,51.83l-.16-1C81.69,51.64,81.84,51.83,82.09,51.83Z"/><polygon class="cls-2" points="79.47 55.08 79.75 56.75 79.55 54.81 79.47 55.08"/><polygon class="cls-2" points="83.73 48.16 84.18 48.77 83.53 47.71 83.73 48.16"/><path class="cls-2" d="M83.94,45.78c.42.44.77-.48,1,0a4,4,0,0,0-.7-1.77A2.22,2.22,0,0,1,83.94,45.78Z"/><path class="cls-2" d="M83.8,43.11a5.12,5.12,0,0,0,.45.86A2.55,2.55,0,0,0,83.8,43.11Z"/><path class="cls-2" d="M82.34,49.34a1,1,0,0,0,.75-.61L82.4,49C82.39,49.1,82.36,49.22,82.34,49.34Z"/><path class="cls-2" d="M82.38,49h0c.08-.39.13-.66.15-.77Z"/><path class="cls-2" d="M82.33,49.43v-.09C82.28,49.37,82.25,49.38,82.33,49.43Z"/><path class="cls-2" d="M80.73,53c-.22-.62-.34-1.76-1.12-.88C80,52.61,80.4,52.1,80.73,53Z"/><path class="cls-2" d="M81.47,49.73c-.09.3-.23.6-.35.9.17,0,.45-.1.56.19C81.61,50.45,81.57,50.09,81.47,49.73Z"/><polygon class="cls-2" points="81.34 49.23 81.47 49.73 81.58 49.39 81.34 49.23"/><path class="cls-2" d="M83.12,44.78a2.83,2.83,0,0,1-.28-1.42A7.46,7.46,0,0,0,82.57,45C82.76,45.11,83.11,45.38,83.12,44.78Z"/><path class="cls-2" d="M82.77,46.83l0-.09C82.68,46.79,82.66,46.83,82.77,46.83Z"/><polygon class="cls-2" points="82.72 38.25 82.61 38.34 82.72 38.35 82.72 38.25"/><path class="cls-2" d="M82.44,45.11a.9.9,0,0,0,.19.92,4.73,4.73,0,0,1-.06-1C82.48,45,82.42,45,82.44,45.11Z"/><path class="cls-2" d="M83.53,41.66c-.12.22-.23.47-.35.73C83.4,42.18,83.7,41.74,83.53,41.66Z"/><path class="cls-2" d="M82.94,46.62a.14.14,0,0,1,0,.06C83.12,46.56,83.05,46.57,82.94,46.62Z"/><path class="cls-2" d="M82.94,46.62a2,2,0,0,0-.31-.59,3.19,3.19,0,0,0,.11.71A.82.82,0,0,1,82.94,46.62Z"/><path class="cls-2" d="M78.44,37.24a1.16,1.16,0,0,1,.71,1.86c.49.82,2.41.16,3.46-.76-.27,0-.46,0-1-.88-.22.36-.59,2.12-1.16,1.39-.37-1.18.1-1,.35-1.63-.66.58-1.29-1.38-2.32-.94l.52.95C78.88,37.27,78.56,36.94,78.44,37.24Z"/><path class="cls-2" d="M82.64,40.17l.09.39a3.79,3.79,0,0,1,.74-1.42c-.32-.64-.55-.76-.75-.79V40.3Z"/><path class="cls-2" d="M82.79,42.33c-.61-.31-1-1.23-1.63-.66.07,1.11.53.79.79,1.47-.08-1.84.34.54.76-.79a4.18,4.18,0,0,1,.13,1,7.4,7.4,0,0,1,.34-1l0,0h0c-.09.08-.14.11-.09,0v0a.7.7,0,0,1-.24-.09c.16-.54.17-.08.24.09l.1,0h0c-.08-.63-.28-1.26-.41-1.88A8.12,8.12,0,0,0,82.79,42.33Z"/><path class="cls-2" d="M78.49,50.89a.24.24,0,0,1,.16,0C78.6,50.75,78.55,50.69,78.49,50.89Z"/><path class="cls-2" d="M79,50.28c.06.15.28.31.12.7s-.3-.08-.51-.11c.11.28.24,1,.73.27l0-.14c.38-.63,1.39-1.38,1.45-1.25A5.39,5.39,0,0,0,79,50.28Z"/><path class="cls-2" d="M81,46.41a11.27,11.27,0,0,0-.19-1.52l-.6.71h.34C80.3,46.42,80.7,46.28,81,46.41Z"/><path class="cls-2" d="M83,38l.69.15c-.32-.28-.71-.55-1.06-.81Z"/><polygon class="cls-2" points="82.67 36.03 83.27 36.02 82.83 35.53 82.67 36.03"/><path class="cls-2" d="M7.63,33.46l.08.41A1.17,1.17,0,0,0,7.63,33.46Z"/><path class="cls-2" d="M8.46,30.83l-.26-.16C8.31,30.84,8.41,30.93,8.46,30.83Z"/><path class="cls-2" d="M50.75,1.27c-.52-.7-1.11-1.72-1.16-1l.07.69A1.64,1.64,0,0,1,50.75,1.27Z"/><path class="cls-2" d="M20.06,10.38l.25.06c0-.27,0-.51,0-.74C20.25,9.91,20.14,10.12,20.06,10.38Z"/><path class="cls-2" d="M21.24,12.86l-.85.1A2.57,2.57,0,0,0,21.24,12.86Z"/><path class="cls-2" d="M7.79,48.27a7,7,0,0,0,.73.3C8.39,47.92,8.12,48.26,7.79,48.27Z"/><path class="cls-2" d="M74.54,17.05A4.4,4.4,0,0,0,74,15.64C74.12,16.44,74,17.22,74.54,17.05Z"/><path class="cls-2" d="M1.25,30.48c.05.31.15.46.29.49C1.5,30.66,1.42,30.47,1.25,30.48Z"/><path class="cls-2" d="M72.88,14.38c0,.11.06.21.09.32a3.34,3.34,0,0,1,1,.94A1.35,1.35,0,0,0,72.88,14.38Z"/><path class="cls-2" d="M47.73,75.9l.13,0C47.85,75.85,47.8,75.86,47.73,75.9Z"/><path class="cls-2" d="M66,74.65a5.79,5.79,0,0,1-.59.5A1.65,1.65,0,0,0,66,74.65Z"/><path class="cls-2" d="M81,28c.19.39.1,0,0,0Z"/><path class="cls-2" d="M79.2,30.7a.45.45,0,0,0-.35-.06A.58.58,0,0,1,79.2,30.7Z"/><path class="cls-2" d="M67.11,14.23l0,0C67.09,14.37,67.09,14.34,67.11,14.23Z"/><path class="cls-2" d="M80.91,28.68a2.9,2.9,0,0,0,0-.59A2.7,2.7,0,0,0,80.91,28.68Z"/><path class="cls-2" d="M81.17,28.5l.07.38C81.36,28.9,81.41,28.83,81.17,28.5Z"/><path class="cls-2" d="M80.74,27.4a3.15,3.15,0,0,1,.17.69c0-.09,0-.14.06-.12S80.86,27.68,80.74,27.4Z"/><path class="cls-2" d="M19.14,70.77l0,.1C19.63,70.88,19.47,70.81,19.14,70.77Z"/><path class="cls-2" d="M39.83,6.94l0,0,0,0Z"/><path class="cls-2" d="M38.57,7.48c.49-.83.82-.75,1.25-.59L39.29,5C39,5.85,38.79,6.67,38.57,7.48Z"/><path class="cls-2" d="M6.8,40l.63-.85c.91,1.14.54,1.84,1.4,1.09-1-.11-1.07-1-1-1.81S8,36.72,7,36.49l.5-.52c0,.17.07.22,0,.38,1.11-1-1.32-1.11-.68-2.54.28-.48.65-.76.8-.35l-.21-1.27c.13-.32.44-.14.32.18.1-.59.28-1.15.41-1.73l0,0a7.41,7.41,0,0,1-.59-1.41c.43-.33.13.3.41.27,0-.37-.1-.75-.12-1.12.33-.09.52.11.59.4a1.37,1.37,0,0,1-.07,1c1.1-.07,1-.29.94-.69s-.19-1,.76-1.6l-.14.93c1.3-.05,1.21-.85,2.26-1.42-.42,0-2.47,1-2.49-.14a1.15,1.15,0,0,0,.38-1.23c.64.33.77-.23,1.09-.85l.8.52c.14-.77-.31-1-.45-1.58.51-.69,1.21-.43,1.85-.23.91-1-1.53.08-.74-1.3a2.65,2.65,0,0,0,1-1.21c.2-.48.3-1.08.57-1.76.78-.37.35.49.75.45l-.11-1c.13-.12.27.08.34.18.18-.64-.68-.67-.23-1.56-.29-.45.3-.58,1-.74s1.47-.35,1.5-1.19c.4,0,.29.53.6.75a17.39,17.39,0,0,0,1-3L20.39,13c-1.1-.09-.74-1.41-.33-2.58A6.72,6.72,0,0,0,19,10.17a12.62,12.62,0,0,1,1.06-1.33c.25,0,.29.4.28.86.05-.12.1-.24.13-.34.68,0,.71.64.66,1.29l-.81-.21a3,3,0,0,0,.48,1.87A1,1,0,0,1,21,11.8c0,.19,0,.35.13.4s.09-.23.17-.55l.88.73-.16-.4,2-.4c.16-.41.3-.85.45-1.29s.35-.84.58-1.27a6,6,0,0,1,2.05-2.36c-.26.92.36,1.23.67,2.1-.94-.68-1.4,1.11-2.5,1.39.59-.16.66.3.59.5L27.35,9c.25.72.6.34,1.22.48C27.65,8.19,29.65,8,30.3,7.3c.19.47.16,1-.82,1.24,1.38.73.81-2.21,2.19-1.52-.24.07-.39,0-.42.29.45-.56,1.94-.56,1.7,0l-.23.07A13.34,13.34,0,0,0,34.16,7a16.65,16.65,0,0,0,1.62-.39c1-.33,1.9-.84,2-1.46A13.62,13.62,0,0,1,37.61,7a47.23,47.23,0,0,1,2.8-4.44c-.23,1.11.79,3.67-.54,4.36a2,2,0,0,0,1.67-.1c-.25-.17-.66-1.61-.29-1.7,1,1.27.71.69,1.89,1.79C42.76,6.65,43.29,5,44,5c-.12.25-.08,1.69-.32,1.86a20.53,20.53,0,0,1,1.73-1.54c-.43.24-.22,1.41.06,1.93-.12-.35,1.32.22,1.75.12l-.59-.48c1.69.47,2.17-2,4-1.52-.31.29-1,2-.23,2.37a17.2,17.2,0,0,1,1.93-2,5.31,5.31,0,0,1,2.93-1.45l.15.57a14.09,14.09,0,0,1,1.45,0L54,6.57c-1.09.66-2.14,1.29-2.82,1.62.5.58,0,.62.92.89.18.56-.7.5-1,.43l2,1c.13-.49.62-.59,1.11-.66s1,0,1.09-.45a20,20,0,0,0-2.68.09A2.5,2.5,0,0,1,54,8.11a2.58,2.58,0,0,1,2.43.05c.22.55-1,1.5-1.13,1.83.33-.23,1.68,0,1.71.33l-.86.2c.32.35.79.2,1.27.14a.92.92,0,0,1,1.15.7c.3.25.29,1.67.65,1.19.09-1.27,1.75-4.43,2.6-4.93,0,.07.39.59.71,1.18a4.79,4.79,0,0,1,.62,1.66c0,1.12-2,1.19-2,2.16a1.23,1.23,0,0,1,.82-.29c.19.43-.62.6.14,1,.73-.74,1.38,1.11.85-.45.86.29.64.67,1.42,1.3.17-.73,2.13-1.1,3-.68a1.16,1.16,0,0,0-.33.72,11.17,11.17,0,0,1,.84.92c.22.31.4.63.59.92a10.72,10.72,0,0,0,1.29,1.81c-.08.27.21,1.07-.35,1.08a1.49,1.49,0,0,1,1,.44c-.12,1.34-.78-.83-1.17.43.5-.32,1.42.55,2.16.93.61-.71-.88-1.49-1.59-1.84,1-.81,2.79-.56,4.41.64,1.11,1.07-.33,1,0,1.11a3,3,0,0,0,2.07,1.72,1.68,1.68,0,0,1,1.37,1.78c-.33,1.2-1.43.74-1.86,1.18a2.34,2.34,0,0,1-.5-1.37,2.77,2.77,0,0,0-.29-1.17l.17,1a1.81,1.81,0,0,1-1-1.25c-.19,1,2.08,4.08,2.12,6.28.37.24.84.75,1,.36l-.32-.58c.4-.82,1.26.88,1.26,0a11.74,11.74,0,0,1,1.17,1.17,3.18,3.18,0,0,1,.45.75,2.55,2.55,0,0,1,.14.94l-.83.47c.25-.09.33-1,0-1.24.53.43-.74,2.22.57,2.5l.4-1c.65.79,2,1.73,1.81,3,.81-.69-.13-.24.77-1.29-1.12,1-.67-3-1.75-1.55,1-1.14.21-1.59.83-3-.28.12-.42.56-.61-.45a1.33,1.33,0,0,1-.33-.13v0c-.06,0-.07,0,0,0a1.15,1.15,0,0,1-.27.63c-.83-.26-1.32-1.74-1.83-2.11-.06-.6.4.1.6-.32-.25-.18-.51-.36-.8-.53.6-.32.37-1.87,1.32-.74l-.51-1.18a3.06,3.06,0,0,0-.82-2.31c-.18-.6-1.43-1-.7-.76L76.5,19.94l.14-.1a10.65,10.65,0,0,0-2-2.3A6.32,6.32,0,0,1,73,14.7,5.11,5.11,0,0,1,71.19,13l.27-.57c-.71-.49-1.5-2.19-2.17-2A1.58,1.58,0,0,0,69,9.18a3.73,3.73,0,0,0-1.18-1.07,18,18,0,0,1-2.61-1.7l-.48.6a10,10,0,0,0-3.07-1.32l-.27.63c-1.16-.12-2.24-1.7-3.85-2.38.2-.19.58.06.8.33A2.53,2.53,0,0,0,57,3.16a5.56,5.56,0,0,0-1.64-.24,4,4,0,0,1-2.94-.81,1.12,1.12,0,0,1-1.1-.28.17.17,0,0,0,.12,0l-.18-.05c-.18-.16-.35-.34-.55-.5a2.11,2.11,0,0,0,.45.48,5.9,5.9,0,0,0-1.46-.08L49.66.91h-.12c-.47-.39-.48.23-.32.83a2.06,2.06,0,0,0-.76.31C48.23.83,47,2.23,46.64.91c-.22.28-.89.3-1.56.4s-1.33.42-1.5,1c0-.17-.16-.26.12-.25A1.89,1.89,0,0,0,42,2.1l-.23-.93q-.64.57-1.26,1.23c-.76-.53-1.11-.83-.35-1.58-1.83,1.18-1.52.47-3,1.65l0-.61c-.56.11-1.34,1-1.73.58a2.93,2.93,0,0,0-1.62-.28,11.9,11.9,0,0,0-2.4.42c-1.8.32-3.71,1-5.45,1.1.61.71.18.64-.35.59s-1.16-.06-1,.59c-.33-.3-.85-.32-.51-.87-1.35,1.09-2.65.45-3.1,2.08-.37-.26,0-.71-.25-.84-.07.15-.29.59-.56.47s0-.43.19-.73c-1.5,1-1,2.14-.44,3.21A1.54,1.54,0,0,0,19,8.41a1.5,1.5,0,0,0-.32,1c-.45-.15-1.09-.19-.33-.92-.49.29-3.28,1.68-2.69,2.48-.29-.06-.65.49-.69.68a16,16,0,0,0-2,1.78l.37-.13c.42,1.15-.56.93-1.16,1.79L12,15c-1.1.59-1.21.85-1.31,1.09s-.26.43-1.31,1.09l.64.35c1.11,1.11-1.94,1.09-2.27,2.56L8.41,20c0,.43-.69.58-1.48.7a4.72,4.72,0,0,0-2,.52c-.2.08,0-.34,0-.6-1.84,1.32.67.71.11,2.1-.58,0-1-.94-1.54-.07-.29.14-.25,1-.29,1.93a3,3,0,0,1-.89,2.34c.47-.14.93-.27,1,.48-.19,1-2.39,2.23-1.44,3.52a.41.41,0,0,1-.34.1c.11.88-.11,2.69.43,3.27-1.3.12-1.17,1.44-1,2.62S1.4,39.09.26,39V41.5L0,41.43a2.65,2.65,0,0,0,1,2.67c-.14.37-.36.12-.49.09C.18,46.53.43,46.8,1.8,48.51l-.7.32c.25.22.06,1.09.11,2.17a9.45,9.45,0,0,0,.17,1.72,3.48,3.48,0,0,0,.73,1.64.55.55,0,0,1-.4-.14c.86,1.07.8,2.71,1.1,4.07S3.57,60.73,5,60.53a15.32,15.32,0,0,0,1.39,1.14c-.89-1.93,1.19-.3,1.14-1.26.55.6.37,2.22-.27,1.42l0-.2c-1.4.37.89,2.54.1,3,2.43,3.48,4.79,7,7.9,9.72.1-.38.21-.74.33-1.13.34.31.71.58,1.07.88.13.42-.12,1-.91.34.05.81,1.68.59,1.83.41,1.32,1.52-1.36.58-.9,1l.72.42L17.33,76c.82,0,1.08-.28,2.09.36.53.57,0,.77.22,1-.05.07,0,.15.38.27l1.5,1-.2-1.12c.88,0,1.41.86,1.17-.4.15,1,1.6,1.75,3,2.42s3,.93,3.23,1.29a3.78,3.78,0,0,1,.88-.07,4.8,4.8,0,0,1,.85,0,10.17,10.17,0,0,1,1.78.43c-.28-.26-.24-1.25.81-.87-.41.92,0,1.3.7,1.54s1.5.45,1.87,1.23c-.35-.53.48-.47,1.25-.47s1.47-.18.88-.88c.93.21,0,.75.69,1.26a5.55,5.55,0,0,1,1.82-.16c.31,0,.63.06,1,.09l1,.08a11.8,11.8,0,0,0,4.19,0c0-.26-.5-.6,0-1.07.55.36,1.11.73,1.69,1.09.54-.24.24-1.52,1.41-.88-.18-.18-.46-.46-.11-.63a17.75,17.75,0,0,0,8.06-2.34c1.26-.66,2.55-1.22,3.82-1.87a15.7,15.7,0,0,1,2-.79c.71-.22,1.38-.5,2.15-.66-.92,0-.53-.31-.07-.67-.38.13-.38-.53-.65-.78.81-.2,1.67-.37,2.49-.63-.32-1,1.84-1.75,1.38-2.61l-.43.62c-.06-1.46-2.67-1-3.47-2.16a.77.77,0,0,1-.46.79,4.63,4.63,0,0,1-1.15.21c-.84.12-1.65.3-1.79,1.54-.45,0,0-.56-.36-.73,0,.77-.34,1.12-1.27,1.35v-.18a8.1,8.1,0,0,1-2.85,1.32l-1.48.34c-.54.13-1.11.3-1.82.41l.46.59a2,2,0,0,1-1.14-.13c-.31,1.25,1.64-.5,1.46.82-.66-.54-1.67-.19-2.67.13s-2,.43-2.48-.29c-.9.21.45.74-.46.95l-.33-.38L48.3,77a1.11,1.11,0,0,1-1.12-.84c.16,0,.4-.16.55-.21-.86-.41-2.15.48-2.44.35l.91.15a10.76,10.76,0,0,1-1.94.42l-2.08.12-1,.08c-.35,0-.69,0-1,0a8.74,8.74,0,0,0-2,.35l.16.34c-2,.46-1.47-.56-3.59-.54l.09-.07a2,2,0,0,1-1.61.13c.59-.26-.8-1,0-1.24-2.14.15-1.1.31-2.78,1.11l-.14-.64a1.85,1.85,0,0,1-1.79.34c1-.16-.35-1,.78-1.29a2.43,2.43,0,0,0-1.24-.8,4.73,4.73,0,0,0-1.12-.2c-.7-.06-1.25-.14-1.31-1.14-1.61.95,1.36,1.57.7,1.63.24.66-1.25.68-1.85.24s-.16-2.33-1.66-3.17c.14.09.21,0,.36.09-.18-.33-.52-.38-.87-.46a.92.92,0,0,1-.82-.72c-.9.5-.81-.66-1.61.22l1.47.75c-.9-.28-2.45.3-3.31-1.16a2.85,2.85,0,0,1,1.18,0c-.14-.55-.86-.3-1-.9.82-.8,1.75,1,3,.83-.08-.68-2-.39-.82-1.13A.94.94,0,0,1,19,69.35a1.48,1.48,0,0,0-1.46-.81l.53-.48a1.92,1.92,0,0,1-1-.29l1.08-.27c-1.23-.06-.88-1.67-1.74-2,.63.69.55.91.34,1.09s-.6.31-.48.77C14,66.23,16.7,65,14.75,63.37c.28.2.54,1.24-.08,1.06a2.52,2.52,0,0,1-.29-1.62c-1.12-1.28-.43.65-1.2.33.34-1-.79-.47-1.49-1l.6-.41c-.42-.91-.72-.87-1.11-.75s-.71.21-.93-.73l1.24.14-.69-.67.8-.25a2.08,2.08,0,0,1-1.31-1.89,1,1,0,0,1-1.62-.33c.13-.74.76,0,.14-1.08.53.08,1.17.11.8.88.23-.05.52,0,.76,0,.18-.79-.57-1.48-.76-1.88a1,1,0,0,1,0,.5l-.83-.62-.77-.67c.17-.37.45-.23.72-.1-.19-.31-.59-.43-.83-.93.6-.06,1.17-.28,1.67.32L8.44,52.35c.2-.18.4-1,.67-.87.15-1-1.66-1.9-1.46-3.22a.76.76,0,0,1-.36-.4c0-.59.11-1.17.13-1.74a3.35,3.35,0,0,0-.1-.88,2.62,2.62,0,0,0-.4-1l1-.83c-.29-1.06-1.27,1.13-1.76-.68-.4-1.3.87-.49,1.16-.93-.49-.61-1.52-1.81-.61-2.94C6.91,39.32,6.74,39.61,6.8,40ZM9.72,26.9c0,.31.24,1-.23,1C8.86,27.26,9.32,27.2,9.72,26.9ZM22.63,10.45c-.05.31-.38.37-.84.32A1.26,1.26,0,0,1,22.63,10.45Zm56,13.36h0C78.52,23,78.52,23.31,78.61,23.81Zm.32,1.45c.16.09.24,0,.31-.06-.21,0-.36-.3-.47-.66C78.64,24.71,78.6,24.93,78.93,25.26Zm-59,51.93-.14-.31C20.42,77,20.17,77.1,19.91,77.19Z"/><path class="cls-2" d="M21.1,12.57a1,1,0,0,1-.31-.26C20.77,12.47,20.85,12.59,21.1,12.57Z"/><path class="cls-2" d="M7.66,48.21s0,0,0,0h.14Z"/><path class="cls-2" d="M61.36,13.22a1.15,1.15,0,0,1-.18-.6C61.07,12.76,61.08,13,61.36,13.22Z"/><path class="cls-2" d="M82.57,32.22l-.41-.88a1.29,1.29,0,0,1,0,.89C82.29,32.17,82.48,31.93,82.57,32.22Z"/><path class="cls-2" d="M79.2,40.57c.1.12,0,.26.12.38l.34,0C79.61,40.37,79.32,40,79.2,40.57Z"/><path class="cls-2" d="M80.42,33.58c-.59.2-.2.69,0,1.29,0,0,0-.07,0-.11C81.25,34.79,80.88,34.17,80.42,33.58Z"/><path class="cls-2" d="M80.44,35a1.88,1.88,0,0,1,.09.57C80.88,35.6,80.57,35.34,80.44,35Z"/><path class="cls-2" d="M80,26.79c0,.35.79-.09.62.16C81.5,27,79.06,25.34,80,26.79Z"/><polygon class="cls-2" points="78.58 34.47 79.26 34.11 78.59 33.91 78.58 34.47"/><path class="cls-2" d="M77.86,29.74l.12,1c.11,0,.22.05.33.17C78.13,30.32,78.06,29.65,77.86,29.74Z"/><path class="cls-2" d="M78.31,30.89a1.46,1.46,0,0,0,.31.72A2.26,2.26,0,0,0,78.31,30.89Z"/><polygon class="cls-2" points="78.05 33.26 78.13 32.95 78.03 32.28 78.05 33.26"/><path class="cls-2" d="M73.4,20.33l-.8-.73c-.28.06-.23.38.08.64C73,20.34,73.29,20.6,73.4,20.33Z"/><path class="cls-2" d="M73.27,24.08c0-.31.14-.41.27-.67l-.82.44Z"/><path class="cls-2" d="M71.58,21.69c-.28.06-1.46-.73-.68.24C71.19,21.85,71.92,22.56,71.58,21.69Z"/><polygon class="cls-2" points="61.52 10.22 61.75 10.35 62.55 9.05 61.52 10.22"/><path class="cls-2" d="M48.14,8.65c1,.62.47-.86,1.35-.17.34-.29-.73-.56-.39-.8C48.34,7.88,48.05,7.59,48.14,8.65Z"/><path class="cls-2" d="M49.1,7.68a2.79,2.79,0,0,0,.39-.15A1.1,1.1,0,0,0,49.1,7.68Z"/><polygon class="cls-2" points="68.97 73.26 69.84 72.91 69.07 72.91 68.97 73.26"/><path class="cls-2" d="M69.42,71.33l.83.56-.24-1C69.9,71.07,69.69,71.39,69.42,71.33Z"/><path class="cls-2" d="M12.36,26.06l-.18-.16c-.28,0-.38.1-.58.36Z"/><polygon class="cls-2" points="8.35 34.55 8.4 34.4 7.47 34.5 8.35 34.55"/><path class="cls-2" d="M8.61,42.45a5.57,5.57,0,0,1-.11-1C8.6,42.13,7.53,42.55,8.61,42.45Z"/><path class="cls-3" d="M27.1,56.16l-2.56-6.1a35.12,35.12,0,0,0,7.57-9.88h.44c.07.81.11,1.61.11,2.41C32.66,48.08,30.46,52,27.1,56.16Zm4-17.15C29.59,39,29,38,28.42,36.74a13.54,13.54,0,0,0-1.28-2.34,11.6,11.6,0,0,0-1.76-1.94l.29-.18a20.55,20.55,0,0,1,5.49,1.32c1.46.73,2.41,1.64,2.49,2.92A2.34,2.34,0,0,1,31.09,39Zm.87-8.3c-2.15,0-2.7-1.72-3.62-3.37a16,16,0,0,0-2.81-3.22l.36-.29c1.54.29,4.94.51,7,1.9a3.13,3.13,0,0,1,1.57,2.53A2.58,2.58,0,0,1,32,30.71Zm2.09,6V34.29H43.3v-1.9H36.1V30.12h7.2V28.29h-8V26.17h8V23.83h5.49v2.34h8.26v2.12H48.79v1.83h7.06v2.27H48.79v1.9h8.85v2.38Zm21.43,3.07V52.51c0,3-2,3.65-4.53,4-.73.07-1.43.14-2.12.14a2.14,2.14,0,0,1-1-.14c-.4-.26-.11-1.54-1-2.2a9.65,9.65,0,0,0-3.51-1.13v-.44c.84.07,1.71.11,2.59.11s1.9.11,2.86.11,1.46-.18,1.46-1.35V49.25H41.62v7.21h-5.3V37.66h5.3v1H50L51.79,37l5.15,1.35Zm-5.19,1.14H41.62v2h8.67Zm0,4.2H41.62V47h8.67Z"/><path class="cls-3" d="M26.67,165.57a52.74,52.74,0,0,0,5.49-.15v-2.61h-1.4V164H27.4V155.5h3.36V156h1.4v-2.13h3.09V156h1.33l.92-1.15,3.63.92-1.08,1.15v6.93h-2.2a6.87,6.87,0,0,1,2.61,2h.6c1.59,0,3.15-.06,4.71-.19v-2.92h-1.4v1.14h-3V155.5h3V156h1.4v-2.61h3.14V156h1.43l.89-1.21,3.6.89-1.15,1.24v6.89H50.76c1.4.45,4.32,1.34,4.32,3.15,0,1.05-.76,1.53-1.69,1.65a1.4,1.4,0,0,1-1.17-.5,6.85,6.85,0,0,1-.89-1.72c-1.72.38-3.4.83-5.12,1.3s-3.75.86-5.62,1.21l-.19-1.46a2.36,2.36,0,0,1-1.59.73c-1.34,0-1.37-.89-1.5-2a90.75,90.75,0,0,1-10.52,2.6l-.95-3.21Zm4.54-14.43c2.42,0,4.83-.06,7.22-.15v-1.82h-5v.54H29V142h4.45v1h5v-2.61h4.44V143h5l1.15-1.3,4.83,1L52.44,144v5.63H48.76c1.39.25,5.33.54,5.33,2.58a1.59,1.59,0,0,1-1.78,1.58c-1.58-.19-1.84-1.17-2.82-2.16-7.16.86-14.31,1.69-21.49,2.26l-1.24-2.86C28.22,151.11,29.72,151.14,31.21,151.14Zm.95,9.86v-3.15h-1.4V161Zm6.27-13.73v-2.42h-5v2.42ZM36.71,161v-3.15H35.25V161Zm.44,4.13a4.81,4.81,0,0,1-.44-2.32H35.25v2.48C35.88,165.26,36.52,165.22,37.15,165.13ZM48,147.27v-2.42H42.87v2.42Zm.61,3.4c-.45-.35-.89-.67-1.37-1l.25-.25.51.09v-.38H42.87v1.72Zm-2.83,7.18h-1.4V161h1.4ZM50.41,161v-3.15h-1.5V161Zm0,1.78h-1.5v2.73c.67,0,1.34-.09,2-.16a15.36,15.36,0,0,0-1.28-1.75l.26-.22.51.26Z"/><path class="cls-3" d="M42.91,204.76v1.84H54.38v2.13H42.91v4.86h-4.8v-4.86H26.51V206.6h11.6v-1.84ZM31.43,187.88v-2.61H36v2.61h8.61v-2.67H49.2v2.67h5.37v1.94H49.2V192H44.62v-2.13H36V192H31.43v-2.19h-4.8v-1.94Zm2.77,4.93v.95H46.4l1.24-1.37,4.87,1-1.18,1.14V205.2H46.59V204H34.2v1.31l-4.67,0V192.81Zm12.39,5v-2.17l-12.39,0v2.13Zm0,4.16V199.8H34.2V202Z"/><path class="cls-3" d="M32.64,232.05V229.7h4.8v2.35h6v-2.38H48v2.38h6.49v2.1H48v2.29h-4.6v-2.29h-6v2.32h-4.8v-2.32H26.57v-2.1Zm.41,5.75H47.48l1.24-1.3,5.09.92-1.3,1.21v19.42h-4.8V256.3H33.05v1.81H28.41V237h4.64Zm14.66,16.44V239.81H33.05v14.43Zm-9.13-8h-5v-1.88h5v-1.56a26,26,0,0,1-4.19-.63l.06-.25a30.3,30.3,0,0,0,8-1.75l4.51,2.19a20.8,20.8,0,0,1-4.45.51v1.49h4.64v1.88H42.49v7.56H38.58v-5.24a19.49,19.49,0,0,1-4.92,4.54l-.38-.22a16.52,16.52,0,0,0,1.78-5.53h3.52Zm4.77.86a17.33,17.33,0,0,1,2.93,2.09,3.75,3.75,0,0,1,1,2.16c0,1-.47,1.66-1.33,1.72-1.08.06-1.85-.83-2.07-2.13a12.24,12.24,0,0,0-1-3.75Z"/><path class="cls-3" d="M29.94,285.09l.13-3.11h4.41c-.06,1-.16,2.09-.25,3.11h1.3l1.31-1.34,3.81,1.31v-.35h4.8V282h4.8c-.1.92-.16,1.84-.19,2.73h4.1v2H49.55a15.21,15.21,0,0,1-.79,1.56,12.42,12.42,0,0,1-3.44,2.64h3.59l1.18-1.31,4.51,1.18L53.24,292v10.58h-4.1V300h-4v2.51H41.06V289.92h3.88a27.09,27.09,0,0,0,.41-3.21h-4.7v-1.37l-1.18,1.18c-.31,3.59-.5,6.07-2.09,9.38,1.27.66,3.24,1.81,3.24,3.49,0,1-1.21,1.66-2.13,1.66-1.37,0-1.81-.89-2.61-1.82-.25-.28-.54-.54-.79-.82-2.61,2.1-4.9,2.89-8,3.94l-.16-.29a19.63,19.63,0,0,0,6-5.46,23.41,23.41,0,0,0-5.34-2.36,25.34,25.34,0,0,0,2.19-7.18H26.7v-2Zm1.52-10.87h4.71l0,2.42h8.55v-2.42h4.67v2.42h4.8v2.09h-4.8v2H44.69v-2H36.17l0,2H31.46v-2h-4.7v-2.09h4.7ZM34,294.59a22.3,22.3,0,0,0,1.56-7.53H33.94a30.22,30.22,0,0,1-2,6.9ZM45.19,293V298h4V293Z"/><path d="M65.36,268.23c0-1.3,0-2.69,0-4.18a4,4,0,0,0,1.11-.33c1.48-.66,4.13-1.88,5.07-2.36a.12.12,0,0,0,0-.12c-.88-.47-3.93-1.91-5.13-2.4a4.46,4.46,0,0,0-1-.32c0-2.1,0-2.89,0-3.84,0-.09.57-.1.66,0a6.84,6.84,0,0,0,.22,1c.13.4.42.46.83.46,1.23,0,5.67-.11,6.82-.21.44,0,.81-.12.93-.57.07-.24.13-.61.2-1a.84.84,0,0,1,.66.05c0,.58-.05,1.29-.05,3,0,.93.05,1.64.05,2.46a1.34,1.34,0,0,1-.66,0,4.93,4.93,0,0,0-.19-.93c-.1-.27-.32-.34-.86-.36-1.35,0-4.15,0-5.91,0a.27.27,0,0,0,0,.09c1.73.74,6.1,2.72,7.45,3.21a2.68,2.68,0,0,1,0,.8c-1.39.42-4.2,1.64-7.41,3,0,0,0,.07,0,.11,1.46.1,4.52.25,5.71.25.57,0,.81-.08,1-.59a6.92,6.92,0,0,0,.22-1.12,1,1,0,0,1,.66,0c0,.51-.05,1.24-.05,2.44,0,.68.05,1.4.05,2.05a1.06,1.06,0,0,1-.66,0,6.91,6.91,0,0,0-.15-.88c-.14-.49-.37-.68-1.09-.77-1.28-.16-5.39-.52-6.68-.59a.81.81,0,0,0-.81.43,9.58,9.58,0,0,0-.27,1.26A1.58,1.58,0,0,1,65.36,268.23Z"/><path d="M68.94,254.38a19,19,0,0,0-.28-3.2c.57,0,1.4.1,3.16.1a10.06,10.06,0,0,0,1.83-.08,1,1,0,0,0,.68-1,1.22,1.22,0,0,0-.29-.83.61.61,0,0,0-.22-.12c-.26,0-1.14,0-3.5,0a.58.58,0,0,0-.55.29c-.08.25-.11.56-.18.9a1.27,1.27,0,0,1-.66,0,20.8,20.8,0,0,0-.26-3.44l1.73,0,3.45,0c.31,0,.51-.09.54-.31a2.93,2.93,0,0,0,0-.73,2.37,2.37,0,0,1,.68.1,13,13,0,0,1,.76,3,.68.68,0,0,1-.12.12,5.76,5.76,0,0,1-.91.1s-.09,0,0,.09a3.78,3.78,0,0,1,1,2.26c0,1.36-.91,1.92-2.13,1.95-.85,0-2.44,0-3.29,0-.35,0-.56,0-.62.32a4.7,4.7,0,0,0-.14.63A1.44,1.44,0,0,1,68.94,254.38Z"/><path d="M70.84,240.14a1.53,1.53,0,0,1,0,.64,2,2,0,0,0-1.44.73,1.31,1.31,0,0,0-.18.71A.72.72,0,0,0,70,243c.44,0,.69-.15,1.35-1.64.6-1.32,1.17-1.77,2.12-1.77,1.52,0,2.39,1.45,2.39,3a7.16,7.16,0,0,1-.34,2.18c-.31.07-1.9.27-2.14.29a1.94,1.94,0,0,1-.2-.68,2.84,2.84,0,0,0,1.71-1.08,1.9,1.9,0,0,0,.24-.93c0-.54-.29-.85-.66-.85s-.71.31-1.07,1.07c-.83,1.78-1.49,2.29-2.52,2.29-1.22,0-2.25-1-2.25-2.92a10.71,10.71,0,0,1,.08-1.23,5.88,5.88,0,0,0,.11-.85A17.46,17.46,0,0,0,70.84,240.14Z"/><path d="M65.05,239.06a15.08,15.08,0,0,0-.61-3.39.42.42,0,0,1,.34-.15c.27.15.48.22,1.63.22l3,0a.06.06,0,0,0,0-.09,4,4,0,0,1-.89-2.15c0-1.42,1-2.26,2.82-2.26.9,0,2.46,0,3.08,0,0,0,.24,0,.29-.1a2.08,2.08,0,0,0,.27-.85.78.78,0,0,1,.66.09c0,.23-.05.86-.05,2,0,.66,0,1.38.05,1.82a.76.76,0,0,1-.66,0l-.1-.42c-.09-.24-.24-.29-.73-.3a22,22,0,0,0-3.32.05,1.24,1.24,0,0,0-1,1.28,1.68,1.68,0,0,0,.17.78.22.22,0,0,0,.2.1c1.36,0,3.29,0,3.81,0s.71,0,.82-.31a2.74,2.74,0,0,0,.13-.56c.08-.12.56-.07.66,0,0,.52-.05,1-.05,2.06s.05,1.57.05,1.95a.84.84,0,0,1-.66,0,5.31,5.31,0,0,0-.13-.6c-.11-.28-.39-.3-1-.32s-1.64,0-2.72,0c-3.46,0-4.42,0-4.91.07a.5.5,0,0,0-.48.3c0,.19-.08.46-.13.75A.86.86,0,0,1,65.05,239.06Z"/><path d="M69.08,223.58a.77.77,0,0,1,.37,0,4.84,4.84,0,0,1,1.58.76.31.31,0,0,1,.06.25,1.92,1.92,0,0,0-.72,1.36.73.73,0,0,0,.15.47.52.52,0,0,0,.25.1c.88,0,3.12,0,3.32,0,.54,0,.68-.08.78-.47a8.86,8.86,0,0,0,.15-.9,1.19,1.19,0,0,1,.66.09c0,.34-.05,1.17-.05,2.5,0,.88.05,1.51.05,2a1.23,1.23,0,0,1-.66,0,4.32,4.32,0,0,0-.13-.68.58.58,0,0,0-.51-.25c-.36,0-1.56,0-2.59,0-.58,0-1.08,0-1.34,0s-.44.12-.69.9a1,1,0,0,1-.54-.1,10.92,10.92,0,0,0-.73-2.9.17.17,0,0,1,.1-.13c.19,0,1,.07,1.25.07.07,0,.07-.07,0-.11a9.66,9.66,0,0,1-.95-1,1.59,1.59,0,0,1-.37-.95A1.05,1.05,0,0,1,69.08,223.58Z"/><path d="M72.13,215.41a3.4,3.4,0,0,1,3,1.55,4.84,4.84,0,0,1,.67,2.37,3.63,3.63,0,0,1-6.58,2.25,4.79,4.79,0,0,1-.69-2.45A3.43,3.43,0,0,1,72.13,215.41ZM69.45,220c.29.44.9.67,2.19.67,2.31,0,3.45-.71,3.45-1.64a.85.85,0,0,0-.17-.52c-.34-.38-1-.6-2.32-.6-2,0-3.28.61-3.28,1.65A1.17,1.17,0,0,0,69.45,220Z"/><path d="M72.13,206.46a3.39,3.39,0,0,1,3,1.56,4.77,4.77,0,0,1,.67,2.36,3.64,3.64,0,0,1-6.58,2.26,4.83,4.83,0,0,1-.69-2.46A3.43,3.43,0,0,1,72.13,206.46ZM69.45,211c.29.44.9.67,2.19.67,2.31,0,3.45-.71,3.45-1.64a.9.9,0,0,0-.17-.52c-.34-.37-1-.59-2.32-.59-2,0-3.28.61-3.28,1.64A1.17,1.17,0,0,0,69.45,211Z"/><path d="M74.87,204.89c-.1-.29-.32-.31-.71-.32-.61,0-3-.07-3.52,0a.75.75,0,0,0-.36.1,2.35,2.35,0,0,0-.47.73.93.93,0,0,1-.58-.07,14.11,14.11,0,0,0-.74-3,.2.2,0,0,1,.13-.08l1,0a.05.05,0,0,0,0-.1,4.09,4.09,0,0,1-1.06-2.25,2,2,0,0,1,1.13-1.76c.07,0,0,0,0-.12a4.22,4.22,0,0,1-1.13-2.38c0-1.34,1.06-2.2,2.8-2.2l3.07,0a.51.51,0,0,0,.23-.07c.19-.17.24-.47.36-.95a1.13,1.13,0,0,1,.66.07c0,.44-.05,1.27-.05,2s0,1.37.05,1.94a1.14,1.14,0,0,1-.66,0,2.84,2.84,0,0,0-.1-.38c-.1-.29-.24-.33-.71-.34-1.14,0-2.62,0-3.17.06A1.1,1.1,0,0,0,70,197a1.78,1.78,0,0,0,.34,1,.12.12,0,0,0,.1,0,7.1,7.1,0,0,1,1.23-.1h2.66c.24,0,.37,0,.44-.2A2.09,2.09,0,0,0,75,197a.89.89,0,0,1,.66.06c0,.68-.05,1.32-.05,2.12s0,1.25.05,1.71a1.23,1.23,0,0,1-.66,0,2.85,2.85,0,0,0-.13-.54c-.07-.19-.31-.22-.51-.24a32.22,32.22,0,0,0-3.44.05,1.12,1.12,0,0,0-1,1.15,1.52,1.52,0,0,0,.27.83.34.34,0,0,0,.32.15h3.72c.43,0,.54-.11.63-.38,0-.1.07-.3.1-.47a1.25,1.25,0,0,1,.66.07c0,.67-.05,1.32-.05,2,0,1.15,0,1.45.05,1.92a1.07,1.07,0,0,1-.66,0A1.86,1.86,0,0,0,74.87,204.89Z"/><path d="M65.36,188.55c0-.41,0-1.07,0-2.52s0-2.13,0-2.56a1.06,1.06,0,0,1,.66,0,3.67,3.67,0,0,0,.15.81c.12.34.35.41.83.41.78,0,1.74,0,2.69,0,.07,0,.1,0,.12-.09a19.52,19.52,0,0,0,0-2.13c0-1.12,0-1.63,0-1.85,0,0-.06-.1-.11-.1-.83,0-2,0-2.91,0a.67.67,0,0,0-.6.34,3.73,3.73,0,0,0-.18,1,.84.84,0,0,1-.66,0c0-.74,0-1.27,0-2.6s0-1.95,0-2.47a.76.76,0,0,1,.66,0,2.74,2.74,0,0,0,.17.84c.11.31.3.41.83.42,1.11,0,1.86,0,3.72,0,1.15,0,2.47,0,3.23,0,.41,0,.69-.07.83-.37a5.09,5.09,0,0,0,.22-1.1,1.14,1.14,0,0,1,.66.08c0,.42-.05,1.27-.05,2.59s.05,2.23.05,2.61a.84.84,0,0,1-.66,0,7,7,0,0,0-.15-.87c-.09-.27-.32-.4-.8-.42-.81,0-1.89,0-3,0,0,0-.12,0-.12.09,0,.34,0,1.16,0,1.93a16.3,16.3,0,0,0,0,2.11.26.26,0,0,0,.1,0c1.09,0,2.12,0,2.83,0,.47,0,.76-.05.9-.46a7.23,7.23,0,0,0,.2-1,.87.87,0,0,1,.66.06c0,.31-.05,1.12-.05,2.76,0,1.34.05,2.19.05,2.51a1.14,1.14,0,0,1-.66,0,7.85,7.85,0,0,0-.15-.8c-.12-.45-.37-.56-1.05-.61H67c-.55,0-.75.1-.83.44a4.51,4.51,0,0,0-.17.93A1.06,1.06,0,0,1,65.36,188.55Z"/><path d="M72.13,168.35a3.39,3.39,0,0,1,3,1.56,4.81,4.81,0,0,1,.67,2.37,3.64,3.64,0,0,1-6.58,2.25,4.83,4.83,0,0,1-.69-2.46A3.43,3.43,0,0,1,72.13,168.35Zm-2.68,4.57c.29.44.9.68,2.19.68,2.31,0,3.45-.71,3.45-1.65a.9.9,0,0,0-.17-.52c-.34-.37-1-.59-2.32-.59-2,0-3.28.61-3.28,1.64A1.17,1.17,0,0,0,69.45,172.92Z"/><path d="M69.89,164.26s.07.07.1.07h2.54a7.06,7.06,0,0,0,1.27-.06.85.85,0,0,0,.68-.9,1.5,1.5,0,0,0-.26-.93,1.44,1.44,0,0,1,.68,0,2.57,2.57,0,0,1,.92,2.06,1.93,1.93,0,0,1-.85,1.78,3.36,3.36,0,0,1-1.83.27l-3.08,0a.18.18,0,0,0-.17.09l0,.86a3.55,3.55,0,0,1-.78-.17c0-.22-.13-.56-.18-.69a.31.31,0,0,0-.16-.09c-.1,0-1,0-1.42,0a9,9,0,0,0-.91-1.86,2,2,0,0,1,0-.42c.44.05,1.32.07,2.33.07.07,0,.12,0,.12-.07,0-.29,0-1.42-.07-1.91a10.4,10.4,0,0,0,1.19.18C69.89,163,69.89,163.68,69.89,164.26Z"/><path d="M69.33,161.81a14.9,14.9,0,0,0-.94-3.1s.12-.17.15-.17.57,0,.88,0c0,0,.07-.09,0-.12a4.79,4.79,0,0,1-.91-2.2,2.41,2.41,0,0,1,.79-1.8,3.45,3.45,0,0,1,2.3-.83A3.69,3.69,0,0,1,74.73,155a5.3,5.3,0,0,1,1.12,3.15v.34s0,.05.08.05c.31,0,1.48,0,1.88,0s.63-.12.73-.51c0-.22.08-.64.15-1a1.41,1.41,0,0,1,.65.1v.46a39,39,0,0,0,.21,4.38,1.09,1.09,0,0,1-.67,0,5,5,0,0,0-.2-.86c-.12-.27-.39-.32-.82-.32s-2,0-3.57,0c-1.84,0-2.76,0-3.55,0-.26,0-.46.06-.56.3a3.86,3.86,0,0,0-.22.71A1.48,1.48,0,0,1,69.33,161.81Zm.83-3.39a.39.39,0,0,0,.27.17c.5,0,2.53,0,3.25,0a1.26,1.26,0,0,0,.93-.44,1.46,1.46,0,0,0,.33-1,1.06,1.06,0,0,0-.41-.81,3.06,3.06,0,0,0-1.86-.49,3.36,3.36,0,0,0-2.07.54,1.5,1.5,0,0,0-.62,1.27A1.83,1.83,0,0,0,70.16,158.42Z"/><path d="M72.13,144.67a3.39,3.39,0,0,1,3,1.56,4.81,4.81,0,0,1,.67,2.37,3.64,3.64,0,0,1-6.58,2.25,4.83,4.83,0,0,1-.69-2.46A3.43,3.43,0,0,1,72.13,144.67Zm-2.68,4.57c.29.44.9.68,2.19.68,2.31,0,3.45-.71,3.45-1.65a.9.9,0,0,0-.17-.52c-.34-.37-1-.59-2.32-.59-2,0-3.28.61-3.28,1.64A1.17,1.17,0,0,0,69.45,149.24Z"/><path d="M69.89,140.58s.07.07.1.07h2.54a7.06,7.06,0,0,0,1.27-.06.85.85,0,0,0,.68-.9,1.5,1.5,0,0,0-.26-.93,1.44,1.44,0,0,1,.68,0,2.57,2.57,0,0,1,.92,2.06,1.92,1.92,0,0,1-.85,1.78,3.36,3.36,0,0,1-1.83.27l-3.08,0a.18.18,0,0,0-.17.09l0,.86a3.55,3.55,0,0,1-.78-.17c0-.22-.13-.56-.18-.69a.31.31,0,0,0-.16-.09c-.1,0-1,0-1.42,0a9,9,0,0,0-.91-1.86,2,2,0,0,1,0-.42c.44,0,1.32.07,2.33.07.07,0,.12,0,.12-.07,0-.29,0-1.42-.07-1.91a10.4,10.4,0,0,0,1.19.18C69.89,139.36,69.89,140,69.89,140.58Z"/><path class="cls-3" d="M65.36,268.23c0-1.3,0-2.69,0-4.18a4,4,0,0,0,1.11-.33c1.48-.66,4.13-1.88,5.07-2.36a.12.12,0,0,0,0-.12c-.88-.47-3.93-1.91-5.13-2.4a4.46,4.46,0,0,0-1-.32c0-2.1,0-2.89,0-3.84,0-.09.57-.1.66,0a6.84,6.84,0,0,0,.22,1c.13.4.42.46.83.46,1.23,0,5.67-.11,6.82-.21.44,0,.81-.12.93-.57.07-.24.13-.61.2-1a.84.84,0,0,1,.66.05c0,.58-.05,1.29-.05,3,0,.93.05,1.64.05,2.46a1.34,1.34,0,0,1-.66,0,4.93,4.93,0,0,0-.19-.93c-.1-.27-.32-.34-.86-.36-1.35,0-4.15,0-5.91,0a.27.27,0,0,0,0,.09c1.73.74,6.1,2.72,7.45,3.21a2.68,2.68,0,0,1,0,.8c-1.39.42-4.2,1.64-7.41,3,0,0,0,.07,0,.11,1.46.1,4.52.25,5.71.25.57,0,.81-.08,1-.59a6.92,6.92,0,0,0,.22-1.12,1,1,0,0,1,.66,0c0,.51-.05,1.24-.05,2.44,0,.68.05,1.4.05,2.05a1.06,1.06,0,0,1-.66,0,6.91,6.91,0,0,0-.15-.88c-.14-.49-.37-.68-1.09-.77-1.28-.16-5.39-.52-6.68-.59a.81.81,0,0,0-.81.43,9.58,9.58,0,0,0-.27,1.26A1.58,1.58,0,0,1,65.36,268.23Z"/><path class="cls-3" d="M68.94,254.38a19,19,0,0,0-.28-3.2c.57,0,1.4.1,3.16.1a10.06,10.06,0,0,0,1.83-.08,1,1,0,0,0,.68-1,1.22,1.22,0,0,0-.29-.83.61.61,0,0,0-.22-.12c-.26,0-1.14,0-3.5,0a.58.58,0,0,0-.55.29c-.08.25-.11.56-.18.9a1.27,1.27,0,0,1-.66,0,20.8,20.8,0,0,0-.26-3.44l1.73,0,3.45,0c.31,0,.51-.09.54-.31a2.93,2.93,0,0,0,0-.73,2.37,2.37,0,0,1,.68.1,13,13,0,0,1,.76,3,.68.68,0,0,1-.12.12,5.76,5.76,0,0,1-.91.1s-.09,0,0,.09a3.78,3.78,0,0,1,1,2.26c0,1.36-.91,1.92-2.13,1.95-.85,0-2.44,0-3.29,0-.35,0-.56,0-.62.32a4.7,4.7,0,0,0-.14.63A1.44,1.44,0,0,1,68.94,254.38Z"/><path class="cls-3" d="M70.84,240.14a1.53,1.53,0,0,1,0,.64,2,2,0,0,0-1.44.73,1.31,1.31,0,0,0-.18.71A.72.72,0,0,0,70,243c.44,0,.69-.15,1.35-1.64.6-1.32,1.17-1.77,2.12-1.77,1.52,0,2.39,1.45,2.39,3a7.16,7.16,0,0,1-.34,2.18c-.31.07-1.9.27-2.14.29a1.94,1.94,0,0,1-.2-.68,2.84,2.84,0,0,0,1.71-1.08,1.9,1.9,0,0,0,.24-.93c0-.54-.29-.85-.66-.85s-.71.31-1.07,1.07c-.83,1.78-1.49,2.29-2.52,2.29-1.22,0-2.25-1-2.25-2.92a10.71,10.71,0,0,1,.08-1.23,5.88,5.88,0,0,0,.11-.85A17.46,17.46,0,0,0,70.84,240.14Z"/><path class="cls-3" d="M65.05,239.06a15.08,15.08,0,0,0-.61-3.39.42.42,0,0,1,.34-.15c.27.15.48.22,1.63.22l3,0a.06.06,0,0,0,0-.09,4,4,0,0,1-.89-2.15c0-1.42,1-2.26,2.82-2.26.9,0,2.46,0,3.08,0,0,0,.24,0,.29-.1a2.08,2.08,0,0,0,.27-.85.78.78,0,0,1,.66.09c0,.23-.05.86-.05,2,0,.66,0,1.38.05,1.82a.76.76,0,0,1-.66,0l-.1-.42c-.09-.24-.24-.29-.73-.3a22,22,0,0,0-3.32.05,1.24,1.24,0,0,0-1,1.28,1.68,1.68,0,0,0,.17.78.22.22,0,0,0,.2.1c1.36,0,3.29,0,3.81,0s.71,0,.82-.31a2.74,2.74,0,0,0,.13-.56c.08-.12.56-.07.66,0,0,.52-.05,1-.05,2.06s.05,1.57.05,1.95a.84.84,0,0,1-.66,0,5.31,5.31,0,0,0-.13-.6c-.11-.28-.39-.3-1-.32s-1.64,0-2.72,0c-3.46,0-4.42,0-4.91.07a.5.5,0,0,0-.48.3c0,.19-.08.46-.13.75A.86.86,0,0,1,65.05,239.06Z"/><path class="cls-3" d="M69.08,223.58a.77.77,0,0,1,.37,0,4.84,4.84,0,0,1,1.58.76.31.31,0,0,1,.06.25,1.92,1.92,0,0,0-.72,1.36.73.73,0,0,0,.15.47.52.52,0,0,0,.25.1c.88,0,3.12,0,3.32,0,.54,0,.68-.08.78-.47a8.86,8.86,0,0,0,.15-.9,1.19,1.19,0,0,1,.66.09c0,.34-.05,1.17-.05,2.5,0,.88.05,1.51.05,2a1.23,1.23,0,0,1-.66,0,4.32,4.32,0,0,0-.13-.68.58.58,0,0,0-.51-.25c-.36,0-1.56,0-2.59,0-.58,0-1.08,0-1.34,0s-.44.12-.69.9a1,1,0,0,1-.54-.1,10.92,10.92,0,0,0-.73-2.9.17.17,0,0,1,.1-.13c.19,0,1,.07,1.25.07.07,0,.07-.07,0-.11a9.66,9.66,0,0,1-.95-1,1.59,1.59,0,0,1-.37-.95A1.05,1.05,0,0,1,69.08,223.58Z"/><path class="cls-3" d="M72.13,215.41a3.4,3.4,0,0,1,3,1.55,4.84,4.84,0,0,1,.67,2.37,3.63,3.63,0,0,1-6.58,2.25,4.79,4.79,0,0,1-.69-2.45A3.43,3.43,0,0,1,72.13,215.41ZM69.45,220c.29.44.9.67,2.19.67,2.31,0,3.45-.71,3.45-1.64a.85.85,0,0,0-.17-.52c-.34-.38-1-.6-2.32-.6-2,0-3.28.61-3.28,1.65A1.17,1.17,0,0,0,69.45,220Z"/><path class="cls-3" d="M72.13,206.46a3.39,3.39,0,0,1,3,1.56,4.77,4.77,0,0,1,.67,2.36,3.64,3.64,0,0,1-6.58,2.26,4.83,4.83,0,0,1-.69-2.46A3.43,3.43,0,0,1,72.13,206.46ZM69.45,211c.29.44.9.67,2.19.67,2.31,0,3.45-.71,3.45-1.64a.9.9,0,0,0-.17-.52c-.34-.37-1-.59-2.32-.59-2,0-3.28.61-3.28,1.64A1.17,1.17,0,0,0,69.45,211Z"/><path class="cls-3" d="M74.87,204.89c-.1-.29-.32-.31-.71-.32-.61,0-3-.07-3.52,0a.75.75,0,0,0-.36.1,2.35,2.35,0,0,0-.47.73.93.93,0,0,1-.58-.07,14.11,14.11,0,0,0-.74-3,.2.2,0,0,1,.13-.08l1,0a.05.05,0,0,0,0-.1,4.09,4.09,0,0,1-1.06-2.25,2,2,0,0,1,1.13-1.76c.07,0,0,0,0-.12a4.22,4.22,0,0,1-1.13-2.38c0-1.34,1.06-2.2,2.8-2.2l3.07,0a.51.51,0,0,0,.23-.07c.19-.17.24-.47.36-.95a1.13,1.13,0,0,1,.66.07c0,.44-.05,1.27-.05,2s0,1.37.05,1.94a1.14,1.14,0,0,1-.66,0,2.84,2.84,0,0,0-.1-.38c-.1-.29-.24-.33-.71-.34-1.14,0-2.62,0-3.17.06A1.1,1.1,0,0,0,70,197a1.78,1.78,0,0,0,.34,1,.12.12,0,0,0,.1,0,7.1,7.1,0,0,1,1.23-.1h2.66c.24,0,.37,0,.44-.2A2.09,2.09,0,0,0,75,197a.89.89,0,0,1,.66.06c0,.68-.05,1.32-.05,2.12s0,1.25.05,1.71a1.23,1.23,0,0,1-.66,0,2.85,2.85,0,0,0-.13-.54c-.07-.19-.31-.22-.51-.24a32.22,32.22,0,0,0-3.44.05,1.12,1.12,0,0,0-1,1.15,1.52,1.52,0,0,0,.27.83.34.34,0,0,0,.32.15h3.72c.43,0,.54-.11.63-.38,0-.1.07-.3.1-.47a1.25,1.25,0,0,1,.66.07c0,.67-.05,1.32-.05,2,0,1.15,0,1.45.05,1.92a1.07,1.07,0,0,1-.66,0A1.86,1.86,0,0,0,74.87,204.89Z"/><path class="cls-3" d="M65.36,188.55c0-.41,0-1.07,0-2.52s0-2.13,0-2.56a1.06,1.06,0,0,1,.66,0,3.67,3.67,0,0,0,.15.81c.12.34.35.41.83.41.78,0,1.74,0,2.69,0,.07,0,.1,0,.12-.09a19.52,19.52,0,0,0,0-2.13c0-1.12,0-1.63,0-1.85,0,0-.06-.1-.11-.1-.83,0-2,0-2.91,0a.67.67,0,0,0-.6.34,3.73,3.73,0,0,0-.18,1,.84.84,0,0,1-.66,0c0-.74,0-1.27,0-2.6s0-1.95,0-2.47a.76.76,0,0,1,.66,0,2.74,2.74,0,0,0,.17.84c.11.31.3.41.83.42,1.11,0,1.86,0,3.72,0,1.15,0,2.47,0,3.23,0,.41,0,.69-.07.83-.37a5.09,5.09,0,0,0,.22-1.1,1.14,1.14,0,0,1,.66.08c0,.42-.05,1.27-.05,2.59s.05,2.23.05,2.61a.84.84,0,0,1-.66,0,7,7,0,0,0-.15-.87c-.09-.27-.32-.4-.8-.42-.81,0-1.89,0-3,0,0,0-.12,0-.12.09,0,.34,0,1.16,0,1.93a16.3,16.3,0,0,0,0,2.11.26.26,0,0,0,.1,0c1.09,0,2.12,0,2.83,0,.47,0,.76-.05.9-.46a7.23,7.23,0,0,0,.2-1,.87.87,0,0,1,.66.06c0,.31-.05,1.12-.05,2.76,0,1.34.05,2.19.05,2.51a1.14,1.14,0,0,1-.66,0,7.85,7.85,0,0,0-.15-.8c-.12-.45-.37-.56-1.05-.61H67c-.55,0-.75.1-.83.44a4.51,4.51,0,0,0-.17.93A1.06,1.06,0,0,1,65.36,188.55Z"/><path class="cls-3" d="M72.13,168.35a3.39,3.39,0,0,1,3,1.56,4.81,4.81,0,0,1,.67,2.37,3.64,3.64,0,0,1-6.58,2.25,4.83,4.83,0,0,1-.69-2.46A3.43,3.43,0,0,1,72.13,168.35Zm-2.68,4.57c.29.44.9.68,2.19.68,2.31,0,3.45-.71,3.45-1.65a.9.9,0,0,0-.17-.52c-.34-.37-1-.59-2.32-.59-2,0-3.28.61-3.28,1.64A1.17,1.17,0,0,0,69.45,172.92Z"/><path class="cls-3" d="M69.89,164.26s.07.07.1.07h2.54a7.06,7.06,0,0,0,1.27-.06.85.85,0,0,0,.68-.9,1.5,1.5,0,0,0-.26-.93,1.44,1.44,0,0,1,.68,0,2.57,2.57,0,0,1,.92,2.06,1.93,1.93,0,0,1-.85,1.78,3.36,3.36,0,0,1-1.83.27l-3.08,0a.18.18,0,0,0-.17.09l0,.86a3.55,3.55,0,0,1-.78-.17c0-.22-.13-.56-.18-.69a.31.31,0,0,0-.16-.09c-.1,0-1,0-1.42,0a9,9,0,0,0-.91-1.86,2,2,0,0,1,0-.42c.44.05,1.32.07,2.33.07.07,0,.12,0,.12-.07,0-.29,0-1.42-.07-1.91a10.4,10.4,0,0,0,1.19.18C69.89,163,69.89,163.68,69.89,164.26Z"/><path class="cls-3" d="M69.33,161.81a14.9,14.9,0,0,0-.94-3.1s.12-.17.15-.17.57,0,.88,0c0,0,.07-.09,0-.12a4.79,4.79,0,0,1-.91-2.2,2.41,2.41,0,0,1,.79-1.8,3.45,3.45,0,0,1,2.3-.83A3.69,3.69,0,0,1,74.73,155a5.3,5.3,0,0,1,1.12,3.15v.34s0,.05.08.05c.31,0,1.48,0,1.88,0s.63-.12.73-.51c0-.22.08-.64.15-1a1.41,1.41,0,0,1,.65.1v.46a39,39,0,0,0,.21,4.38,1.09,1.09,0,0,1-.67,0,5,5,0,0,0-.2-.86c-.12-.27-.39-.32-.82-.32s-2,0-3.57,0c-1.84,0-2.76,0-3.55,0-.26,0-.46.06-.56.3a3.86,3.86,0,0,0-.22.71A1.48,1.48,0,0,1,69.33,161.81Zm.83-3.39a.39.39,0,0,0,.27.17c.5,0,2.53,0,3.25,0a1.26,1.26,0,0,0,.93-.44,1.46,1.46,0,0,0,.33-1,1.06,1.06,0,0,0-.41-.81,3.06,3.06,0,0,0-1.86-.49,3.36,3.36,0,0,0-2.07.54,1.5,1.5,0,0,0-.62,1.27A1.83,1.83,0,0,0,70.16,158.42Z"/><path class="cls-3" d="M72.13,144.67a3.39,3.39,0,0,1,3,1.56,4.81,4.81,0,0,1,.67,2.37,3.64,3.64,0,0,1-6.58,2.25,4.83,4.83,0,0,1-.69-2.46A3.43,3.43,0,0,1,72.13,144.67Zm-2.68,4.57c.29.44.9.68,2.19.68,2.31,0,3.45-.71,3.45-1.65a.9.9,0,0,0-.17-.52c-.34-.37-1-.59-2.32-.59-2,0-3.28.61-3.28,1.64A1.17,1.17,0,0,0,69.45,149.24Z"/><path class="cls-3" d="M69.89,140.58s.07.07.1.07h2.54a7.06,7.06,0,0,0,1.27-.06.85.85,0,0,0,.68-.9,1.5,1.5,0,0,0-.26-.93,1.44,1.44,0,0,1,.68,0,2.57,2.57,0,0,1,.92,2.06,1.92,1.92,0,0,1-.85,1.78,3.36,3.36,0,0,1-1.83.27l-3.08,0a.18.18,0,0,0-.17.09l0,.86a3.55,3.55,0,0,1-.78-.17c0-.22-.13-.56-.18-.69a.31.31,0,0,0-.16-.09c-.1,0-1,0-1.42,0a9,9,0,0,0-.91-1.86,2,2,0,0,1,0-.42c.44,0,1.32.07,2.33.07.07,0,.12,0,.12-.07,0-.29,0-1.42-.07-1.91a10.4,10.4,0,0,0,1.19.18C69.89,139.36,69.89,140,69.89,140.58Z"/><line class="cls-4" x1="41.15" y1="96.33" x2="41.15" y2="126.85"/><line class="cls-4" x1="41.15" y1="355.2" x2="41.15" y2="385.73"/><circle class="cls-1" cx="40.53" cy="329.13" r="14.31"/><path class="cls-5" d="M32.94,325.77v-1.6h1.34v1.6H35v.61h-.67v1.75c.28-.2.54-.45.82-.66l.14.06a7.89,7.89,0,0,1-1,1.56v3.84H32.94v-2.67a14.82,14.82,0,0,1-1.35,1l-.35-1.61a7.1,7.1,0,0,0,1.7-.71v-2.57h-.37a4,4,0,0,1-1.05,1.67l-.12,0a9.37,9.37,0,0,0,.19-2c0-.48,0-1,0-1.45h1.22c0,.42,0,.83-.09,1.25Zm3.81.87v-.95H35.38V325h1.37v-.89h1.44V325h1.34v.65H38.19v.95H40v.65H34.8v-.65ZM35,329.11a5.23,5.23,0,0,1,1.56.53,1.2,1.2,0,0,1,.6.9c0,.46-.45.65-.72.65a.74.74,0,0,1-.41-.11,2.19,2.19,0,0,1-.4-.79,4.29,4.29,0,0,0-.71-1.11Zm2.61-.86v-.82H39v.82h.89v.63H39V332a1.23,1.23,0,0,1-.09.5c-.15.31-1.51.42-1.89.42,0,0-.22,0-.26,0s.06-.45-.35-.7a4.35,4.35,0,0,0-1.08-.25v-.12l1.5,0a1.91,1.91,0,0,0,.64-.07.33.33,0,0,0,.08-.22v-2.62H35v-.63Z"/><path class="cls-5" d="M44.86,324.14a4.26,4.26,0,0,1-.48.62H46.9l.63-.47,1.68.45c-.19.1-.4.18-.58.28s-.06.06-.09.09a1.1,1.1,0,0,0-.16.15c-.18.16-.37.3-.56.44a2.52,2.52,0,0,1-.54.33l-1.41.6h1.78l.42-.38,1.48.33-.48.43V330H47.56v-.61H43.48V331a.81.81,0,0,0,.07.38.89.89,0,0,0,.42.25,11.86,11.86,0,0,0,2.33.15,3.67,3.67,0,0,0,2-.36,7.63,7.63,0,0,0,1.05-1.26l.15,0a3.56,3.56,0,0,0-.31.86c0,.44.59.36.59.53a.31.31,0,0,1-.06.16,1.82,1.82,0,0,1-.91.72,9.42,9.42,0,0,1-2.77.29,12.34,12.34,0,0,1-3-.26c-.26-.09-.76-.28-.85-.57a2.72,2.72,0,0,1-.11-.75v-4.85l-.79.29-.05-.08a5.94,5.94,0,0,0,1.73-2.41Zm-1.38,2.18v.31h1.58a10.62,10.62,0,0,0,1.35-1.24H43.73a10.38,10.38,0,0,1-1.65.93Zm1.39,2.38v-1.42H43.48v1.42Zm2.69,0v-1.42H46.2v1.42Z"/></g></g></svg>