<svg xmlns="http://www.w3.org/2000/svg" viewBox="0 0 84.19 387.6"><defs><style>.cls-1{fill:#231f20;}.cls-2{fill:#a98d66;}.cls-3{fill:#b89161;}.cls-4{fill:none;stroke:#000;stroke-miterlimit:10;}.cls-5{fill:#fff;}.cls-6{fill:#307e45;}.cls-7{fill:#af3637;}.cls-8{fill:#cd3d40;}</style></defs><title>資產 36</title><g id="圖層_2" data-name="圖層 2"><g id="work"><circle class="cls-1" cx="42.79" cy="43.92" r="31.47"/><path class="cls-2" d="M68.13,10.64c.29.26.56-.31.67-.37C68.18,10,68.05,10.78,68.13,10.64Z"/><polygon class="cls-2" points="62.06 8.44 62.28 8.27 61.19 8.38 62.06 8.44"/><path class="cls-2" d="M56.82,6c.12,1.2,2,.66,2.8,1.41l.05.29.79-.59C59.23,6.73,57.53,6.61,56.82,6Z"/><path class="cls-2" d="M54.52,2.83c.07.47-.77.14.68.36a1,1,0,0,0-.1-.14A4.46,4.46,0,0,1,54.52,2.83Z"/><path class="cls-2" d="M55.1,3.05c.63.16-.3-.47,0,0Z"/><path class="cls-2" d="M52.18,2.52l.91-.18c-.11-.28-.85-.49-.53-.61C51.65,1.75,51.78,2,52.18,2.52Z"/><path class="cls-2" d="M51.24,3.12l.45-.06C51.64,2.94,51.53,2.88,51.24,3.12Z"/><path class="cls-2" d="M52.66,2.92l-1,.14c.08.19,0,.53.44,0C52,3.32,52.22,3.06,52.66,2.92Z"/><path class="cls-2" d="M53.13,3.19c.41.31.93.65,0,.78C54.71,4.28,54.72,3.46,53.13,3.19Z"/><path class="cls-2" d="M56.17,7a5,5,0,0,1,.43.49l.6-.14C56.91,7.36,56.25,6.6,56.17,7Z"/><path class="cls-2" d="M47.05,1.13c-.08.22.22.64.25.93L48,1.87C47.65,1.68,47.06,1.47,47.05,1.13Z"/><path class="cls-2" d="M47.3,2.06l-.95.29C47.16,2.49,47.32,2.32,47.3,2.06Z"/><polygon class="cls-2" points="50.85 4.26 52.48 3.76 50.58 4.21 50.85 4.26"/><polygon class="cls-2" points="43.45 0.9 44 0.39 43.03 1.17 43.45 0.9"/><path class="cls-2" d="M41.06,1c.38-.47-.58-.7-.17-1a4.07,4.07,0,0,0-1.67.92A2.25,2.25,0,0,1,41.06,1Z"/><path class="cls-2" d="M38.43,1.48a4.46,4.46,0,0,0,.79-.56A2.62,2.62,0,0,0,38.43,1.48Z"/><path class="cls-2" d="M44.8,2.13a1.06,1.06,0,0,0-.71-.66l.35.65Z"/><path class="cls-2" d="M44.45,2.14v0l-.78-.05Z"/><path class="cls-2" d="M44.89,2.14H44.8C44.83,2.2,44.85,2.22,44.89,2.14Z"/><path class="cls-2" d="M48.64,3.27c-.58.29-1.69.55-.72,1.21C48.35,4.09,47.78,3.71,48.64,3.27Z"/><path class="cls-2" d="M45.29,3c.32,0,.63.15.94.23,0-.17-.16-.43.12-.58C46,2.71,45.64,2.81,45.29,3Z"/><polygon class="cls-2" points="44.81 3.14 45.29 2.94 44.94 2.88 44.81 3.14"/><path class="cls-2" d="M40.17,1.94a2.9,2.9,0,0,1-1.37.46,7.92,7.92,0,0,0,1.68.06C40.55,2.25,40.77,1.87,40.17,1.94Z"/><path class="cls-2" d="M42.25,2l-.09,0C42.22,2.12,42.27,2.14,42.25,2Z"/><polygon class="cls-2" points="33.75 3.17 33.85 3.26 33.85 3.15 33.75 3.17"/><path class="cls-2" d="M40.58,2.57a.89.89,0,0,0,.89-.3,5.11,5.11,0,0,1-1,.19C40.45,2.55,40.45,2.61,40.58,2.57Z"/><path class="cls-2" d="M37,1.93c.23.09.49.17.77.26C37.56,2,37.08,1.75,37,1.93Z"/><path class="cls-2" d="M42,1.89l.06,0C41.94,1.72,42,1.79,42,1.89Z"/><path class="cls-2" d="M42,1.89a2.15,2.15,0,0,0-.55.38,3.29,3.29,0,0,0,.69-.2A1.24,1.24,0,0,1,42,1.89Z"/><path class="cls-2" d="M33.29,7.54A1.15,1.15,0,0,1,35,6.6c.75-.59-.14-2.42-1.19-3.34,0,.27.07.46-.75,1.07.39.17,2.18.31,1.52,1-1.12.52-1,0-1.66-.14.66.59-1.2,1.45-.64,2.43L33.2,7C33.26,7.1,33,7.46,33.29,7.54Z"/><path class="cls-2" d="M35.66,3,36,2.86a3.6,3.6,0,0,1-1.5-.55c-.6.4-.69.64-.69.84l1.93-.26Z"/><path class="cls-2" d="M37.79,2.58c-.24.64-1.1,1.11-.45,1.7,1.09-.21.71-.62,1.35-1-1.81.31.49-.4-.88-.66a4.49,4.49,0,0,1,1-.25,7.69,7.69,0,0,1-1-.21l.05,0h0c.09.07.13.12,0,.08l0,0a1,1,0,0,1-.05.25c-.56-.09-.11-.16.05-.25,0,0,0-.07,0-.1h0c-.62.16-1.21.43-1.81.64A8.15,8.15,0,0,0,37.79,2.58Z"/><path class="cls-2" d="M46.82,5.76a.25.25,0,0,1,0-.16C46.67,5.67,46.62,5.72,46.82,5.76Z"/><path class="cls-2" d="M46.15,5.29c.13-.07.26-.32.67-.21s0,.31,0,.52c.26-.14.92-.36.18-.76l-.14.07c-.67-.3-1.55-1.2-1.42-1.28A5.18,5.18,0,0,0,46.15,5.29Z"/><path class="cls-2" d="M42.06,3.88a13.47,13.47,0,0,0-1.48.39l.78.5,0-.33C42.15,4.53,42,4.15,42.06,3.88Z"/><path class="cls-2" d="M33.5,2.88l.06-.7c-.24.36-.45.77-.67,1.16Z"/><polygon class="cls-2" points="31.55 3.5 31.46 2.91 31.04 3.4 31.55 3.5"/><path class="cls-2" d="M38.53,78.26l.4-.13A1.16,1.16,0,0,0,38.53,78.26Z"/><path class="cls-2" d="M35.82,77.77,35.7,78C35.85,77.91,35.93,77.8,35.82,77.77Z"/><path class="cls-2" d="M1.13,39.58c-.63.61-1.57,1.32-.9,1.28L.9,40.7A1.63,1.63,0,0,1,1.13,39.58Z"/><path class="cls-2" d="M14.06,68.86l0-.26-.73.08C13.57,68.73,13.79,68.81,14.06,68.86Z"/><path class="cls-2" d="M16.37,67.38l.21.83A2.65,2.65,0,0,0,16.37,67.38Z"/><path class="cls-2" d="M53.21,76.22c.07-.25.14-.49.2-.76C52.78,75.67,53.16,75.89,53.21,76.22Z"/><path class="cls-2" d="M13.75,14a4.42,4.42,0,0,0-1.32.73C13.21,14.47,14,14.49,13.75,14Z"/><path class="cls-2" d="M36.39,85c.3-.08.44-.2.45-.34C36.54,84.69,36.36,84.8,36.39,85Z"/><path class="cls-2" d="M11.31,16l.32-.13a3.13,3.13,0,0,1,.8-1.13A1.39,1.39,0,0,0,11.31,16Z"/><path class="cls-2" d="M75.53,33.09s0-.09,0-.13S75.49,33,75.53,33.09Z"/><path class="cls-2" d="M72,15.1a5.19,5.19,0,0,1,.57.53A1.63,1.63,0,0,0,72,15.1Z"/><path class="cls-2" d="M23.77,6.2c.37-.23,0-.09,0,0Z"/><path class="cls-2" d="M26.71,7.61a.44.44,0,0,0,0,.36A.6.6,0,0,1,26.71,7.61Z"/><path class="cls-2" d="M11.9,21.7l0,0C12.05,21.71,12,21.71,11.9,21.7Z"/><path class="cls-2" d="M24.48,6.18a2.47,2.47,0,0,0-.58.07A2.33,2.33,0,0,0,24.48,6.18Z"/><path class="cls-2" d="M24.27,5.94l.37-.11C24.64,5.7,24.57,5.66,24.27,5.94Z"/><path class="cls-2" d="M23.24,6.51a3,3,0,0,1,.66-.26c-.1,0-.14,0-.13,0Z"/><path class="cls-2" d="M74.08,62.1l.1,0C74.12,61.6,74.08,61.76,74.08,62.1Z"/><path class="cls-2" d="M8.14,49.69l0,0v.06Z"/><path class="cls-2" d="M8.84,50.87c-.89-.38-.85-.72-.75-1.16l-1.78.75C7.16,50.62,8,50.76,8.84,50.87Z"/><path class="cls-2" d="M45.11,78.25l-.92-.51c1-1,1.75-.78.9-1.53,0,1-.83,1.19-1.68,1.22s-1.69.07-1.79,1.09l-.57-.44c.17,0,.2-.09.36-.07-1.08-1-.93,1.45-2.43,1-.51-.21-.83-.54-.45-.74l-1.23.37c-.33-.09-.19-.42.14-.34-.59,0-1.18-.13-1.77-.19l0-.06a7.16,7.16,0,0,1-1.33.77c-.38-.38.28-.16.22-.44-.36.09-.73.2-1.1.26a.46.46,0,0,1,.32-.64,1.42,1.42,0,0,1,1,0c-.21-1.09-.43-1-.81-.84s-.93.3-1.68-.56l.94,0c-.22-1.29-1-1.1-1.7-2.07.06.41,1.34,2.33.18,2.49a1.16,1.16,0,0,0-1.27-.22c.24-.68-.32-.73-1-1l.41-.87c-.78,0-.92.44-1.51.66-.74-.42-.58-1.15-.46-1.82-1.07-.77.27,1.52-1.19.91a2.66,2.66,0,0,0-1.33-.8c-.5-.14-1.11-.16-1.81-.34-.47-.73.43-.41.35-.8L23,73c-.13-.11.05-.27.14-.36-.66-.09-.59.77-1.53.43-.41.35-.61-.23-.85-.9s-.54-1.41-1.38-1.33c0-.4.49-.36.67-.69a15.8,15.8,0,0,0-3.09-.65l-.33-1.26c.05,1.09-1.3.91-2.52.65A6.86,6.86,0,0,0,14,69.94a12.36,12.36,0,0,1-1.45-.87c0-.26.35-.34.82-.39L13,68.59c-.08-.67.54-.78,1.19-.82,0,.28-.07.56-.1.83a2.9,2.9,0,0,0,1.79-.71,1,1,0,0,1-.53-.18c.19,0,.33-.08.38-.18s-.24-.06-.57-.11l.61-1-.38.21-.64-1.93c-.43-.11-.88-.19-1.34-.29s-.88-.24-1.33-.4a6.06,6.06,0,0,1-2.61-1.74c.95.14,1.18-.51,2-.93-.56,1,1.27,1.24,1.69,2.3-.23-.56.21-.69.42-.65l-1.84-1.23c.68-.34.26-.64.32-1.27-1.14,1.07-1.56-.89-2.36-1.44.44-.26,1-.3,1.33.65.55-1.46-2.29-.53-1.79-2,.1.23.08.39.35.38-.62-.37-.81-1.85-.27-1.68l.09.22A10.37,10.37,0,0,0,9,55.3a16.22,16.22,0,0,0-.6-1.56C7.9,52.75,7.28,52,6.65,52a12.88,12.88,0,0,1,1.82-.09,46.87,46.87,0,0,1-4.76-2.21c1.13.09,3.54-1.25,4.39,0A2,2,0,0,0,7.8,48c-.15.27-1.52.86-1.65.5,1.13-1.16.59-.79,1.53-2.1-.2.41-1.95.1-1.95-.57.26.09,1.69-.14,1.88.08A19.72,19.72,0,0,1,5.87,44.4c.29.4,1.42,0,1.91-.3-.33.16,0-1.34-.11-1.75l-.4.64c.25-1.73-2.29-1.89-2-3.75.32.27,2.07.78,2.38-.08a15.78,15.78,0,0,1-2.28-1.65,5.26,5.26,0,0,1-1.81-2.72l.55-.22a11.64,11.64,0,0,1-.22-1.44L6,35.72c.79,1,1.55,2,2,2.59.51-.57.6-.08.76-1,.53-.24.58.64.55.91L10,36.11c-.5-.07-.66-.54-.8-1s-.16-.94-.58-1a19.63,19.63,0,0,0,.43,2.64A2.5,2.5,0,0,1,7.5,35.45,2.53,2.53,0,0,1,7.24,33c.51-.29,1.62.83,1.95.88-.27-.29-.16-1.67.11-1.73l.31.83c.31-.37.1-.82,0-1.28a.92.92,0,0,1,.55-1.23c.21-.33,1.62-.5,1.1-.8C10,29.78,6.62,28.53,6,27.76c.06-.06.53-.46,1.07-.86a5.17,5.17,0,0,1,1.57-.82c1.12-.14,1.44,1.84,2.4,1.71a1.22,1.22,0,0,1-.39-.78c.4-.24.67.54,1-.27-.82-.62.93-1.5-.56-.78.19-.89.59-.72,1.12-1.57-.75-.08-1.36-2-1.06-2.92a1.22,1.22,0,0,0,.75.23c.28-.36.55-.67.81-.95s.57-.47.84-.7a11.17,11.17,0,0,0,1.63-1.51c.28.05,1-.35,1.12.21a1.48,1.48,0,0,1,.31-1.06c1.34-.05-.73.88.57,1.11-.38-.46.37-1.48.65-2.26C17,16,16.46,17.6,16.21,18.35c-.93-.86-.92-2.7.07-4.45.92-1.25,1,.2,1.1-.12a3,3,0,0,0,1.44-2.27,1.69,1.69,0,0,1,1.6-1.59c1.23.18.91,1.33,1.4,1.7a2.28,2.28,0,0,1-1.29.67,2.76,2.76,0,0,0-1.13.44l1-.3c-.14.45-.63,1.09-1.11,1.16,1,.07,3.77-2.57,5.95-2.89.2-.4.64-.93.23-1.09l-.54.4c-.86-.3.71-1.37-.19-1.26a14.08,14.08,0,0,1,1-1.3,3,3,0,0,1,.68-.55,2.6,2.6,0,0,1,.91-.25l.58.76c-.13-.24-1-.2-1.23.19.36-.58,2.3.45,2.41-.89l-1.07-.26c.69-.74,1.47-2.18,2.73-2.18-.8-.71-.23.17-1.39-.6,1.12,1-2.91,1.06-1.31,1.93-1.25-.81-1.61,0-3.07-.44.15.26.6.35-.37.67a1,1,0,0,1-.09.34h0c0,.07,0,.08,0,0a1.18,1.18,0,0,1,.66.18c-.15.86-1.56,1.54-1.85,2.09-.59.14.05-.41-.39-.56a8.62,8.62,0,0,0-.43.86c-.39-.55-1.91-.12-.91-1.21l-1.1.65a3.11,3.11,0,0,0-2.19,1.11c-.57.26-.76,1.54-.66.79l-1.33,1.56-.12-.12a10.23,10.23,0,0,0-2,2.3,6.27,6.27,0,0,1-2.61,2,5.15,5.15,0,0,1-1.46,2l-.59-.19c-.4.76-2,1.76-1.71,2.4a1.62,1.62,0,0,0-1.21.49,3.7,3.7,0,0,0-.91,1.3,16.08,16.08,0,0,1-1.36,2.81L5,25a10,10,0,0,0-.9,3.22l.65.18c0,1.16-1.4,2.44-1.87,4.13-.21-.19,0-.59.23-.84a2.5,2.5,0,0,0-.95,1.38,5.76,5.76,0,0,0,0,1.66,4,4,0,0,1-.43,3,1.1,1.1,0,0,1-.13,1.12.27.27,0,0,0,0-.12s0,.12,0,.19-.29.39-.42.61a2.18,2.18,0,0,0,.41-.51,6.12,6.12,0,0,0,.11,1.46L.9,40.7s0,.08,0,.13c-.32.51.3.44.87.2a2,2,0,0,0,.4.72c-1.17.38.37,1.39-.88,2,.3.18.4.85.59,1.49s.58,1.27,1.23,1.36c-.17,0-.24.19-.27-.09a1.93,1.93,0,0,0,.2,1.66l-.89.34a17.07,17.07,0,0,0,1.38,1.1c-.42.82-.68,1.21-1.51.55,1.4,1.66.65,1.45,2,2.75l-.6.06c.17.54,1.18,1.2.79,1.65a2.82,2.82,0,0,0-.08,1.63,13,13,0,0,0,.72,2.34A38,38,0,0,1,6.66,63.8c.63-.7.61-.26.63.27s.09,1.16.7.87c-.25.37-.2.88-.79.62,1.25,1.19.78,2.57,2.46,2.8-.22.4-.71.07-.81.36.16,0,.62.21.54.5s-.43,0-.75-.1c1.15,1.36,2.25.69,3.24,0a1.53,1.53,0,0,0,.36,1,1.5,1.5,0,0,0,1.08.18c-.09.47-.05,1.11-.88.45.36.45,2.09,3,2.81,2.35,0,.3.57.59.76.61a16.35,16.35,0,0,0,2,1.8l-.17-.35c1.08-.57,1,.44,1.91.92l-.09.08c.73,1,1,1.08,1.26,1.15s.45.21,1.24,1.17l.26-.68c1-1.24,1.33,1.79,2.83,1.93L25,79.2c.43,0,.67.61.89,1.38a4.69,4.69,0,0,0,.76,1.88c.11.19-.33.09-.59.09,1.54,1.65.61-.77,2.07-.38.08.57-.81,1.09.13,1.53.17.28,1,.12,1.94,0a3,3,0,0,1,2.44.58c-.2-.44-.39-.88.35-1,1,0,2.52,2.09,3.67,1a.41.41,0,0,1,.15.33c.85-.23,2.68-.24,3.19-.85.28,1.28,1.58,1,2.72.67s2.16-.72,2.22.42l2.47-.32,0,.24a2.64,2.64,0,0,0,2.52-1.35c.39.09.17.35.16.47,2.36.09,2.6-.2,4.12-1.77l.41.65c.19-.27,1.08-.2,2.14-.38A9.3,9.3,0,0,0,58.44,82,3.4,3.4,0,0,0,60,81.08a.49.49,0,0,1-.08.41c.95-1,2.59-1.14,3.89-1.61s2.33-1.06,1.95-2.42a15.1,15.1,0,0,0,1-1.53c-1.8,1.13-.45-1.14-1.4-1,.53-.62,2.16-.64,1.45.09h-.21c.55,1.34,2.4-1.21,3-.49,3.15-2.85,6.39-5.64,8.65-9.07-.39,0-.77-.1-1.17-.18.26-.37.49-.78.74-1.17.4-.19,1,0,.45.86.8-.16.37-1.74.17-1.87,1.34-1.51.76,1.28,1.07.77l.33-.77-.21.11c-.09-.81-.41-1,.1-2.12.5-.6.77-.07.93-.33.07,0,.14-.05.21-.42l.79-1.61-1.08.33c-.08-.87.67-1.5-.55-1.1.93-.27,1.53-1.81,2-3.32s.55-3,.87-3.36a4,4,0,0,1-.19-.86,6.23,6.23,0,0,1-.07-.86,10,10,0,0,1,.2-1.81c-.22.31-1.21.39-1-.69,1,.28,1.29-.21,1.45-.9a2.85,2.85,0,0,1,1-2c-.49.41-.53-.41-.63-1.17s-.37-1.44-1-.77c.08-.95.74-.09,1.16-.85a5.56,5.56,0,0,1-.4-1.78c0-.31,0-.63,0-1s0-.66,0-1a11.69,11.69,0,0,0-.54-4.16c-.27,0-.53.58-1.07.1.29-.59.58-1.19.86-1.81-.3-.51-1.54-.05-1.05-1.3-.16.21-.4.52-.61.2A17.74,17.74,0,0,0,77.51,23c-.81-1.16-1.54-2.38-2.35-3.55a16.42,16.42,0,0,1-1-1.9c-.31-.68-.67-1.32-.93-2.06.16.92-.24.57-.66.16.18.36-.48.44-.68.74-.3-.78-.59-1.6-1-2.38-1,.45-2-1.61-2.76-1l.67.35c-1.45.24-.61,2.76-1.7,3.71a.76.76,0,0,1,.83.36,4.81,4.81,0,0,1,.37,1.11c.22.82.5,1.6,1.75,1.58,0,.45-.56.09-.68.44.76-.13,1.15.21,1.5,1.1h-.18a8.14,8.14,0,0,1,1.67,2.66l.53,1.43c.19.51.43,1.06.63,1.75l.53-.53a2,2,0,0,1,0,1.15c1.27.14-.71-1.57.62-1.56-.45.72,0,1.69.47,2.64s.68,2,0,2.49c.32.87.67-.54,1,.33l-.33.38.63,0a1.11,1.11,0,0,1-.69,1.21c0-.15-.22-.36-.29-.51-.29.91.76,2.07.67,2.38l0-.92a9.84,9.84,0,0,1,.67,1.87c.13.67.26,1.36.38,2,.08.35.15.69.22,1s.09.68.16,1a8.91,8.91,0,0,0,.59,1.92l.32-.2c.71,1.9-.36,1.53-.08,3.63l-.08-.08a1.94,1.94,0,0,1,.33,1.58c-.33-.55-.87.91-1.22.18.42,2.11.44,1.06,1.45,2.62l-.61.22a1.9,1.9,0,0,1,.56,1.74c-.28-1-1,.47-1.38-.61a2.51,2.51,0,0,0-.64,1.32,5.07,5.07,0,0,0,0,1.15c0,.69,0,1.26-1,1.44,1.15,1.47,1.39-1.55,1.53-.91.63-.32.84,1.16.47,1.81s-2.29.46-2.93,2c.08-.15,0-.21,0-.37-.31.22-.31.57-.35.92a.92.92,0,0,1-.61.91c.61.82-.55.88.43,1.57L75,59.83c-.17.93.61,2.4-.74,3.43a2.91,2.91,0,0,1-.19-1.16c-.52.21-.19.89-.77,1.08-.9-.71.75-1.86.44-3.13-.67.16-.14,2-1,1a.94.94,0,0,1,0,1.44A1.48,1.48,0,0,0,72.08,64l-.55-.47a1.83,1.83,0,0,1-.16,1l-.41-1c.1,1.23-1.54,1.09-1.81,2,.6-.71.83-.66,1-.47s.38.55.82.38c-.78,2.44-2.32-.13-3.71,2,.16-.31,1.16-.7,1.06-.06a2.5,2.5,0,0,1-1.57.49c-1.13,1.28.7.34.48,1.15-1-.21-.37.84-.75,1.6L66,70c-.85.53-.77.82-.6,1.19s.3.68-.6,1l0-1.25-.58.77L63.88,71a2.09,2.09,0,0,1-1.7,1.55,1,1,0,0,1-.13,1.65c-.75,0-.08-.76-1.09,0,0-.54,0-1.18.77-.91-.08-.23,0-.53-.09-.75-.81-.08-1.4.75-1.77,1a.88.88,0,0,1,.49-.11c-.17.3-.33.61-.51.91l-.57.84c-.39-.11-.28-.41-.19-.69-.28.23-.36.63-.81.93-.14-.59-.43-1.12.1-1.69l-1.21,1.33c-.21-.17-1.06-.26-1-.55-1,0-1.68,1.89-3,1.85a.71.71,0,0,1-.35.42c-.59.09-1.17,0-1.74.09a3.38,3.38,0,0,0-.86.21,2.54,2.54,0,0,0-.89.51l-.95-.9c-1,.42,1.27,1.12-.46,1.83-1.23.56-.59-.8-1.07-1-.54.58-1.6,1.75-2.83,1C44.44,78.23,44.75,78.36,45.11,78.25ZM31.76,77c.3-.06.94-.35,1,.12C32.23,77.83,32.11,77.38,31.76,77Zm-18-10.71c.31,0,.41.34.42.79A1.17,1.17,0,0,1,13.81,66.3ZM20,9.08a.09.09,0,0,0,0,.05C19.19,9.27,19.46,9.23,20,9.08Zm1.39-.51c.07-.16,0-.24-.09-.29,0,.21-.26.39-.6.54C20.84,8.93,21.06,8.94,21.34,8.57Zm59,52-.29.18C80.12,60,80.22,60.28,80.35,60.52Z"/><path class="cls-2" d="M16.1,67.55a1,1,0,0,1-.22.34C16.05,67.89,16.15,67.8,16.1,67.55Z"/><path class="cls-2" d="M53.17,76.36h0a.57.57,0,0,0,0-.13Z"/><path class="cls-2" d="M11.63,27.53a1.05,1.05,0,0,1-.57.26C11.21,27.88,11.4,27.85,11.63,27.53Z"/><path class="cls-2" d="M27.78,4.09,27,4.6a1.22,1.22,0,0,1,.88-.08C27.77,4.37,27.51,4.2,27.78,4.09Z"/><path class="cls-2" d="M36.49,6.36c.11-.11.26-.06.37-.17l-.09-.32C36.24,6,35.93,6.31,36.49,6.36Z"/><path class="cls-2" d="M29.41,6c.27.56.7.12,1.28-.14a.23.23,0,0,1-.11,0C30.5,5.06,29.93,5.52,29.41,6Z"/><path class="cls-2" d="M30.82,5.84a2.78,2.78,0,0,1,.56-.17C31.35,5.33,31.13,5.67,30.82,5.84Z"/><path class="cls-2" d="M22.72,7.29c.36,0-.19-.78.08-.64C22.73,5.81,21.41,8.43,22.72,7.29Z"/><polygon class="cls-2" points="30.53 7.76 30.08 7.12 29.96 7.82 30.53 7.76"/><path class="cls-2" d="M25.93,9.07l.95-.24c-.06-.11,0-.23.13-.35C26.46,8.72,25.81,8.88,25.93,9.07Z"/><path class="cls-2" d="M27,8.48a1.52,1.52,0,0,0,.68-.41A2.67,2.67,0,0,0,27,8.48Z"/><polygon class="cls-2" points="29.39 8.44 29.07 8.39 28.42 8.58 29.39 8.44"/><path class="cls-2" d="M17.16,14.69l-.63.89c.1.26.41.18.63-.17C17.22,15.11,17.44,14.76,17.16,14.69Z"/><path class="cls-2" d="M20.89,14.34c-.31,0-.42-.08-.69-.18l.54.76Z"/><path class="cls-2" d="M18.74,16.32c.09.27-.55,1.55.32.64C19,16.69,19.56,15.87,18.74,16.32Z"/><polygon class="cls-2" points="8.64 27.76 8.73 27.51 7.34 26.89 8.64 27.76"/><path class="cls-2" d="M8.77,41.22c.5-1.06-.9-.35-.33-1.31-.33-.3-.47.79-.75.49C8,41.12,7.74,41.45,8.77,41.22Z"/><path class="cls-2" d="M7.69,40.4A3.28,3.28,0,0,0,7.5,40,.92.92,0,0,0,7.69,40.4Z"/><polygon class="cls-2" points="70.22 12.35 69.77 11.54 69.86 12.3 70.22 12.35"/><path class="cls-2" d="M68.24,12.15l.46-.89-.94.36C67.93,11.71,68.27,11.89,68.24,12.15Z"/><path class="cls-2" d="M30.6,74.51l-.14.19c0,.28.15.36.43.53Z"/><polygon class="cls-2" points="39.52 77.41 39.36 77.37 39.59 78.28 39.52 77.41"/><path class="cls-2" d="M47.33,76.14a5.61,5.61,0,0,1-1,.24C47,76.2,47.57,77.21,47.33,76.14Z"/><path class="cls-3" d="M34.27,43.12a30.33,30.33,0,0,1-.91,8.08,12.53,12.53,0,0,1-1.5,3.4C31,55.92,30,57.16,29.08,58.41L26.7,52.56a32.81,32.81,0,0,0,4.86-5.67,20.78,20.78,0,0,0,1.5-2.53l.66-1.42Zm-7.2-7.46c1.16.18,2.37.44,3.54.66s2.78.62,3.51,1.61a3,3,0,0,1,.66,2.34A2.55,2.55,0,0,1,32.15,42c-1.87-.07-2.2-1.61-2.89-3.25a10.74,10.74,0,0,0-2.41-2.89Zm.4-9.55a42.29,42.29,0,0,1,4.75,1.5,4.13,4.13,0,0,1,2.71,2.82,2.17,2.17,0,0,1-2,2.59,3.35,3.35,0,0,1-2.78-1.31c-.62-1.36-.48-2.16-1.32-3.4a15.5,15.5,0,0,0-1.57-1.91ZM36,37V26.11h4.68v1.32a20.57,20.57,0,0,0,3.14-2.12l2.75,2.74V27.5h5.63l1.46-1.61L58.81,27l-1.06,1.46c-.07,3.69-.11,7.39-.22,11.08a3.9,3.9,0,0,1-.18,1.32,1.91,1.91,0,0,1-.51.69c-.88.7-3.62,1-4.76,1-.88,0-.25-1-1-1.76a3.82,3.82,0,0,0-2.3-1v-.43c.77,0,1.5.07,2.27.07a3.41,3.41,0,0,0,1.24-.15,1,1,0,0,0,.37-.73,5.81,5.81,0,0,0,.07-1.1c0-1.68.07-3.36.11-5l0-2.53h-1.5a36.66,36.66,0,0,1-.59,5.34c-.73,3.73-4.61,6-7.53,7.87L42.83,43a14.73,14.73,0,0,0,1.86-2.48,24.21,24.21,0,0,0,1.21-2.16c1.06-2.16,1.21-6,1.32-8.38H46.6V28.38a15.29,15.29,0,0,1-5.89.88v7a6.58,6.58,0,0,0,1.86-.8,10.27,10.27,0,0,0-1.5-3.92l.22-.18c1.32.55,3,.8,4,2a3.66,3.66,0,0,1,1,2.45A2.46,2.46,0,0,1,44.4,38c-.8.07-1-.22-1.42-1.07a31.19,31.19,0,0,1-3.26,2.86c-.95.69-2,1.28-3,1.9L35,38.07C35.62,38,36,37.78,36,37Zm5.08,6.51v1H51.9L53.4,43l5.05,1.14-1.17,1.35v12.8H52.16V56.18h-11v2.08H36V43.52Zm3,5.52V46.81h-3V49Zm0,4.65V51.42h-3v2.27Zm8-4.65V46.81H48.83V49Zm0,4.65V51.42H48.83v2.27Z"/><path class="cls-3" d="M55.84,153.72l-.19.38a8.77,8.77,0,0,1-.67,1.05,12.52,12.52,0,0,1-3.46,3.34l-.25-.1c.28-1.17.54-2.32.76-3.49H50.31v13.41a2,2,0,0,1-.54,1.62c-.76.67-3.43,1-4.51,1-1.37,0,0-1.59-1.62-2.26a11.67,11.67,0,0,0-2.1-.5v-.42c1.05.07,2.1.1,3.15.1a5.45,5.45,0,0,0,1.49-.13.82.82,0,0,0,.26-.7V154.9H43.19v2.48H39.47v-1.15H38.14l0,3.4h4.51v2H38.14l0,3c1.91-.25,3.81-.5,5.72-.82v.38A46.3,46.3,0,0,1,30,169l-.82-3.63c1.68-.06,3.4-.15,5.08-.34l0-3.37H30v-2h4.26l0-3.4-1.3,0v1.18h-3.4V142.72H33v1h6.45l1.08-1.21,4,.89-.31.25h6l1.37-1.49,5.18,1.15c-.54.41-1.11.79-1.65,1.2a6.16,6.16,0,0,0-.67.77c-.54.54-1.08,1-1.65,1.52a18.67,18.67,0,0,1-3.28,2.1c.8.48,1.94,1.14,1.94,2.19s-1,1.53-1.91,1.53c-1.36,0-1.87-.86-2.51-1.91a12.67,12.67,0,0,0-1.49-2,7.55,7.55,0,0,0-1.62-1.37l.32-.22a40.5,40.5,0,0,1,4.1,1.17,19.17,19.17,0,0,0,1.43-2.6H43.83V144l-.64.83v8h8.55L53,151.5l4.13,1C56.7,152.93,56.26,153.31,55.84,153.72Zm-21.58-8H33V149h1.33Zm0,5.15H33v3.37h1.33Zm5.21-5.15H38.14l0,3.24h1.36Zm0,5.15H38.14l0,3.37h1.36Z"/><path class="cls-3" d="M31.81,194.21H28.73v-2.13h3.08v-5h4.1v5h2.42v2.13H35.91v3.21a9.42,9.42,0,0,1,2.74,1.84v-2h1.68V186.93h3.82v4.16h3.08v2H44.15v4.2h3.4v2.16H38.77a4.32,4.32,0,0,1,.35,1.05,1.31,1.31,0,0,1-1.27,1.21c-1.4,0-1.2-1.43-1.43-2.39a2.63,2.63,0,0,0-.51-1v17h-4.1V205a27,27,0,0,1-3.21,4.1l-.31-.15c1.3-3.09,1.36-5.76,1.52-9,.07-1.27.1-2.48.07-3.72h1.93ZM44,200.31v2.38c1.27.57,4.23,1.08,4.45,3.56.09,1.08-.22,2.23-1.69,2.2s-1.49-1.53-1.65-2.61A4,4,0,0,0,44,203.52v8.9a4.59,4.59,0,0,1-.22,1.43c-.39,1-2.52,1.21-3.47,1.21-1.59,0-.25-.83-1.4-1.78a5,5,0,0,0-1.68-.54l0-.39c.7.07,1.4.1,2.1.1.92,0,.95-.25.95-1.08v-3.94a17,17,0,0,1-4,4.67l-.32-.22a23.52,23.52,0,0,0,2-9.09H40.3v-2.48Zm6.77.95a61.83,61.83,0,0,0,.6-8.39v-1.21H48v-2.13h3.12l1.33-1.43,4.64,1.12-1.59,1.3c-.28,3.88-.32,7.82-1.21,11.6-.35,1.43-.82,2.83-1.27,4.23.19.38.42.76.64,1.14a10.28,10.28,0,0,0,3.65,3.12l-.09.38c-1.62.35-2.39.79-2.39,2.57a8.38,8.38,0,0,0,.26,1.59l-.45.22a20,20,0,0,1-4.22-5A21.65,21.65,0,0,1,45,214.42l-.28-.19c.57-.6,1.14-1.21,1.71-1.84a21,21,0,0,0,2.77-5,87.06,87.06,0,0,1-.92-12.49c0-.54,0-1.11,0-1.68l.86-.06A46.44,46.44,0,0,0,50.76,201.26Z"/><path class="cls-3" d="M54.6,240c-1.49,0-1.68-.89-1.78-2.13a55.32,55.32,0,0,1-8.8,2.51l-.25-1.75-.8,1v5.28a13.79,13.79,0,0,0,2.7-4.64h4c-1.81,2.89-3.31,3.49-6.33,5l-.28-.07L43,259.55H39.73v-1.72H32.58v1.72H29.34v-22h3.24v1.12h.89v-4.23h-5v-1.94H43v1.94H38.62v4.23h.85l1-1.18,3.27.79-.31-.82a5.73,5.73,0,0,0,.76-.13c1.27-.57,2.26-4.38,2.45-5.72h5a16.1,16.1,0,0,1-5.91,5.85c2.29-.1,4.51-.26,6.77-.48a12.11,12.11,0,0,0-1.91-3.11l.35-.26c1.11.61,2.32.8,3.37,1.5a4.47,4.47,0,0,1,1.94,3.4A1.54,1.54,0,0,1,54.6,240Zm-14.87,8.55a4.8,4.8,0,0,1-1.5.28A1.59,1.59,0,0,1,36.45,247v-6.35h-.92c0,1.08,0,2.13-.06,3.21-.13,2.92-.76,3.78-2.89,5.72V251h7.15Zm-6.26-7.88h-.89V249a17.25,17.25,0,0,0,.89-6.48ZM39.73,253H32.58v2.83h7.15Zm-3.28-18.56h-.92v4.23h.92Zm3.28,6.2H38.62v5.75c0,.41.12.51.54.51a3.63,3.63,0,0,0,.57,0ZM55.49,259.9l-.22.12a16.65,16.65,0,0,1-5.85-3.46c-1.87,1.17-3.72,2.16-5.69,3.18l-.35-.23A17.87,17.87,0,0,0,48,254.75a13.34,13.34,0,0,1-1.37-4.68c-.89.86-1.81,1.66-2.79,2.45l-.45-.12c1.59-3,1.75-4.55,2.26-7.86h4.26c-.19.48-.32,1-.54,1.5h2l1-1.11,3.9.89-1.17,1c-.76,3.31-1.08,4.64-3.08,7.47a14.07,14.07,0,0,0,5,2.45v.41C55.24,257.54,55.05,258.37,55.49,259.9Zm-7.15-12-.63.92a7.39,7.39,0,0,0,1.78,3.31,17.71,17.71,0,0,0,1.36-4.23Zm6.33-3.27c-2.07,0-4.1.06-4.1-2.7v-1.88l2.7,0v1.18c0,1.21,1.21.92,1.68.92.13,0,1.59,0,1.56,0,.06.89,0,1.75,0,2.45A17.81,17.81,0,0,1,54.67,244.64Z"/><path class="cls-3" d="M33.94,278.42V276.1h4.55v2.32h8.23V276l4.77,0v2.42h4.67v2.1H51.49v2.35H46.72v-2.35H38.49v2.35l-4.58,0,0-2.38H28.32v-2.1Zm5.92,13.28h4.76V293H56.07V295H44.62v9.31H39.86v-6.48c-3.66,3.59-6.42,4.74-11.22,6.13l-.23-.25a21.58,21.58,0,0,0,7-7.53l4.45.35V295H28.35V293H39.86Zm1.81-5a65.93,65.93,0,0,1-11.13-.79l.1-.26a89.79,89.79,0,0,0,17.45-2.73l5.15,2.13A39.29,39.29,0,0,1,41.67,286.71Zm-9.38-.09c1.65.32,6,1,6,3.21A2,2,0,0,1,36.36,292c-2.23,0-2.13-2.1-3-3.59a13.2,13.2,0,0,0-1.18-1.5Zm7.34.19c1.18.19,3.44.44,4.42,1.17a2.43,2.43,0,0,1,1,1.85c0,1.11-.83,1.65-2.07,1.56-1.56-.1-2.13-1-2.38-2.51a4,4,0,0,0-1.31-1.79Zm7,9a12.09,12.09,0,0,0,3.3,2.47,22.24,22.24,0,0,0,7.12,2.2l-.09.28c-.64.07-1.66.19-2.07.77a1.77,1.77,0,0,0-.41,1.05,2.6,2.6,0,0,0,.44,1.33l-.22.25a14.32,14.32,0,0,1-6.16-3.3A12.4,12.4,0,0,1,45.2,296Zm3.4-9.51,4.16,1c-2.45,2.73-4.57,3.59-8,4.58l-.28-.19A21.06,21.06,0,0,0,50.06,286.33Z"/><path class="cls-3" d="M68.41,304.31a3.78,3.78,0,0,0-.44,1.93c0,1.79,1.39,3,4.4,3,2.16,0,4.69-1,4.69-3.74a2.27,2.27,0,0,0-.51-1.55,6.88,6.88,0,0,0-1.71-1.34,1.14,1.14,0,0,1,.4-.58,5.92,5.92,0,0,1,2.39,1.44,6.92,6.92,0,0,1,.42,2.51c0,3.82-1.84,6.09-5.51,6.09a4.94,4.94,0,0,1-4.62-2.79,7.78,7.78,0,0,1-.7-3.42c0-1.42.26-2.78.29-3.49a20.5,20.5,0,0,0,2.86.26c.12.06.15.67.07.69C69.42,303.51,68.81,303.61,68.41,304.31Z"/><path class="cls-3" d="M67.17,301.5a15,15,0,0,0-.61-3.38.42.42,0,0,1,.34-.15c.27.15.48.22,1.63.22h3a.06.06,0,0,0,0-.08,4.06,4.06,0,0,1-.89-2.15c0-1.42,1-2.27,2.82-2.27.9,0,2.45,0,3.08,0,0,0,.24,0,.29-.11a2.13,2.13,0,0,0,.27-.84.78.78,0,0,1,.66.08c0,.24,0,.87,0,2,0,.66,0,1.39,0,1.83a.76.76,0,0,1-.66,0l-.1-.42c-.09-.24-.24-.29-.73-.31A25.07,25.07,0,0,0,73,296a1.25,1.25,0,0,0-1,1.29,1.68,1.68,0,0,0,.17.78.22.22,0,0,0,.2.1c1.36,0,3.29,0,3.81,0s.71,0,.81-.3a2.28,2.28,0,0,0,.14-.56c.08-.12.56-.07.66,0,0,.53,0,1,0,2.07s0,1.57,0,1.94a.76.76,0,0,1-.66,0,3.44,3.44,0,0,0-.14-.59c-.1-.28-.39-.3-1-.32s-1.64,0-2.72,0c-3.46,0-4.42,0-4.91.07a.5.5,0,0,0-.48.3c-.05.19-.08.46-.13.74A.77.77,0,0,1,67.17,301.5Z"/><path class="cls-3" d="M69.59,289.51a2.08,2.08,0,0,1,.12,1.29,1.1,1.1,0,0,1-.76.59,1.29,1.29,0,0,1-.86-.1,2.23,2.23,0,0,1-.41-1.32,1.37,1.37,0,0,1,.22-.81,1.57,1.57,0,0,1,.66-.14A1.46,1.46,0,0,1,69.59,289.51ZM77.8,288c0,.3,0,.95,0,2.1,0,.94,0,1.57,0,2-.09.05-.58.09-.66,0a3.85,3.85,0,0,0-.15-.66c-.07-.22-.22-.23-.65-.25s-1.37,0-2.16,0H72.65a.76.76,0,0,0-.42.12,1.85,1.85,0,0,0-.4.73.82.82,0,0,1-.58-.05,12.58,12.58,0,0,0-.59-3.05h5.62c.49,0,.64-.11.71-.31a3.41,3.41,0,0,0,.15-.68A1,1,0,0,1,77.8,288Z"/><path class="cls-3" d="M77,286.82c-.07-.23-.34-.32-.68-.35-.51,0-1.83,0-2.62,0-.42,0-1,0-1.22,0s-.37.15-.61.83a2.43,2.43,0,0,1-.56-.09,12.13,12.13,0,0,0-.74-2.88.17.17,0,0,1,.12-.08l.93,0a.06.06,0,0,0,0-.08,4.15,4.15,0,0,1-1-2.17,2,2,0,0,1,.93-1.77,3.49,3.49,0,0,1,2-.48c1.1,0,2.39,0,3,0a.38.38,0,0,0,.29-.13,2,2,0,0,0,.27-.85,1.17,1.17,0,0,1,.66.08c0,.28,0,.85,0,2,0,.94,0,1.28,0,1.86a1.34,1.34,0,0,1-.66,0,4.22,4.22,0,0,0-.12-.46.43.43,0,0,0-.42-.27,25,25,0,0,0-3.54.07,1.15,1.15,0,0,0-.78.51,1.16,1.16,0,0,0-.18.72,1.6,1.6,0,0,0,.22.78.4.4,0,0,0,.28.14l3.86,0c.44,0,.53-.13.58-.35a3.7,3.7,0,0,0,.1-.49,1.26,1.26,0,0,1,.66.05c0,.66,0,1.27,0,2,0,1.15,0,1.59,0,2a1.23,1.23,0,0,1-.66,0C77.11,287.16,77.09,287,77,286.82Z"/><path class="cls-3" d="M75.8,271.38a1.8,1.8,0,0,1,.63.1A4.24,4.24,0,0,1,78,274.63a3.16,3.16,0,0,1-.81,2.28,3.82,3.82,0,0,1-2.79,1,3.53,3.53,0,0,1-3.08-1.6,4.09,4.09,0,0,1-.59-2,2.69,2.69,0,0,1,2.5-2.74c.08,0,.2-.19.24-.29a1.37,1.37,0,0,1,.52.13,32.14,32.14,0,0,1,.37,4.22c0,.05.12.08.17.08A2.12,2.12,0,0,0,75.8,275a2.15,2.15,0,0,0,.54-1.59,3.13,3.13,0,0,0-.66-2S75.75,271.38,75.8,271.38Zm-2.47,4.36a.14.14,0,0,0,.12-.12,14.77,14.77,0,0,0,0-1.79.25.25,0,0,0-.16-.14c-1.1.07-1.84.44-1.84,1.09S72.27,275.74,73.33,275.74Z"/><path class="cls-3" d="M73,265.42a1.79,1.79,0,0,1,.05.65,2,2,0,0,0-1.44.72,1.34,1.34,0,0,0-.18.71.72.72,0,0,0,.69.8c.44,0,.69-.15,1.35-1.64.6-1.32,1.17-1.78,2.12-1.78,1.52,0,2.39,1.46,2.39,3.05a7.16,7.16,0,0,1-.34,2.18c-.31.07-1.9.27-2.14.29a1.94,1.94,0,0,1-.2-.68A2.88,2.88,0,0,0,77,268.64a1.9,1.9,0,0,0,.24-.93c0-.54-.29-.85-.66-.85s-.71.31-1.07,1.07c-.83,1.77-1.49,2.28-2.52,2.28-1.22,0-2.25-1-2.25-2.91a10.57,10.57,0,0,1,.08-1.23,6.05,6.05,0,0,0,.11-.85A17.56,17.56,0,0,0,73,265.42Z"/><path class="cls-3" d="M75.8,257.24a1.8,1.8,0,0,1,.63.1A4.24,4.24,0,0,1,78,260.49a3.16,3.16,0,0,1-.81,2.28,3.82,3.82,0,0,1-2.79,1,3.53,3.53,0,0,1-3.08-1.6,4.09,4.09,0,0,1-.59-2,2.69,2.69,0,0,1,2.5-2.74c.08,0,.2-.19.24-.29a1.37,1.37,0,0,1,.52.13,32.14,32.14,0,0,1,.37,4.22s.12.08.17.08a2.12,2.12,0,0,0,1.32-.66,2.15,2.15,0,0,0,.54-1.59,3.13,3.13,0,0,0-.66-2S75.75,257.24,75.8,257.24Zm-2.47,4.36a.14.14,0,0,0,.12-.12,14.77,14.77,0,0,0,0-1.79.25.25,0,0,0-.16-.14c-1.1.07-1.84.44-1.84,1.09S72.27,261.6,73.33,261.6Z"/><path class="cls-3" d="M68.41,244.94a3.78,3.78,0,0,0-.44,1.93c0,1.79,1.39,3,4.4,3,2.16,0,4.69-1,4.69-3.74a2.27,2.27,0,0,0-.51-1.55,6.88,6.88,0,0,0-1.71-1.34,1.14,1.14,0,0,1,.4-.58,5.92,5.92,0,0,1,2.39,1.44,6.92,6.92,0,0,1,.42,2.51c0,3.82-1.84,6.09-5.51,6.09a4.94,4.94,0,0,1-4.62-2.79,7.78,7.78,0,0,1-.7-3.42c0-1.42.26-2.78.29-3.49a20.5,20.5,0,0,0,2.86.26c.12.06.15.67.07.69C69.42,244.14,68.81,244.25,68.41,244.94Z"/><path class="cls-3" d="M72.47,238.38a1.4,1.4,0,0,0-.53,1.17,1.18,1.18,0,0,0,.26.79,7.77,7.77,0,0,0,1,.56c.07.08-.19.69-.3.69a3.89,3.89,0,0,1-1.17-.37,6.21,6.21,0,0,1-1.08-2.71,2.44,2.44,0,0,1,1-2,3,3,0,0,1,1.71-.44c.8,0,1.92.05,2.61.05.34,0,.63-.11.63-.45a1.86,1.86,0,0,0-.09-.6,2,2,0,0,1,.75.11A3.42,3.42,0,0,1,78,237c0,.56-.2.94-.51,1l-.3.08s0,.07,0,.09a4.69,4.69,0,0,1,.81,1.91,1.56,1.56,0,0,1-.4,1,2.3,2.3,0,0,1-1.7.69,3.09,3.09,0,0,1-1-.28c-.3-.54-.81-2.69-1.06-3.3a.33.33,0,0,0-.19-.14.75.75,0,0,0-.22,0A1.43,1.43,0,0,0,72.47,238.38Zm1.89-.17a14.14,14.14,0,0,0,.56,1.44,1.42,1.42,0,0,0,.54.13,1.09,1.09,0,0,0,1.19-1.11.6.6,0,0,0-.1-.39.38.38,0,0,0-.29-.11c-.54,0-1.52,0-1.81,0C74.41,238.14,74.36,238.17,74.36,238.21Z"/><path class="cls-3" d="M71.52,227.42a3.38,3.38,0,0,1,2.25-.8,3.74,3.74,0,0,1,3.1,1.41A6.4,6.4,0,0,1,78,230.94a5.63,5.63,0,0,1-.24,1.67,2.59,2.59,0,0,0,0,1.07s-.1.18-.15.18c-.41-.05-2.24-.1-4.32-.1-2.89,0-4.43,0-4.91.09-.25,0-.39.08-.45.37a5.44,5.44,0,0,0-.12.69,1.13,1.13,0,0,1-.63,0,15.79,15.79,0,0,0-.61-3.42.62.62,0,0,1,.36-.12c.29.15.49.19,2.08.19h2.35c.07,0,.07-.05.05-.09a6.21,6.21,0,0,1-.72-2.11A2.47,2.47,0,0,1,71.52,227.42Zm.56,4s.15.1.24.1c.94,0,2.59,0,3.55,0a1,1,0,0,0,.71-.27,1.6,1.6,0,0,0,.42-1.06.93.93,0,0,0-.44-.81,3.28,3.28,0,0,0-1.87-.48,3.53,3.53,0,0,0-2,.53,1.56,1.56,0,0,0-.71,1.42A1.37,1.37,0,0,0,72.08,231.43Z"/><path class="cls-3" d="M71.52,218.54a3.38,3.38,0,0,1,2.25-.8,3.74,3.74,0,0,1,3.1,1.41A6.35,6.35,0,0,1,78,222.06a5.63,5.63,0,0,1-.24,1.67,2.59,2.59,0,0,0,0,1.07s-.1.18-.15.18c-.41,0-2.24-.1-4.32-.1-2.89,0-4.43,0-4.91.09-.25,0-.39.08-.45.37a5.44,5.44,0,0,0-.12.69,1.13,1.13,0,0,1-.63,0,15.68,15.68,0,0,0-.61-3.42.55.55,0,0,1,.36-.12c.29.15.49.19,2.08.19h2.35c.07,0,.07-.05.05-.09a6.21,6.21,0,0,1-.72-2.11A2.47,2.47,0,0,1,71.52,218.54Zm.56,4s.15.1.24.1c.94,0,2.59,0,3.55,0a1,1,0,0,0,.71-.27,1.6,1.6,0,0,0,.42-1.06,1,1,0,0,0-.44-.82,3.36,3.36,0,0,0-1.87-.47,3.53,3.53,0,0,0-2,.53,1.56,1.56,0,0,0-.71,1.42A1.41,1.41,0,0,0,72.08,222.55Z"/><path class="cls-3" d="M72.47,213.16a1.4,1.4,0,0,0-.53,1.17,1.18,1.18,0,0,0,.26.79,7.77,7.77,0,0,0,1,.56c.07.08-.19.69-.3.69a3.89,3.89,0,0,1-1.17-.37,6.21,6.21,0,0,1-1.08-2.71,2.44,2.44,0,0,1,1-2,3,3,0,0,1,1.71-.44c.8,0,1.92.05,2.61.05.34,0,.63-.11.63-.45a1.86,1.86,0,0,0-.09-.6,2,2,0,0,1,.75.11A3.42,3.42,0,0,1,78,211.8c0,.56-.2.94-.51,1l-.3.08s0,.07,0,.09a4.69,4.69,0,0,1,.81,1.91,1.56,1.56,0,0,1-.4,1,2.3,2.3,0,0,1-1.7.69,3.09,3.09,0,0,1-1-.28c-.3-.55-.81-2.69-1.06-3.3a.33.33,0,0,0-.19-.14.75.75,0,0,0-.22,0A1.43,1.43,0,0,0,72.47,213.16Zm1.89-.17a14.14,14.14,0,0,0,.56,1.44,1.42,1.42,0,0,0,.54.13,1.09,1.09,0,0,0,1.19-1.11.6.6,0,0,0-.1-.39.38.38,0,0,0-.29-.1c-.54,0-1.52,0-1.81,0C74.41,212.92,74.36,213,74.36,213Z"/><path class="cls-3" d="M71,204a3.56,3.56,0,0,0,.19-1.07c0-.58,0-.74-.34-1,0-.05.1-.29.15-.29a2.4,2.4,0,0,1,1.14.46.77.77,0,0,1,.2.61,1.47,1.47,0,0,1,0,.33s0,0,.07,0a2.43,2.43,0,0,1,.61-.08,2.38,2.38,0,0,1,2.08,1,4.32,4.32,0,0,1,.64,2c0,.08,0,.61,0,.67s.14.22.26.22.39-.18.42-.55a21.59,21.59,0,0,1,.35-3,1.82,1.82,0,0,1,1.78-1.39,3.45,3.45,0,0,1,3,2.28,5.32,5.32,0,0,1,.46,2.13,4.4,4.4,0,0,1-.49,2.1A2,2,0,0,1,80,209.44a1.61,1.61,0,0,1-.66-.1,10.33,10.33,0,0,1-1-1.53s0,0,0,0a1.61,1.61,0,0,1-1.42,1.1,1.36,1.36,0,0,1-.29-.06,14.83,14.83,0,0,0-.81-1.41s-.1,0-.1,0a2.45,2.45,0,0,1-4.33.68,4.49,4.49,0,0,1-.66-2.27A5.86,5.86,0,0,1,71,204ZM72.84,207c1.61,0,2.2-.53,2.2-1.19a.77.77,0,0,0-.25-.56,2.31,2.31,0,0,0-1.32-.34c-1.17,0-2.12.34-2.12,1.15C71.35,206.63,71.88,207,72.84,207Zm7-3.47a1,1,0,0,0-.88.59,7.28,7.28,0,0,0-.39,2.64.8.8,0,0,0,.12.44,1,1,0,0,0,.79.46,1.22,1.22,0,0,0,1-.41,2.66,2.66,0,0,0,.62-1.83C81,204.07,80.39,203.57,79.8,203.57Z"/><path class="cls-3" d="M75.8,194.67a2.07,2.07,0,0,1,.63.1A4.24,4.24,0,0,1,78,197.92a3.14,3.14,0,0,1-.81,2.28,3.78,3.78,0,0,1-2.79,1,3.54,3.54,0,0,1-3.08-1.59,4.13,4.13,0,0,1-.59-2,2.7,2.7,0,0,1,2.5-2.74c.08,0,.2-.19.24-.29a1.39,1.39,0,0,1,.52.14,32,32,0,0,1,.37,4.21s.12.08.17.08a2.08,2.08,0,0,0,1.86-2.25,3.15,3.15,0,0,0-.66-2S75.75,194.67,75.8,194.67ZM73.33,199a.15.15,0,0,0,.12-.12,14.9,14.9,0,0,0,0-1.8.23.23,0,0,0-.16-.13c-1.1.07-1.84.44-1.84,1.08S72.27,199,73.33,199Z"/><path class="cls-3" d="M67.48,190.43c0-.41,0-1.07,0-2.52s0-2.14,0-2.56a.94.94,0,0,1,.66,0,3.79,3.79,0,0,0,.15.81c.12.34.35.41.83.41.78,0,1.74,0,2.69,0,.07,0,.1,0,.12-.08a19.52,19.52,0,0,0,0-2.13c0-1.12,0-1.63,0-1.85,0,0-.06-.1-.11-.1-.83,0-2,0-2.91,0a.65.65,0,0,0-.6.33,3.91,3.91,0,0,0-.18,1c-.09.08-.6.08-.66,0,0-.74,0-1.27,0-2.61s0-1.94,0-2.47a.84.84,0,0,1,.66,0,2.82,2.82,0,0,0,.17.85c.11.3.3.41.83.42,1.11,0,1.86,0,3.72,0,1.15,0,2.47,0,3.23,0,.41,0,.69-.07.83-.38a5.46,5.46,0,0,0,.22-1.1,1.06,1.06,0,0,1,.66.09c0,.42,0,1.27,0,2.59s0,2.23,0,2.6a.8.8,0,0,1-.66,0,6.85,6.85,0,0,0-.15-.86c-.09-.27-.32-.41-.8-.42-.81,0-1.89,0-3,0,0,0-.12,0-.12.08,0,.34,0,1.17,0,1.93a16.42,16.42,0,0,0,0,2.12.22.22,0,0,0,.1,0H76c.47,0,.76-.06.9-.46a9.54,9.54,0,0,0,.2-1,.92.92,0,0,1,.66.07c0,.31,0,1.12,0,2.76,0,1.34,0,2.18,0,2.5a1,1,0,0,1-.66,0c0-.38-.1-.55-.15-.79-.12-.46-.38-.56-1-.61-.26,0-1.83,0-3.34,0s-3,0-3.46,0-.75.1-.83.44a4.39,4.39,0,0,0-.17.93A1.14,1.14,0,0,1,67.48,190.43Z"/><path class="cls-3" d="M74.25,170.23a3.38,3.38,0,0,1,3,1.55,4.74,4.74,0,0,1,.68,2.37,3.63,3.63,0,0,1-6.58,2.25,4.79,4.79,0,0,1-.69-2.45A3.43,3.43,0,0,1,74.25,170.23Zm-2.68,4.57c.29.44.9.67,2.19.67,2.31,0,3.45-.71,3.45-1.64a.9.9,0,0,0-.17-.52c-.34-.38-1-.6-2.32-.6-2,0-3.28.61-3.28,1.65A1,1,0,0,0,71.57,174.8Z"/><path class="cls-3" d="M72,166.14a.19.19,0,0,0,.1.06l2.54,0a6.12,6.12,0,0,0,1.27-.07.85.85,0,0,0,.68-.89,1.5,1.5,0,0,0-.26-.93,1.43,1.43,0,0,1,.68,0,2.59,2.59,0,0,1,.92,2.07,1.9,1.9,0,0,1-.85,1.77,3.36,3.36,0,0,1-1.83.27H72.18a.19.19,0,0,0-.17.08l-.05.87a4.24,4.24,0,0,1-.78-.17c-.05-.22-.13-.56-.18-.7a.26.26,0,0,0-.16-.08c-.1,0-1,0-1.42,0a9,9,0,0,0-.91-1.86,2.09,2.09,0,0,1-.05-.42c.44.05,1.32.06,2.33.06.07,0,.12,0,.12-.06,0-.29,0-1.43-.07-1.92a10.48,10.48,0,0,0,1.19.19C72,164.92,72,165.56,72,166.14Z"/><path class="cls-3" d="M71.45,163.69a14.9,14.9,0,0,0-.94-3.1s.11-.17.15-.17.57,0,.88,0c0,0,.07-.08,0-.12a4.75,4.75,0,0,1-.91-2.2,2.38,2.38,0,0,1,.79-1.79,3.45,3.45,0,0,1,2.3-.83,3.69,3.69,0,0,1,3.08,1.39A5.28,5.28,0,0,1,78,160.05v.34s0,.05.08.05c.31,0,1.47,0,1.88,0s.63-.12.73-.51c0-.22.08-.64.15-1a1.24,1.24,0,0,1,.64.1v.45a39.1,39.1,0,0,0,.22,4.39,1.09,1.09,0,0,1-.67,0,4,4,0,0,0-.21-.86c-.11-.28-.38-.33-.81-.33s-2,0-3.57,0c-1.84,0-2.76,0-3.55,0-.26,0-.46.07-.56.31a3.86,3.86,0,0,0-.22.71A1.66,1.66,0,0,1,71.45,163.69Zm.83-3.39a.39.39,0,0,0,.27.17c.49,0,2.52,0,3.25,0a1.26,1.26,0,0,0,.93-.44,1.48,1.48,0,0,0,.33-.95,1.05,1.05,0,0,0-.41-.81,3.06,3.06,0,0,0-1.86-.49,3.36,3.36,0,0,0-2.07.54,1.49,1.49,0,0,0-.62,1.27A1.68,1.68,0,0,0,72.28,160.3Z"/><path class="cls-3" d="M74.25,146.55a3.38,3.38,0,0,1,3,1.55,4.74,4.74,0,0,1,.68,2.37,3.63,3.63,0,0,1-6.58,2.25,4.79,4.79,0,0,1-.69-2.45A3.43,3.43,0,0,1,74.25,146.55Zm-2.68,4.57c.29.44.9.67,2.19.67,2.31,0,3.45-.71,3.45-1.64a.9.9,0,0,0-.17-.52c-.34-.38-1-.59-2.32-.59-2,0-3.28.6-3.28,1.64A1,1,0,0,0,71.57,151.12Z"/><path class="cls-3" d="M72,142.46a.19.19,0,0,0,.1.06l2.54,0a6.12,6.12,0,0,0,1.27-.07.85.85,0,0,0,.68-.89,1.5,1.5,0,0,0-.26-.93,1.43,1.43,0,0,1,.68,0,2.6,2.6,0,0,1,.92,2.07,1.9,1.9,0,0,1-.85,1.77,3.36,3.36,0,0,1-1.83.27H72.18a.19.19,0,0,0-.17.08l-.05.87a4.24,4.24,0,0,1-.78-.17c-.05-.22-.13-.56-.18-.7a.32.32,0,0,0-.16-.08c-.1,0-1,0-1.42,0a9,9,0,0,0-.91-1.86,2.09,2.09,0,0,1-.05-.42c.44,0,1.32.06,2.33.06.07,0,.12,0,.12-.06,0-.29,0-1.43-.07-1.92a10.48,10.48,0,0,0,1.19.19C72,141.24,72,141.88,72,142.46Z"/><line class="cls-4" x1="42.99" y1="98.2" x2="42.99" y2="128.73"/><line class="cls-4" x1="42.99" y1="357.08" x2="42.99" y2="387.6"/><circle class="cls-1" cx="42.65" cy="331.01" r="14.31"/><path class="cls-5" d="M35.06,327.65v-1.6H36.4v1.6h.67v.61H36.4V330c.28-.2.54-.45.82-.66l.14.06a8.39,8.39,0,0,1-1,1.56v3.84H35.06v-2.67c-.43.36-.88.69-1.35,1l-.35-1.62a7.25,7.25,0,0,0,1.7-.7v-2.57h-.37a4,4,0,0,1-1,1.67l-.12,0a9.28,9.28,0,0,0,.19-2c0-.49,0-1,0-1.45H34.9c0,.42,0,.83-.09,1.25Zm3.81.87v-.95H37.5v-.65h1.37V326h1.44v.89h1.34v.65H40.31v.95h1.77v.65H36.92v-.65ZM37.1,331a5.18,5.18,0,0,1,1.56.52,1.23,1.23,0,0,1,.6.9c.05.47-.45.66-.72.66a.74.74,0,0,1-.41-.11,2.36,2.36,0,0,1-.4-.79,4.29,4.29,0,0,0-.71-1.11Zm2.61-.86v-.82h1.44v.82H42v.63h-.88v3.07a1.23,1.23,0,0,1-.09.5c-.15.31-1.52.42-1.89.42-.05,0-.22,0-.26,0s.06-.45-.35-.71a4.84,4.84,0,0,0-1.08-.24v-.13c.5,0,1,0,1.5,0a1.68,1.68,0,0,0,.64-.08.29.29,0,0,0,.08-.21v-2.62H37.09v-.63Z"/><path class="cls-5" d="M47,326a4.26,4.26,0,0,1-.48.62H49l.63-.48,1.67.46c-.18.1-.39.18-.57.28a.34.34,0,0,0-.09.08l-.17.16a5.89,5.89,0,0,1-.55.44,3,3,0,0,1-.54.33l-1.42.6h1.79l.42-.38,1.48.33-.48.43v2.94H49.68v-.61H45.6v1.66a.74.74,0,0,0,.07.37c.07.13.29.21.42.26a12.64,12.64,0,0,0,2.32.14,3.69,3.69,0,0,0,2-.35A7.63,7.63,0,0,0,51.46,332l.15,0a3.56,3.56,0,0,0-.31.86c0,.44.59.36.59.53a.28.28,0,0,1-.06.15,1.79,1.79,0,0,1-.91.73,9.42,9.42,0,0,1-2.77.29,12.34,12.34,0,0,1-3-.26c-.26-.09-.76-.28-.85-.57a2.72,2.72,0,0,1-.11-.75v-4.86l-.79.3,0-.08A5.94,5.94,0,0,0,45,326Zm-1.38,2.17v.32h1.58a11.41,11.41,0,0,0,1.35-1.24H45.85a9.59,9.59,0,0,1-1.65.92ZM47,330.58v-1.42H45.6v1.42Zm2.69,0v-1.42H48.32v1.42Z"/><path class="cls-6" d="M82.16,321.75l.47.57a1.61,1.61,0,0,1,.26,1.58l-.18.47c0,.15-.11.29-.17.44l-.73-1.92-2,.75L81,321.86,79.48,321h0a1.62,1.62,0,0,1,2.27.23l.4.49Z"/><path class="cls-6" d="M82.19,319.15,82,318.9l.51-.43.21.26a2.33,2.33,0,0,1-.33,3.27l-.42-.51A1.67,1.67,0,0,0,82.19,319.15Z"/><path class="cls-7" d="M64.46,326.73a.46.46,0,0,0-.1.65c.1.14.21.28.32.41a10,10,0,0,0,7.5,3.68,11.1,11.1,0,0,0,2.3-.18,19.15,19.15,0,0,1,5.6-9.92l-.6-.33a1.78,1.78,0,0,0-.37.45l-.62,1.1a10,10,0,0,1-11.68,4.66l-1.94-.59A.46.46,0,0,0,64.46,326.73Z"/><path class="cls-8" d="M80.08,321.37a19.15,19.15,0,0,0-5.6,9.92,10.94,10.94,0,0,0,8.06-6.48l-.73-1.92-2,.75L81,321.86Z"/></g></g></svg>