<svg xmlns="http://www.w3.org/2000/svg" viewBox="0 0 84.16 384.46"><defs><style>.cls-1{fill:#231f20;}.cls-2{fill:#a98d66;}.cls-3{fill:#b89161;}.cls-4{fill:none;stroke:#000;stroke-miterlimit:10;}.cls-5{fill:#fff;}</style></defs><title>資產 44</title><g id="圖層_2" data-name="圖層 2"><g id="work"><circle class="cls-1" cx="42.21" cy="40.78" r="31.47"/><path class="cls-2" d="M.73,46.24c0-.39-.61-.17-.73-.22C.25,46.65.89,46.2.73,46.24Z"/><polygon class="cls-2" points="3.45 52.09 3.17 52.06 4.02 52.76 3.45 52.09"/><path class="cls-2" d="M5.41,57.54c.76-.94-.94-1.88-1-3l.16-.24-1-.15C4.23,55.31,5.34,56.6,5.41,57.54Z"/><path class="cls-2" d="M4.79,61.4c.27-.38.64.45-.24-.74a.74.74,0,0,1,0,.18A3.7,3.7,0,0,1,4.79,61.4Z"/><path class="cls-2" d="M4.52,60.84c-.32-.56-.11.54,0,0Z"/><path class="cls-2" d="M6.21,63.28l-.77-.52c-.12.28.25,1-.06.81C6,64.2,6.14,63.91,6.21,63.28Z"/><path class="cls-2" d="M7.3,63.53l-.36-.28C6.89,63.37,6.92,63.49,7.3,63.53Z"/><path class="cls-2" d="M6.16,62.66l.78.59c.08-.19.36-.39-.33-.29C6.92,62.86,6.56,62.87,6.16,62.66Z"/><path class="cls-2" d="M6,62.13c-.07-.5-.2-1.11.52-.57C5.68,60.25,5.09,60.82,6,62.13Z"/><path class="cls-2" d="M6.55,57.33a5,5,0,0,1,0-.66l-.51-.32C6.31,56.52,6.24,57.51,6.55,57.33Z"/><path class="cls-2" d="M8.84,67.9c.21-.1.29-.6.48-.83l-.59-.33C8.81,67.09,9.08,67.65,8.84,67.9Z"/><path class="cls-2" d="M9.32,67.07l.88.47C9.73,66.87,9.49,66.87,9.32,67.07Z"/><polygon class="cls-2" points="8.38 63 6.88 62.2 8.54 63.23 8.38 63"/><polygon class="cls-2" points="11.21 70.62 10.46 70.59 11.7 70.73 11.21 70.62"/><path class="cls-2" d="M13,72.25c-.6,0-.08.9-.59.82a4.13,4.13,0,0,0,1.83.53A2.23,2.23,0,0,1,13,72.25Z"/><path class="cls-2" d="M15.15,73.77a5.43,5.43,0,0,0-1-.17A2.37,2.37,0,0,0,15.15,73.77Z"/><path class="cls-2" d="M11.14,68.79a1,1,0,0,0,0,1l.22-.7Z"/><path class="cls-2" d="M11.38,69v0l.51.59Z"/><path class="cls-2" d="M11.07,68.73l.07.06C11.16,68.73,11.16,68.7,11.07,68.73Z"/><path class="cls-2" d="M9.23,65.26c.62.21,1.59.81,1.38-.34C10,64.9,10.15,65.56,9.23,65.26Z"/><path class="cls-2" d="M11.37,67.87c-.19-.26-.33-.56-.5-.83-.12.12-.2.42-.5.32C10.71,67.54,11,67.72,11.37,67.87Z"/><polygon class="cls-2" points="11.84 68.07 11.37 67.87 11.57 68.17 11.84 68.07"/><path class="cls-2" d="M14.26,72.21a2.87,2.87,0,0,1,1.29.65,7.46,7.46,0,0,0-1.14-1.23C14.22,71.73,13.79,71.84,14.26,72.21Z"/><path class="cls-2" d="M12.85,70.67l.1,0C12.94,70.63,12.92,70.59,12.85,70.67Z"/><polygon class="cls-2" points="19.65 75.91 19.65 75.76 19.57 75.85 19.65 75.91"/><path class="cls-2" d="M14.42,71.48a.89.89,0,0,0-.84-.42,4.73,4.73,0,0,1,.83.57C14.49,71.58,14.54,71.54,14.42,71.48Z"/><path class="cls-2" d="M16.47,74.45c-.1-.23-.24-.47-.36-.73C16.13,74,16.3,74.54,16.47,74.45Z"/><path class="cls-2" d="M12.92,70.94l-.06,0C12.86,71.11,12.89,71.05,12.92,70.94Z"/><path class="cls-2" d="M12.92,70.94a2.19,2.19,0,0,0,.66.12,3.36,3.36,0,0,0-.63-.35A.91.91,0,0,1,12.92,70.94Z"/><path class="cls-2" d="M23.08,73.15a1.16,1.16,0,0,1-1.91-.58c-.94-.12-1.6,1.8-1.52,3.19.17-.21.28-.37,1.29-.21-.15-.4-1.32-1.77-.38-1.77,1.15.43.72.69,1.06,1.28,0-.88,1.88-.17,2.18-1.26l-1.08-.17C22.79,73.48,23.25,73.43,23.08,73.15Z"/><path class="cls-2" d="M18.19,74.66l-.37-.16A3.57,3.57,0,0,1,18.49,76c.71.14.94,0,1.08-.1L18,74.66Z"/><path class="cls-2" d="M16.39,73.45c.63-.28,1.56,0,1.52-.87-.91-.64-.94-.07-1.64-.28,1.5,1.07-.63-.07.16,1.09a4.37,4.37,0,0,1-.88-.53,9,9,0,0,1,.56.86v-.06h0c0-.11,0-.17,0-.07h0a.85.85,0,0,1,.22-.13c.33.45,0,.18-.22.13l-.07.06h0c.54.33,1.15.56,1.72.84A8.06,8.06,0,0,0,16.39,73.45Z"/><path class="cls-2" d="M12.28,64.8a.21.21,0,0,1-.08.14C12.33,65,12.4,65,12.28,64.8Z"/><path class="cls-2" d="M12.42,65.61c-.14,0-.41,0-.62-.33s.25-.19.4-.34c-.29-.09-.91-.4-.66.41l.14.05c.27.69.24,1.95.09,1.91A5,5,0,0,0,12.42,65.61Z"/><path class="cls-2" d="M14.3,69.5a12.37,12.37,0,0,0,1.32.78l-.19-.9-.2.27C14.7,69,14.56,69.38,14.3,69.5Z"/><path class="cls-2" d="M19.63,76.28l-.54.46c.42-.09.87-.23,1.29-.35Z"/><polygon class="cls-2" points="21.44 77.23 21.08 77.71 21.73 77.67 21.44 77.23"/><path class="cls-2" d="M69.58,19.61l-.37-.19A1.18,1.18,0,0,0,69.58,19.61Z"/><path class="cls-2" d="M71.14,21.88l.28-.1C71.22,21.76,71.09,21.78,71.14,21.88Z"/><path class="cls-2" d="M68.48,73.41c.87,0,2,.18,1.54-.27l-.59-.36A1.63,1.63,0,0,1,68.48,73.41Z"/><path class="cls-2" d="M80.15,43.6l-.21.16.57.47C80.4,44,80.3,43.82,80.15,43.6Z"/><path class="cls-2" d="M77.47,43l.44-.73A2.36,2.36,0,0,0,77.47,43Z"/><path class="cls-2" d="M57.79,10.63l-.68.39C57.71,11.32,57.59,10.9,57.79,10.63Z"/><path class="cls-2" d="M41.41,82.48a4.34,4.34,0,0,0,1.45.43C42.15,82.52,41.6,82,41.41,82.48Z"/><path class="cls-2" d="M75.84,16.41c-.27-.15-.45-.17-.56-.07C75.55,16.49,75.75,16.55,75.84,16.41Z"/><path class="cls-2" d="M44.54,82.82a2.15,2.15,0,0,0-.32-.13,3.14,3.14,0,0,1-1.36.22A1.37,1.37,0,0,0,44.54,82.82Z"/><path class="cls-2" d="M11.46,25.17c-.05,0-.08.06-.12.07S11.44,25.25,11.46,25.17Z"/><path class="cls-2" d="M1.2,40.37a4.6,4.6,0,0,1,0-.78A1.61,1.61,0,0,0,1.2,40.37Z"/><path class="cls-2" d="M28.84,80.85c-.43-.1-.09.05,0,0Z"/><path class="cls-2" d="M27.77,77.77a.45.45,0,0,0,.27-.24A.59.59,0,0,1,27.77,77.77Z"/><path class="cls-2" d="M48.2,78.36h0C48.1,78.25,48.12,78.27,48.2,78.36Z"/><path class="cls-2" d="M28.32,80.36a2.45,2.45,0,0,0,.46.36A3.3,3.3,0,0,0,28.32,80.36Z"/><path class="cls-2" d="M28.3,80.68,28,80.5C27.87,80.58,27.89,80.66,28.3,80.68Z"/><path class="cls-2" d="M29.43,81a2.74,2.74,0,0,1-.65-.29c.07.07.09.12.06.13Z"/><path class="cls-2" d="M33.07,5.76l-.1,0C32.68,6.09,32.83,6,33.07,5.76Z"/><path class="cls-2" d="M70.71,61.31s0,0,0,0l.05,0Z"/><path class="cls-2" d="M71.06,60c.36.9.08,1.11-.3,1.35l1.79.73C72.06,61.35,71.57,60.66,71.06,60Z"/><path class="cls-2" d="M64.94,15l.28,1c-1.45,0-1.78-.7-1.72.44.7-.71,1.43-.25,2,.33s1.25,1.15,2,.51l.09.71c-.1-.13-.21-.07-.31-.21.07,1.46,1.68-.36,2.42,1,.21.51.2,1-.21.84l1.13.61c.17.3-.16.43-.34.15.4.44.73.92,1.11,1.39l-.06,0a6.32,6.32,0,0,1,1.48.4c0,.54-.31-.09-.46.15.31.19.65.38,1,.6a.47.47,0,0,1-.69.22,1.5,1.5,0,0,1-.74-.67c-.62.92-.4,1,0,1.17s.87.44.79,1.58l-.65-.69c-.75,1.07-.07,1.49-.26,2.67.24-.34.7-2.59,1.63-1.89,0,.34.13.71.75,1.06-.66.3-.3.75,0,1.38l-.9.32c.52.58,1,.35,1.53.61.22.82-.41,1.22-1,1.6.21,1.32.89-1.25,1.49.22a2.68,2.68,0,0,0,.36,1.5c.26.45.67.9,1,1.52-.19.86-.6,0-.82.32l.87.55c0,.17-.23.16-.35.15.4.53,1-.12,1.38.78.53.05.27.6,0,1.24s-.62,1.38,0,1.92c-.25.31-.6-.1-1,0a16.1,16.1,0,0,0,1.71,2.65l-.66,1.13c.74-.81,1.57.27,2.24,1.32a7.55,7.55,0,0,0,.81-.72,12.19,12.19,0,0,1,.41,1.66c-.18.18-.49,0-.86-.31l.19.31c-.42.53-.93.17-1.42-.27l.66-.51A2.89,2.89,0,0,0,78.18,43a1.16,1.16,0,0,1,.24.51c-.15-.11-.29-.18-.39-.15s.12.22.33.48l-1.11.24.41.12L76.75,46c.22.37.48.75.73,1.15a12.94,12.94,0,0,1,.65,1.23,6,6,0,0,1,.61,3.07c-.57-.77-1.19-.47-2.07-.76,1.11-.33,0-1.78.44-2.82-.24.55-.64.33-.76.16l.42,2.17c-.72-.24-.64.27-1.12.67,1.56,0,.47,1.73.63,2.68-.49-.13-.91-.49-.47-1.4-1.43.64,1.24,2-.14,2.67.09-.24.21-.33,0-.52.17.71-.74,1.88-1,1.38l.09-.23a11.63,11.63,0,0,0-.65,1.32,15.82,15.82,0,0,0-.69,1.52c-.38,1-.51,2-.06,2.46A13.33,13.33,0,0,1,72,59.53a45.32,45.32,0,0,1,1.79,4.93c-.73-.86-3.38-1.62-3.11-3.1a2,2,0,0,0-.95,1.38c.29-.09,1.68.46,1.52.81a9,9,0,0,0-2.57.4c.44-.15,1.45,1.31,1,1.78-.12-.25-1.29-1.1-1.27-1.4a20.37,20.37,0,0,1,.15,2.32c.07-.49-1-1-1.56-1.15.35.13-1,.9-1.16,1.31l.73-.17c-1.4,1,.27,3-1.25,4.07,0-.42-.9-2-1.73-1.63A15.94,15.94,0,0,1,64,71.86a5.3,5.3,0,0,1-.66,3.21l-.54-.24A12.53,12.53,0,0,1,62,76c.08-.73.22-2,.36-3.31s.3-2.48.46-3.22c-.77,0-.49-.38-1.28.19-.54-.21,0-.87.26-1l-2,.94c.3.4.08.85-.16,1.28s-.56.78-.32,1.13a19.5,19.5,0,0,0,1.57-2.16,2.46,2.46,0,0,1,.21,2,2.57,2.57,0,0,1-1.53,1.89c-.56-.16-.55-1.74-.75-2,0,.39-1.07,1.29-1.31,1.14l.38-.8c-.48,0-.66.5-.9.92a.92.92,0,0,1-1.26.47c-.38.08-1.49-.8-1.34-.22.95.86,2.42,4.11,2.29,5.09-.08,0-.7-.06-1.36-.17a5,5,0,0,1-1.69-.53c-.89-.69.29-2.32-.48-2.91a1.24,1.24,0,0,1-.27.83c-.46-.11-.09-.86-.89-.51.14,1-1.72.4-.16,1-.76.5-.92.09-1.9.32.47.58-.44,2.35-1.32,2.81a1.19,1.19,0,0,0-.37-.7c-.46,0-.87.08-1.24.09s-.74-.07-1.09-.11a12.15,12.15,0,0,0-2.22-.08c-.17-.23-1-.49-.64-1-.24.18-.45.52-1,.53-1-.91,1.14-.1.38-1.19-.05.59-1.31.78-2.06,1.13.18.93,1.72.23,2.43-.12,0,1.26-1.27,2.56-3.22,3.08-1.52.23-.57-.86-.85-.69a3,3,0,0,0-2.63.57,1.67,1.67,0,0,1-2.25,0c-.74-1,.3-1.58.22-2.2a2.26,2.26,0,0,1,1.38.46,2.72,2.72,0,0,0,1.11.48l-.93-.5a1.81,1.81,0,0,1,1.62,0c-.64-.74-4.49-.87-6.25-2.19-.43.14-1.12.2-.94.61l.66.1c.4.82-1.47.45-.75,1a10.49,10.49,0,0,1-1.65.2,3.26,3.26,0,0,1-.87-.09,3,3,0,0,1-.82-.47l.14-.95c-.08.26.56.85,1,.74-.67.15-1.3-2-2.33-1.09l.57,1c-1,0-2.58.49-3.47-.4,0,1.07.28,0,.55,1.4-.09-1.49,2.8,1.32,2.29-.43.31,1.47,1.14,1.14,1.86,2.5.07-.3-.18-.68.73-.21a1.14,1.14,0,0,1,.3-.18l.06,0,0,0s.06,0,0,0a1.17,1.17,0,0,1-.33-.6c.71-.49,2.19,0,2.79-.15.51.32-.33.26-.12.67a8.78,8.78,0,0,0,.91-.3c-.12.66,1.25,1.44-.23,1.5l1.24.32a3.14,3.14,0,0,0,2.33.77c.59.22,1.63-.54,1-.09l2-.15v.17a11,11,0,0,0,3-.19,6.18,6.18,0,0,1,3.25.45,5.14,5.14,0,0,1,2.44-.37l.28.56c.82-.25,2.64.16,2.91-.48a1.63,1.63,0,0,0,1.2.52,3.75,3.75,0,0,0,1.56-.28,17.4,17.4,0,0,1,3-1l-.18-.73a10,10,0,0,0,2.93-1.63L58,78.67c.8-.84,2.72-.72,4.24-1.58,0,.28-.4.42-.75.43a2.45,2.45,0,0,0,1.65-.31,5.67,5.67,0,0,0,1.2-1.15,4.06,4.06,0,0,1,2.44-1.82,1.13,1.13,0,0,1,.9-.69.18.18,0,0,0-.07.1l.15-.12a6.69,6.69,0,0,0,.74-.12,1.88,1.88,0,0,0-.66.06,5.46,5.46,0,0,0,1-1.1l.65.41a.7.7,0,0,0,.08-.1c.6-.13.11-.52-.46-.76a2,2,0,0,0,.23-.79c1.09.57.72-1.24,2-.74-.08-.34.32-.89.64-1.48A1.79,1.79,0,0,0,72,67.08c.13.1.29,0,.12.25.48-.33,1-.68,1-1.3l.87.39a15.5,15.5,0,0,0-.19-1.76c.88-.28,1.34-.37,1.46.69.19-2.17.56-1.49.54-3.36l.46.38c.26-.51,0-1.68.61-1.72a2.87,2.87,0,0,0,1.22-1.1,13,13,0,0,0,1.14-2.16c.85-1.61,1.45-3.57,2.48-5-.94,0-.62-.25-.25-.64s.76-.88.12-1.11c.44-.08.77-.48,1,.13,0-1.73,1.27-2.37.26-3.72.43-.13.55.45.81.32-.07-.15-.28-.59,0-.74s.31.3.45.6c.16-1.77-1.09-2.08-2.26-2.32a1.55,1.55,0,0,0,.48-1,1.49,1.49,0,0,0-.63-.89c.4-.27.83-.75.94.31.06-.57.69-3.62-.31-3.65.23-.19,0-.82-.11-1A16.24,16.24,0,0,0,82.11,36l-.13.37c-1.16-.37-.38-1-.69-2h.12c.21-1.23.06-1.47-.06-1.7s-.18-.46-.06-1.7l-.66.29c-1.56.19.33-2.21-.62-3.37l-.26.6c-.33-.27,0-.91.36-1.61a4.62,4.62,0,0,0,.8-1.85c.06-.21.29.16.48.35.09-2.26-1,.1-1.73-1.2.35-.46,1.34-.19,1-1.17.07-.32-.65-.82-1.34-1.42A2.94,2.94,0,0,1,78,19.49c-.17.46-.36.9-1,.48-.68-.77-.29-3.26-1.89-3.3a.44.44,0,0,1,.13-.33c-.76-.46-2-1.74-2.85-1.67.72-1.1-.41-1.81-1.44-2.41s-2-1-1.26-1.87l-2-1.53.2-.14a2.66,2.66,0,0,0-2.74-.84c-.2-.34.14-.36.23-.44-1.6-1.74-2-1.71-4.17-1.67L61.46,5c-.33.06-.9-.62-1.78-1.24a8.47,8.47,0,0,0-1.46-.93,3.4,3.4,0,0,0-1.74-.42.54.54,0,0,1,.36-.23c-1.38,0-2.64-1-3.89-1.64s-2.39-.9-3.1.33a15.75,15.75,0,0,0-1.75.4c2.07.48-.49,1.12.29,1.67-.81.06-2-1.08-1-1.09l.13.16C48.14.68,45,1.16,45.15.26,40.91,0,36.65-.29,32.63.52c.23.31.46.62.69,1-.45.08-.9.2-1.35.3-.42-.15-.7-.69.29-.92-.68-.46-1.5,1-1.45,1.19-2,.11.38-1.43-.2-1.3l-.78.31.22.07c-.51.64-.44,1-1.57,1.42-.78.08-.6-.49-.89-.42,0-.07-.14-.07-.45.14l-1.7.58,1,.53C25.88,4,24.9,4,26,4.54c-.84-.47-2.36.19-3.77.9s-2.56,1.76-3,1.75a3.93,3.93,0,0,1-.48.74,4.38,4.38,0,0,1-.55.66,10.68,10.68,0,0,1-1.42,1.13c.37-.06,1.13.58.18,1.18-.47-.89-1-.77-1.65-.4a2.9,2.9,0,0,1-2.12.73c.64,0,.08.66-.39,1.27s-.76,1.27.15,1.23c-.74.61-.59-.46-1.42-.23a5.26,5.26,0,0,1-1,1.54c-.2.24-.43.46-.66.7l-.67.73a12.1,12.1,0,0,0-2.57,3.32c.21.17.79,0,.83.69-.62.21-1.26.43-1.89.66-.16.58,1,1.13-.18,1.66.26,0,.64-.08.57.3a17.58,17.58,0,0,0-3.11,7.79c-.26,1.4-.61,2.77-.87,4.17a16.26,16.26,0,0,1-.62,2.07c-.27.7-.46,1.4-.8,2.11.53-.76.57-.23.57.35.13-.38.65,0,1,0-.34.76-.73,1.55-1,2.35,1,.39.25,2.53,1.21,2.69l-.22-.72c1.19.86,2.38-1.52,3.83-1.41a.76.76,0,0,1-.33-.85,4.6,4.6,0,0,1,.53-1c.42-.74.78-1.49-.11-2.36.3-.34.45.34.79.17-.63-.45-.66-1-.28-1.84l.14.12a8,8,0,0,1,.7-3c.21-.44.41-.89.65-1.39s.44-1.05.79-1.68H8.1c.29-.55.55-.6.81-.82-.8-1-.61,1.61-1.54.66.82-.19,1.17-1.21,1.54-2.19s.9-1.87,1.74-1.78c.39-.84-.86-.09-.46-.94l.5,0L10.27,25a1.11,1.11,0,0,1,1.35-.36c-.11.11-.11.41-.16.56.85-.43.93-2,1.21-2.14l-.67.63a10.56,10.56,0,0,1,.86-1.8L14,20.15l.58-.87c.21-.28.41-.55.6-.83a8.89,8.89,0,0,0,1-1.77l-.37-.09c.85-1.84,1.35-.82,2.63-2.5v.12a2,2,0,0,1,.89-1.36c-.16.63,1.26,0,1,.74,1.2-1.78.44-1.05.84-2.87l.59.28a1.86,1.86,0,0,1,.83-1.62c-.48.88,1,.35.54,1.41a2.42,2.42,0,0,0,1.39-.49,4.24,4.24,0,0,0,.85-.76c.48-.51.88-.9,1.71-.33.23-1.85-2.08.11-1.72-.45-.67-.22.23-1.41.94-1.61s1.95,1.31,3.53.64c-.17,0-.14.17-.3.22.37.07.62-.17.9-.39a.92.92,0,0,1,1.08-.21c.15-1,1-.23.81-1.41l-1.5.71c.78-.54,1.27-2.13,3-1.9a3,3,0,0,1-.69,1c.51.23.77-.49,1.31-.21.12,1.14-1.85.78-2.53,1.9.58.36,1.52-1.33,1.39,0,.12-.89.56-1,1-1a1.49,1.49,0,0,0,1.53-.65l0,.71c.16-.14.49-.54.83-.58l-.45,1c.8-.93,1.86.33,2.68-.11-.92.07-1-.13-1.06-.41s.12-.66-.32-.84c2.29-1.18,1.55,1.73,4.06,1.2-.34.11-1.32-.33-.79-.71a2.54,2.54,0,0,1,1.45.77c1.7-.1-.25-.74.48-1.15.57.88.86-.33,1.66-.59l0,.72c1,.24,1.13,0,1.27-.41s.27-.69,1.15-.29l-.88.9,1-.14-.3.79a2.08,2.08,0,0,1,2.3.13,1,1,0,0,1,1.26-1.08c.5.56-.48.59.77.78-.39.37-.81.86-1.19.08-.11.22-.37.39-.47.6.51.63,1.52.47,1.95.56a1,1,0,0,1-.42-.27c.33-.09.67-.2,1-.28l1-.19c.19.35-.09.49-.36.62.36,0,.71-.19,1.24-.08-.32.51-.49,1.1-1.27,1.13l1.79-.09c0,.27.56.94.28,1.07.67.7,2.52-.15,3.44.83a.73.73,0,0,1,.54,0c.47.35.84.81,1.29,1.18a3.34,3.34,0,0,0,.76.46,2.7,2.7,0,0,0,1,.27l0,1.31c1,.42-.1-1.7,1.62-1,1.27.48-.14,1,0,1.49.79,0,2.37-.09,2.7,1.32C65.4,15.44,65.27,15.13,64.94,15Zm8.52,10.34c-.25-.17-.91-.41-.61-.78C73.71,24.39,73.47,24.79,73.46,25.29Zm5.05,20.29c-.21-.23-.06-.53.26-.85A1.19,1.19,0,0,1,78.51,45.58Zm-44.93,36,0,0C34.24,81.94,34,81.78,33.58,81.54Zm-1.35-.64c-.16.07-.18.17-.14.28.14-.16.46-.09.81,0C32.84,81,32.69,80.84,32.23,80.9ZM27.53,2.43l.33.08C27.35,2.93,27.44,2.69,27.53,2.43Z"/><path class="cls-2" d="M77.78,43.08a.9.9,0,0,1,.4-.09C78.06,42.87,77.92,42.86,77.78,43.08Z"/><path class="cls-2" d="M57.92,10.57l0,0-.1.09Z"/><path class="cls-2" d="M52.53,74.44a1.12,1.12,0,0,1,.58.22C53.07,74.49,52.92,74.38,52.53,74.44Z"/><path class="cls-2" d="M24.51,79.49l.94.22a1.3,1.3,0,0,1-.68-.57C24.72,79.31,24.78,79.6,24.51,79.49Z"/><path class="cls-2" d="M20,71.71c-.16,0-.22-.14-.38-.14l-.17.29C19.89,72.15,20.35,72.14,20,71.71Z"/><path class="cls-2" d="M24.75,77c.21-.59-.41-.58-1-.81l.1,0C23.29,76.87,24,77,24.75,77Z"/><path class="cls-2" d="M23.61,76.1a2,2,0,0,1-.51-.28C22.88,76.09,23.28,76,23.61,76.1Z"/><path class="cls-2" d="M30.34,80.83c-.24-.25-.41.68-.5.39C29.29,81.87,32.08,81,30.34,80.83Z"/><polygon class="cls-2" points="25.18 74.96 25.05 75.72 25.62 75.32 25.18 74.96"/><path class="cls-2" d="M29.35,77.3l-.84-.51c0,.12-.17.15-.34.16C28.73,77.16,29.3,77.51,29.35,77.3Z"/><path class="cls-2" d="M28.17,77a1.56,1.56,0,0,0-.76-.2A2.39,2.39,0,0,0,28.17,77Z"/><polygon class="cls-2" points="26.47 75.29 26.66 75.55 27.25 75.88 26.47 75.29"/><path class="cls-2" d="M39.52,79.57l1.07-.19c.12-.25-.16-.42-.56-.33S39.37,79.31,39.52,79.57Z"/><path class="cls-2" d="M36.64,77.16c.25.19.24.36.36.62l.16-.91Z"/><path class="cls-2" d="M39.57,77.29c.12-.25,1.47-.7.22-.67C39.68,76.88,38.67,77,39.57,77.29Z"/><polygon class="cls-2" points="54.8 76.4 54.56 76.51 55.09 77.94 54.8 76.4"/><path class="cls-2" d="M64.26,66.82c-1.1.4.39.89-.69,1.16,0,.45.88-.22.87.19C64.74,67.45,65.15,67.4,64.26,66.82Z"/><path class="cls-2" d="M64.44,68.17a2.3,2.3,0,0,0-.14.4A1.25,1.25,0,0,0,64.44,68.17Z"/><polygon class="cls-2" points="0.48 43.55 0.23 44.44 0.7 43.84 0.48 43.55"/><path class="cls-2" d="M1.73,45.09l-.95.31.91.41C1.63,45.63,1.52,45.26,1.73,45.09Z"/><path class="cls-2" d="M72.51,27.89l.23-.05c.2-.19.15-.35.07-.67Z"/><polygon class="cls-2" points="68.28 19.5 68.36 19.65 68.85 18.85 68.28 19.5"/><path class="cls-2" d="M61.88,14.86c.24.19.64.28.86.53C62.14,15.05,62.47,13.94,61.88,14.86Z"/><path class="cls-3" d="M30.87,36.09a2.42,2.42,0,0,1-1.79-.76c-.55-.59-.66-2-1-2.86A7.94,7.94,0,0,0,26,29.4l.25-.25a18.76,18.76,0,0,1,5.86,2.3,2.52,2.52,0,0,1,1.35,2.08A2.37,2.37,0,0,1,30.87,36.09Zm.73,14.38a19.56,19.56,0,0,1-1.28,3.11L29.51,55l-3.18-6.32a26.88,26.88,0,0,0,3-3.84,25.09,25.09,0,0,0,3-6.48l.59,0a31.22,31.22,0,0,1,.29,3.69A25,25,0,0,1,31.6,50.47Zm.84-22c-1.39-.07-2.12-.91-2.78-2.6a8.57,8.57,0,0,0-2.49-3.32l.3-.3c1.42.22,6.18.84,6.84,2.42a5.33,5.33,0,0,1,.43,1.79A2,2,0,0,1,32.44,28.45ZM56.29,53.83a3.35,3.35,0,0,0,.44,1.36l-.26.29a16.39,16.39,0,0,1-7.72-4.75c-1.28.8-2.52,1.6-3.84,2.37s-2.85,1.47-4.24,2.16l-1.24-3.8c1.09-.59,1.24-.88,1.24-2.12v-4h-1.5c-.15.74-.29,1.47-.51,2.2a13.18,13.18,0,0,1-1.25,2.56,18,18,0,0,1-5.56,5.34l-.43-.26c2.85-3.54,3.8-7.75,3.8-12.25V36.09h4.46v.37H56.47v2H39.68l-.18,4.83h17v2H47.29A9.3,9.3,0,0,0,51,48.71a21.33,21.33,0,0,0,2.78-3.29l4,2c-1.79.66-3.55,1.32-5.3,2a20.88,20.88,0,0,0,6.1,1.94v.4C57.27,52,56.29,52.3,56.29,53.83Zm-.11-27.94v9.77H51.93v-.88H39.17v.73H35V24h4.13v.84h2.16v-2.3h3.11v2.3h2.19V22.53h3.11v2.26h2l1.57-1.42,4.57,1Zm-14.85,1H39.17v1.79h2.16Zm0,3.88H39.17v1.93h2.16ZM41.11,42V39.9H56.18V42Zm5.52-15.07H44.44v1.79h2.19Zm0,3.88H44.44v1.93h2.19Zm-.91,14.62H44.44v5.49c1.2-.25,2.41-.55,3.62-.88A15,15,0,0,1,45.72,45.38Zm6.21-18.5H49.74v1.79h2.19Zm0,3.88H49.74v1.93h2.19Z"/><path class="cls-3" d="M39.31,149v-4H30.5v-2.13h8.81v-3.56H44v3.56H48.4V145H44.07l0,4h1a22.19,22.19,0,0,0,4.41-5.6l5.34.26A40.57,40.57,0,0,1,50.56,149H56v2.22H48.21a37.29,37.29,0,0,1-9.29,5.69l0,4.36A24.15,24.15,0,0,0,46,154.61l5.56.16A17.79,17.79,0,0,1,46.9,159a32.2,32.2,0,0,1-8,3.37v.73a1.29,1.29,0,0,0,.29.89c.51.54,2.57.51,3.3.51,5.82,0,6.55-.13,9.67-5l.47.13A6.18,6.18,0,0,0,52,162a1.46,1.46,0,0,0,.22,1c.28.35,1.49.76,1.49,1.05s-.22.44-.35.57a7.21,7.21,0,0,1-4.1,2.41,39.27,39.27,0,0,1-6.48.48l-.89,0c-2.16.06-6.68,0-7.53-2.57a6.05,6.05,0,0,1-.29-1.81V158.9a47,47,0,0,1-6,1.46L28,160c1-.44,2-.85,3.05-1.33s2-1.08,3-1.65v-3.94h4.89l0,.82a23.63,23.63,0,0,0,3.56-2.67H27.86V149Z"/><path class="cls-3" d="M44.2,183.91c-.06,2.44,0,5,0,7.47a16.06,16.06,0,0,0,.35,3.46,15.24,15.24,0,0,0,2.57,5.91,22.27,22.27,0,0,0,5.15,5.37,12.87,12.87,0,0,0,3.63,2.1l0,.38c-.9,0-2.13.19-2.55,1.08a3.47,3.47,0,0,0-.38,1.37,7.08,7.08,0,0,0,.19,1.15l-.16.34a22,22,0,0,1-3-2.09c-.79-.67-1.59-1.4-2.35-2.1A11.71,11.71,0,0,1,45,204.6a25.54,25.54,0,0,1-1.4-3.5,26.14,26.14,0,0,1-.61-2.79c-.35,1-.66,2.16-1.05,3.17A13.46,13.46,0,0,1,40.51,204a18.18,18.18,0,0,1-3.21,3.47c-2.76,2.35-6,3.53-9.37,4.67l-.26-.25c1-.67,1.94-1.37,2.86-2.1a24.43,24.43,0,0,0,3.6-3.66A19.08,19.08,0,0,0,38.67,196a81.3,81.3,0,0,0,.29-8.4c0-.85.06-2.82,0-3.68Zm-15.29,3.68c2.86,1.31,7.57,3.31,7.76,7.25.06,1.4-.19,2.32-1.12,2.89s-3.17-.31-3.71-1.24a12.54,12.54,0,0,1-1.18-3.78,14.28,14.28,0,0,0-2.07-4.93Zm25.56.45c-.29.89-.61,1.75-.93,2.61-1.24,3.3-4.25,5.78-7.21,7.53l-.25-.22c.25-.58.38-1,.63-1.56s.45-1.3.64-1.94a38.43,38.43,0,0,0,1.36-6.58Z"/><path class="cls-3" d="M44.49,250.65v4.16c0,1.56-1.08,1.78-2.16,2a9.85,9.85,0,0,1-1.88.22c-1.56,0-.38-1-1.53-1.91a8,8,0,0,0-2.13-.73v-.29c.77,0,1.56.07,2.32.07.48,0,1.78.16,1.78-.77v-2.7l-3.9,0a6.93,6.93,0,0,1,.28,1.21c.22,1.37-.13,2.29-1.18,2.29a1.73,1.73,0,0,1-1.49-1.59,6.84,6.84,0,0,0-1-3.75c-.45.92-.86,1.84-1.34,2.73a22,22,0,0,1-3.62,4.8l-.41-.19c2.57-5.12,2.86-8.9,3.11-14.72a1.41,1.41,0,0,1-1.18.77,1.31,1.31,0,0,1-1.46-1.31c0-1,.23-1.94.23-2.95a12.35,12.35,0,0,0-.7-4.55l.31-.12a14.35,14.35,0,0,1,2.8,4.06l0-9.25h3.75L35,236.76a34.3,34.3,0,0,0,.89-4.1l.77.13c0-.41,0-.83,0-1.08h3.91c-.76-.64-.54-1.08-.79-2a2.7,2.7,0,0,0-.7-1l.13-.22c.25,0,.51.13.7,0a3.08,3.08,0,0,1,3.94.83A2.39,2.39,0,0,1,44,230.4a2.67,2.67,0,0,1-.51,1.31H48v2.06H39.24c-.28.48-.57.89-.82,1.31h2.25V236h2.61l.89-1.24,3.65.89-1,1.27v5.72H43.44v-.73H40.67v.76h-3.3v-6.07A13.45,13.45,0,0,1,35,239.05c-.12,1.08-.12,1.49-.16,2.57a37,37,0,0,1-.73,5.92A5.52,5.52,0,0,1,36.7,250v-1.3l4.19,0v-1.24h.64a14.13,14.13,0,0,0,.83-1.65H37.24v-1.91h5.43l1-1,4,.83c-.45.38-.93.76-1.37,1.14-.61.51-1,1.21-1.65,1.72a9.69,9.69,0,0,1-1.53.89h1.37v1.24h3.59v2Zm-1.05-12.78H40.67v2.2h2.77ZM55.8,253.26c-1.78.44-2,1.3-1.78,3.18l-.41.22a17.53,17.53,0,0,1-2.83-3.88,10.29,10.29,0,0,1-4.86,3.78l-.26-.51a16.09,16.09,0,0,0,4-5.88,34.45,34.45,0,0,1-1.43-11.06c-.35.35-.73.67-1.12,1l-.19-.22a39.1,39.1,0,0,0,1.66-11.73h3.52a31.77,31.77,0,0,1-.73,5.63H55V236H50.53c-.51.86-1.05,1.68-1.59,2.48A24.83,24.83,0,0,0,50.75,246c.19-3,.38-6,.38-9h3.18c-.19,4.8-.23,8.07-1.69,12.56a9.28,9.28,0,0,0,3.31,3.36Z"/><path class="cls-3" d="M34.63,276c1,.51,2.74,1.31,2.74,2.55,0,.89-1,1.36-1.78,1.36-1,0-1.37-.63-1.5-1.68a7.09,7.09,0,0,0-.57-2.13c-.92,0-2.13.09-3,.09.83.58,2.32,1.56,2.32,2.71a1.52,1.52,0,0,1-1.52,1.39c-.77,0-1.56-.09-1.56-1,0-.38,0-1,0-1.4,0-.13,0-1.4,0-1.43l-.45-.25-1.9-.07,0-.35c3.63-.66,9.41-2.06,12.69-3.78L42.36,275A66.49,66.49,0,0,1,34.63,276Zm4.74,23.75c-1.59,0-1.78-.86-2.19-2.1a6,6,0,0,0-1.34-2.19c-1.94,3.27-4.32,4.32-8.2,5.49l-.25-.22c2.51-1.81,4.89-4.26,5.75-7.34H28.69v-1.81h4.74l.19-1.56c-.93.19-3.12.35-4,.45L29,287.92a6.36,6.36,0,0,0,1.37-.13c1.14-.35,3.11-2.22,3.87-3.11a41.92,41.92,0,0,1-5,1.11l-.63-2.48c.38,0,1.39-.13,1.78-.22.66-.19,1.65-2.23,1.93-2.8l4.07.07a21.23,21.23,0,0,1-4.54,3c1.08,0,2.19-.07,3.27-.07a6.35,6.35,0,0,0,.7-1.81h1A23.19,23.19,0,0,0,39,275.84l3.24,1.5A35.87,35.87,0,0,1,38,281.56h2.7c-2.22,2.77-4.42,5.12-8,6.36a54.9,54.9,0,0,0,6-.35l-.83-2.22.26-.19c1.87.54,3.94,1.65,4.1,3.52a1.55,1.55,0,0,1-1.62,1.47c-1,0-1.4-.51-1.66-1.43-1.33.41-2.67.76-4,1l3,.1a13.06,13.06,0,0,1-.48,1.75H42v1.81H37c-.19.41-.38.86-.6,1.27A7.78,7.78,0,0,1,40,295.77c.67.38.92,2.13.92,2.61A1.55,1.55,0,0,1,39.37,299.78Zm3.81-26.86H48a26.68,26.68,0,0,1-2.95,4.8H55.36v2H51.83v3.75h3.46v2H51.83v4.32h3.53v2H51.83v5.25h3.91v2H45.63v2.22H42.36V279.78c-.64.54-.61,1-1.28,1.5l-.22-.29A25.34,25.34,0,0,0,43.18,272.92Zm5.44,10.58v-3.75h-3v3.75Zm0,6.33v-4.32h-3v4.32Zm0,7.28v-5.25h-3v5.25Zm.28-24.54c1.37.51,3.88,1.05,3.88,2.89a2.06,2.06,0,0,1-2,1.88c-1.24,0-1.69-.35-1.88-1.31-.09-.41.19-1,.19-1.43a3.05,3.05,0,0,0-.5-1.78Z"/><path class="cls-3" d="M65.78,282.23a3.83,3.83,0,0,0-.44,1.93c0,1.8,1.39,3,4.4,3,2.17,0,4.69-1,4.69-3.74a2.29,2.29,0,0,0-.51-1.56,7.11,7.11,0,0,0-1.71-1.34,1.13,1.13,0,0,1,.41-.57A5.88,5.88,0,0,1,75,281.39a6.85,6.85,0,0,1,.43,2.5c0,3.83-1.85,6.09-5.52,6.09a4.94,4.94,0,0,1-4.62-2.79,7.76,7.76,0,0,1-.69-3.42c0-1.42.25-2.77.28-3.48a20.68,20.68,0,0,0,2.86.25c.12.07.16.68.07.7C66.8,281.44,66.19,281.54,65.78,282.23Z"/><path class="cls-3" d="M64.54,279.43a15.69,15.69,0,0,0-.6-3.38c0-.07.23-.17.33-.16.27.16.48.22,1.63.22l3,0a.06.06,0,0,0,0-.08,4.09,4.09,0,0,1-.89-2.15c0-1.43,1-2.27,2.82-2.27.9,0,2.46,0,3.08,0,0,0,.24,0,.29-.1a2,2,0,0,0,.27-.85.78.78,0,0,1,.66.09c0,.24,0,.86,0,2,0,.66,0,1.39,0,1.83a.76.76,0,0,1-.66,0l-.1-.43c-.08-.23-.24-.28-.73-.3a21.88,21.88,0,0,0-3.31.05,1.25,1.25,0,0,0-1,1.29,1.77,1.77,0,0,0,.17.77.22.22,0,0,0,.21.11c1.35,0,3.28,0,3.8,0s.72,0,.82-.31a2.63,2.63,0,0,0,.13-.55c.09-.12.56-.07.66,0,0,.52,0,1,0,2.06s0,1.58,0,1.95a.84.84,0,0,1-.66,0,4.62,4.62,0,0,0-.13-.59c-.1-.29-.39-.31-1-.32s-1.64,0-2.72,0c-3.45,0-4.42,0-4.91.07a.5.5,0,0,0-.47.3c0,.19-.09.46-.14.75A.86.86,0,0,1,64.54,279.43Z"/><path class="cls-3" d="M67,267.44a2,2,0,0,1,.12,1.28,1.05,1.05,0,0,1-.76.59,1.29,1.29,0,0,1-.86-.1,2.18,2.18,0,0,1-.41-1.32,1.4,1.4,0,0,1,.22-.81,1.75,1.75,0,0,1,.66-.13A1.46,1.46,0,0,1,67,267.44ZM75.17,266c0,.31,0,1,0,2.1,0,.95,0,1.58,0,2a1.14,1.14,0,0,1-.66,0,3.63,3.63,0,0,0-.15-.66c-.07-.22-.22-.24-.64-.25s-1.37,0-2.17,0c-.57,0-1.22,0-1.52,0a.72.72,0,0,0-.43.12,1.86,1.86,0,0,0-.4.72.82.82,0,0,1-.58-.05,12,12,0,0,0-.59-3h2.88c.86,0,1.94,0,2.74,0,.49,0,.64-.1.71-.3a3.59,3.59,0,0,0,.15-.68A1,1,0,0,1,75.17,266Z"/><path class="cls-3" d="M75.32,261.7a3.17,3.17,0,0,1-1.18,2.61,3.91,3.91,0,0,1-2.39.71,3.5,3.5,0,0,1-3-1.73,5.52,5.52,0,0,1-.74-2.54,4.05,4.05,0,0,1,.23-1.49,1.3,1.3,0,0,1,.5-.62.53.53,0,0,1,.35,0,2.42,2.42,0,0,1,1,.81s0,.23,0,.27c-.39.35-1.27,1-1.27,1.83s.78,1.3,2,1.3a3.33,3.33,0,0,0,1.93-.54,2.08,2.08,0,0,0,.88-1.8,2.87,2.87,0,0,0-.69-1.87s.07-.11.13-.12a1.24,1.24,0,0,1,.7.15A3.92,3.92,0,0,1,75.32,261.7Z"/><path class="cls-3" d="M68.28,253.75a33.69,33.69,0,0,0-.11-3.57.86.86,0,0,1,.67,0,2.45,2.45,0,0,0,.61,1.39c.44.46,1,1,1.41,1.4,0,0,0,0,.08,0a21.66,21.66,0,0,0,3.22-2.5c.27-.31.3-.41.35-1.1a.9.9,0,0,1,.66.1,18.47,18.47,0,0,1,.09,2.17,1.52,1.52,0,0,1-.41,1.05,18.11,18.11,0,0,1-2.4,1.7c-.22.16-.46.31-.51.48.8,0,1.12,0,1.74,0s.63-.13.71-.42.09-.39.12-.58a.93.93,0,0,1,.66.1c0,.43,0,1,0,2s0,1.59,0,2.06a.94.94,0,0,1-.66,0,3,3,0,0,0-.12-.61c-.08-.24-.27-.29-.64-.3s-1.73-.05-2.47-.05c-4.5,0-5.25,0-5.52,0s-.44.08-.52.29a4.64,4.64,0,0,0-.17.69,1.18,1.18,0,0,1-.59,0,16.62,16.62,0,0,0-.54-3.35.45.45,0,0,1,.32-.12c.22.14.52.19,1.74.2,1,0,2.64.06,5.4,0a1.86,1.86,0,0,0-.37-.75,4.52,4.52,0,0,0-1.65-1.35c-.15,0-.23.07-.3.29s-.12.74-.14.78A1.05,1.05,0,0,1,68.28,253.75Z"/><path class="cls-3" d="M73.17,242.64a2,2,0,0,1,.63.1,4.24,4.24,0,0,1,1.52,3.15,3.16,3.16,0,0,1-.81,2.28,3.78,3.78,0,0,1-2.79,1,3.54,3.54,0,0,1-3.08-1.59,4.16,4.16,0,0,1-.59-2,2.7,2.7,0,0,1,2.5-2.74c.09,0,.2-.19.24-.29a1.33,1.33,0,0,1,.52.13,33.86,33.86,0,0,1,.38,4.22s.11.08.17.08a2.09,2.09,0,0,0,1.86-2.25,3.19,3.19,0,0,0-.66-2S73.12,242.64,73.17,242.64ZM70.7,247a.14.14,0,0,0,.12-.12,14.77,14.77,0,0,0,0-1.79.21.21,0,0,0-.15-.13c-1.1.06-1.85.44-1.85,1.08S69.64,247,70.7,247Z"/><path class="cls-3" d="M74.41,241.29c-.07-.24-.34-.32-.68-.36l-2.62,0c-.42,0-1,0-1.22,0s-.37.15-.61.83a3.28,3.28,0,0,1-.56-.08A12,12,0,0,0,68,238.8a.2.2,0,0,1,.12-.08l.93,0a.06.06,0,0,0,0-.09,4.12,4.12,0,0,1-1-2.16,2,2,0,0,1,.93-1.78,3.59,3.59,0,0,1,2-.47c1.1,0,2.39,0,3,0a.35.35,0,0,0,.29-.14,2,2,0,0,0,.27-.84,1.09,1.09,0,0,1,.66.08c0,.27,0,.85,0,2,0,.95,0,1.29,0,1.86a1.23,1.23,0,0,1-.66,0,4,4,0,0,0-.12-.45.43.43,0,0,0-.42-.28,26.59,26.59,0,0,0-3.54.07,1.17,1.17,0,0,0-1,1.24,1.79,1.79,0,0,0,.22.78.43.43,0,0,0,.29.13l3.85,0c.45,0,.53-.14.58-.36a3.37,3.37,0,0,0,.1-.49,1.25,1.25,0,0,1,.66,0c0,.66,0,1.27,0,2,0,1.15,0,1.59,0,2a1.23,1.23,0,0,1-.66,0A5.12,5.12,0,0,0,74.41,241.29Z"/><path class="cls-3" d="M74.19,227.09a2.83,2.83,0,0,0,.46-1.53,1.28,1.28,0,0,0-1.25-1.43c-.77,0-1.26.29-2.26,1.93-.81,1.36-1.59,2.69-3.45,2.69-2,0-3.09-1.67-3.09-3.65a22.23,22.23,0,0,1,.3-2.91,17.07,17.07,0,0,0,2.56.29,1,1,0,0,1,0,.67,2.66,2.66,0,0,0-1.79.78,1.87,1.87,0,0,0-.39,1.27,1.37,1.37,0,0,0,1.4,1.44,1.81,1.81,0,0,0,1.59-1.08c.46-.73.7-1.16,1.16-1.92.76-1.25,1.48-1.81,2.72-1.81,1.79,0,3.27,1.44,3.27,4.11a6.36,6.36,0,0,1-.56,2.68,10.8,10.8,0,0,1-2.78.59,1,1,0,0,1-.22-.66A4.79,4.79,0,0,0,74.19,227.09Z"/><path class="cls-3" d="M69.38,217.72s.07.07.11.07l2.53,0a6.07,6.07,0,0,0,1.27-.07.85.85,0,0,0,.68-.9,1.59,1.59,0,0,0-.25-.93,1.54,1.54,0,0,1,.67,0,2.57,2.57,0,0,1,.92,2.07,1.88,1.88,0,0,1-.85,1.77,3.36,3.36,0,0,1-1.83.27H69.55c-.06,0-.15,0-.17.08l0,.86a3.35,3.35,0,0,1-.77-.17c-.06-.22-.14-.55-.19-.69a.26.26,0,0,0-.15-.08c-.1,0-1,0-1.42,0a9.48,9.48,0,0,0-.92-1.86,2.1,2.1,0,0,1,0-.43,22.83,22.83,0,0,0,2.34.07c.06,0,.11,0,.11-.07,0-.28,0-1.42-.06-1.91a10,10,0,0,0,1.18.19C69.38,216.51,69.38,217.15,69.38,217.72Z"/><path class="cls-3" d="M71.62,207.56a3.4,3.4,0,0,1,3,1.55,4.84,4.84,0,0,1,.67,2.37,3.63,3.63,0,0,1-6.58,2.25,4.79,4.79,0,0,1-.69-2.45A3.43,3.43,0,0,1,71.62,207.56Zm-2.68,4.57c.29.44.9.67,2.19.67,2.32,0,3.45-.71,3.45-1.64a.87.87,0,0,0-.17-.52c-.34-.38-1-.6-2.32-.6-2,0-3.28.61-3.28,1.65A1.17,1.17,0,0,0,68.94,212.13Z"/><path class="cls-3" d="M75.32,203a3.17,3.17,0,0,1-1.18,2.61,3.91,3.91,0,0,1-2.39.71,3.49,3.49,0,0,1-3-1.72,5.6,5.6,0,0,1-.74-2.54,4,4,0,0,1,.23-1.49,1.27,1.27,0,0,1,.5-.63.6.6,0,0,1,.35,0,2.58,2.58,0,0,1,1,.81s0,.24,0,.27c-.39.36-1.27,1-1.27,1.83s.78,1.3,2,1.3a3.25,3.25,0,0,0,1.93-.54,2.06,2.06,0,0,0,.88-1.79,2.87,2.87,0,0,0-.69-1.88.26.26,0,0,1,.13-.12,1.24,1.24,0,0,1,.7.15A3.92,3.92,0,0,1,75.32,203Z"/><path class="cls-3" d="M68.28,195a33.69,33.69,0,0,0-.11-3.57.86.86,0,0,1,.67,0,2.45,2.45,0,0,0,.61,1.39c.44.46,1,1,1.41,1.41,0,0,0,0,.08,0a21.74,21.74,0,0,0,3.22-2.51c.27-.3.3-.4.35-1.1a.9.9,0,0,1,.66.1,18.47,18.47,0,0,1,.09,2.17,1.5,1.5,0,0,1-.41,1.05,18,18,0,0,1-2.4,1.71c-.22.15-.46.3-.51.47.8,0,1.12,0,1.74,0s.63-.13.71-.42.09-.39.12-.57a.88.88,0,0,1,.66.1c0,.42,0,1,0,2s0,1.59,0,2.06a.84.84,0,0,1-.66,0,3,3,0,0,0-.12-.61c-.08-.23-.27-.28-.64-.3s-1.73,0-2.47,0c-4.5,0-5.25,0-5.52,0s-.44.09-.52.29a5,5,0,0,0-.17.69,1.18,1.18,0,0,1-.59,0,16.62,16.62,0,0,0-.54-3.35.45.45,0,0,1,.32-.12c.22.14.52.19,1.74.21,1,0,2.64,0,5.4,0a1.77,1.77,0,0,0-.37-.74A4.58,4.58,0,0,0,69.38,194c-.15,0-.23.07-.3.29s-.12.75-.14.78A1.05,1.05,0,0,1,68.28,195Z"/><path class="cls-3" d="M64.85,187.28c0-.41.05-1.07.05-2.52s-.05-2.13-.05-2.56a1.06,1.06,0,0,1,.66,0,3.67,3.67,0,0,0,.15.81c.12.34.36.41.83.41.78,0,1.74,0,2.69,0,.07,0,.1,0,.12-.09a19.52,19.52,0,0,0,0-2.13c0-1.12,0-1.63,0-1.85,0,0-.07-.1-.12-.1-.83,0-2,0-2.91,0-.22,0-.51.1-.59.34a3.31,3.31,0,0,0-.19,1,.84.84,0,0,1-.66,0c0-.74.05-1.27.05-2.6s-.05-1.95-.05-2.47a.76.76,0,0,1,.66,0,2.74,2.74,0,0,0,.17.84c.12.31.3.41.83.42,1.12,0,1.86,0,3.72,0,1.15,0,2.47,0,3.23,0,.41,0,.7-.07.83-.37a5.09,5.09,0,0,0,.22-1.1,1.06,1.06,0,0,1,.66.08c0,.42,0,1.27,0,2.59s0,2.23,0,2.61a.84.84,0,0,1-.66,0,7,7,0,0,0-.15-.87c-.08-.27-.32-.4-.8-.42-.81,0-1.89,0-3,0,0,0-.12,0-.12.09,0,.34,0,1.16,0,1.93a16.3,16.3,0,0,0,0,2.11.25.25,0,0,0,.11,0c1.08,0,2.11,0,2.82,0,.48,0,.76-.05.9-.46a7.23,7.23,0,0,0,.2-1,.87.87,0,0,1,.66.06c0,.31,0,1.12,0,2.76,0,1.34,0,2.19,0,2.51a1.14,1.14,0,0,1-.66,0,7.85,7.85,0,0,0-.15-.8c-.12-.46-.37-.56-1-.61h-6.8c-.54,0-.75.1-.83.44a4.51,4.51,0,0,0-.17.93A1.06,1.06,0,0,1,64.85,187.28Z"/><path class="cls-3" d="M71.62,167.08a3.39,3.39,0,0,1,3,1.56,4.81,4.81,0,0,1,.67,2.37,3.64,3.64,0,0,1-6.58,2.25,4.83,4.83,0,0,1-.69-2.46A3.43,3.43,0,0,1,71.62,167.08Zm-2.68,4.57c.29.44.9.68,2.19.68,2.32,0,3.45-.72,3.45-1.65a.9.9,0,0,0-.17-.52c-.34-.37-1-.59-2.32-.59-2,0-3.28.61-3.28,1.64A1.17,1.17,0,0,0,68.94,171.65Z"/><path class="cls-3" d="M69.38,163s.07.07.11.07H72a7.06,7.06,0,0,0,1.27-.06.85.85,0,0,0,.68-.9,1.56,1.56,0,0,0-.25-.93,1.4,1.4,0,0,1,.67,0,2.57,2.57,0,0,1,.92,2.06,1.9,1.9,0,0,1-.85,1.78,3.36,3.36,0,0,1-1.83.27l-3.08,0c-.06,0-.15,0-.17.08l0,.87a3.35,3.35,0,0,1-.77-.17c-.06-.22-.14-.56-.19-.7a.47.47,0,0,0-.15-.08c-.1,0-1,0-1.42,0a9.48,9.48,0,0,0-.92-1.86,2,2,0,0,1,0-.42c.44,0,1.32.07,2.34.07.06,0,.11,0,.11-.07,0-.29,0-1.42-.06-1.91a9.92,9.92,0,0,0,1.18.18C69.38,161.77,69.38,162.41,69.38,163Z"/><path class="cls-3" d="M68.83,160.54a15.56,15.56,0,0,0-1-3.1s.12-.17.15-.17.58,0,.88,0c0,0,.07-.09,0-.12a4.79,4.79,0,0,1-.91-2.2,2.41,2.41,0,0,1,.79-1.8,3.45,3.45,0,0,1,2.3-.83,3.69,3.69,0,0,1,3.08,1.39,5.23,5.23,0,0,1,1.12,3.15v.34s0,0,.09,0c.3,0,1.47,0,1.87,0s.63-.12.73-.51c0-.22.09-.64.15-1a1.39,1.39,0,0,1,.65.1v.46a36.7,36.7,0,0,0,.22,4.38,1.12,1.12,0,0,1-.68.05,5,5,0,0,0-.2-.86c-.12-.27-.39-.32-.82-.32s-2,0-3.57,0c-1.84,0-2.75,0-3.55,0-.25,0-.46.06-.56.3a3.86,3.86,0,0,0-.22.71A1.43,1.43,0,0,1,68.83,160.54Zm.83-3.39a.35.35,0,0,0,.27.17c.49,0,2.52,0,3.24,0a1.28,1.28,0,0,0,.94-.44,1.5,1.5,0,0,0,.32-.95,1,1,0,0,0-.41-.81,3.06,3.06,0,0,0-1.86-.49,3.31,3.31,0,0,0-2.06.54,1.49,1.49,0,0,0-.63,1.27A1.69,1.69,0,0,0,69.66,157.15Z"/><path class="cls-3" d="M71.62,143.4a3.39,3.39,0,0,1,3,1.56,4.81,4.81,0,0,1,.67,2.37,3.64,3.64,0,0,1-6.58,2.25,4.83,4.83,0,0,1-.69-2.46A3.43,3.43,0,0,1,71.62,143.4ZM68.94,148c.29.44.9.68,2.19.68,2.32,0,3.45-.71,3.45-1.65a.9.9,0,0,0-.17-.52c-.34-.37-1-.59-2.32-.59-2,0-3.28.61-3.28,1.64A1.17,1.17,0,0,0,68.94,148Z"/><path class="cls-3" d="M69.38,139.31s.07.07.11.07H72a7.06,7.06,0,0,0,1.27-.06.85.85,0,0,0,.68-.9,1.56,1.56,0,0,0-.25-.93,1.4,1.4,0,0,1,.67,0,2.57,2.57,0,0,1,.92,2.06,1.9,1.9,0,0,1-.85,1.78,3.36,3.36,0,0,1-1.83.27l-3.08,0c-.06,0-.15,0-.17.09l0,.86a3.35,3.35,0,0,1-.77-.17c-.06-.22-.14-.56-.19-.69a.32.32,0,0,0-.15-.09c-.1,0-1,0-1.42,0a9.48,9.48,0,0,0-.92-1.86,2,2,0,0,1,0-.42c.44.05,1.32.07,2.34.07.06,0,.11,0,.11-.07,0-.29,0-1.42-.06-1.91a9.92,9.92,0,0,0,1.18.18C69.38,138.09,69.38,138.73,69.38,139.31Z"/><line class="cls-4" x1="42.51" y1="95.06" x2="42.51" y2="125.58"/><line class="cls-4" x1="42.51" y1="353.93" x2="42.51" y2="384.46"/><circle cx="41.98" cy="327.86" r="14.31"/><path class="cls-5" d="M33.2,330.83a10.87,10.87,0,0,0,1-1.73,18.54,18.54,0,0,0,1.62-4.45A8.86,8.86,0,0,0,36,323.4l0-.56,1.72,0c-.1.39-.18.79-.27,1.19a15.3,15.3,0,0,0,3.3,5.7,4.44,4.44,0,0,0,.74.55l0,.12a1,1,0,0,0-.74.29,1,1,0,0,0-.17.43,1.17,1.17,0,0,0,.08.37l-.15.07a8.75,8.75,0,0,1-1.65-1.94,10.25,10.25,0,0,1-1.26-2.78,16.61,16.61,0,0,1-.33-1.87c-.1.38-.21.76-.31,1.13a8.87,8.87,0,0,1-.84,1.82A9.62,9.62,0,0,1,33.59,331q-.42.33-.87.63l-.1-.09C32.82,331.32,33,331.07,33.2,330.83Z"/><path class="cls-5" d="M45.53,323.34h5.28V324H45.08a6.25,6.25,0,0,1-.44.45h5.74V325H44.24v-.3a12.35,12.35,0,0,1-1.71.94l-.07-.08a6.42,6.42,0,0,0,1.73-2.78l1.57,0A4.52,4.52,0,0,1,45.53,323.34Zm-2.67,5.26V328h2.49v-1.78h1.36v1.68a7.14,7.14,0,0,0,.66-1.53l1.35.25A5.16,5.16,0,0,1,47,328h1.67v.61H46.71v.27c.57.11,1.92.51,1.91,1.26a.6.6,0,0,1-.63.62c-.55,0-.62-.35-.74-.79a1.48,1.48,0,0,0-.54-.8v2.41H45.35v-2.12a6.14,6.14,0,0,1-2.62,1.84l-.08-.09a5.13,5.13,0,0,0,1.49-2.35h1.21v-.25Zm6-3.08.45-.43,1.26.36-.42.34c0,.85,0,1.71,0,2.56,0,.28.08,1.79.32,1.79a4,4,0,0,0,.17-.4c.14-.32.26-.65.39-1l.13,0a8.47,8.47,0,0,0-.19,1.06c0,.46.36.42.36.65a.6.6,0,0,1,0,.12c-.07.3-.24,1-.63,1a1.8,1.8,0,0,1-1-.57,3.78,3.78,0,0,1-.71-2.8c0-.72,0-1.44,0-2.16H43.23v-.61Zm-5.41.89a7.27,7.27,0,0,1,1.07.26c.3.1.7.29.7.66a.56.56,0,0,1-.62.53c-.49,0-.58-.31-.71-.68a1.7,1.7,0,0,0-.5-.71Z"/></g></g></svg>