<svg xmlns="http://www.w3.org/2000/svg" viewBox="0 0 82.6 384.7"><defs><style>.cls-1{fill:#231f20;}.cls-2{fill:#a98d66;}.cls-3{fill:#b89161;}.cls-4{fill:none;stroke:#000;stroke-miterlimit:10;}.cls-5{fill:#fff;}</style></defs><title>資產 41</title><g id="圖層_2" data-name="圖層 2"><g id="work"><circle class="cls-1" cx="41.37" cy="41.02" r="31.47"/><path class="cls-2" d="M9.72,68.38c-.22-.32-.6.19-.73.22C9.54,69,9.83,68.26,9.72,68.38Z"/><polygon class="cls-2" points="15.21 71.77 14.96 71.9 16.05 72.01 15.21 71.77"/><path class="cls-2" d="M19.83,75.24c.13-1.19-1.81-1-2.44-2V73l-.9.42C17.63,74,19.27,74.5,19.83,75.24Z"/><path class="cls-2" d="M21.44,78.81c0-.46.78,0-.6-.48a1,1,0,0,1,.07.16A5.6,5.6,0,0,1,21.44,78.81Z"/><path class="cls-2" d="M20.91,78.49c-.58-.29.2.51,0,0Z"/><path class="cls-2" d="M23.67,79.6h-.94c.06.3.73.66.4.71C24,80.47,24,80.17,23.67,79.6Z"/><path class="cls-2" d="M24.71,79.21l-.46,0C24.28,79.3,24.37,79.38,24.71,79.21Z"/><path class="cls-2" d="M23.27,79.11l1,.07c0-.21.1-.53-.43-.06C24,78.86,23.73,79.06,23.27,79.11Z"/><path class="cls-2" d="M22.87,78.75c-.33-.39-.78-.82.12-.77C21.55,77.36,21.37,78.16,22.87,78.75Z"/><path class="cls-2" d="M20.67,74.45c-.11-.19-.23-.37-.33-.57h-.6C20,73.9,20.51,74.77,20.67,74.45Z"/><path class="cls-2" d="M28.4,82c.12-.2-.09-.67-.06-1l-.67.06C27.92,81.36,28.46,81.68,28.4,82Z"/><path class="cls-2" d="M28.34,81.05l1-.08C28.57,80.67,28.37,80.8,28.34,81.05Z"/><polygon class="cls-2" points="25.32 78.18 23.63 78.33 25.58 78.28 25.32 78.18"/><polygon class="cls-2" points="31.87 82.98 31.23 83.38 32.34 82.81 31.87 82.98"/><path class="cls-2" d="M34.23,83.38c-.47.38.42.8,0,1A4,4,0,0,0,36,83.83,2.22,2.22,0,0,1,34.23,83.38Z"/><path class="cls-2" d="M36.9,83.45a4.94,4.94,0,0,0-.89.38A2.28,2.28,0,0,0,36.9,83.45Z"/><path class="cls-2" d="M30.81,81.5a1,1,0,0,0,.55.8l-.2-.71Z"/><path class="cls-2" d="M31.15,81.57v0l.75.21Z"/><path class="cls-2" d="M30.72,81.48l.09,0C30.79,81.43,30.77,81.41,30.72,81.48Z"/><path class="cls-2" d="M27.28,79.6c.63-.17,1.77-.2,1-1C27.74,78.86,28.21,79.34,27.28,79.6Z"/><path class="cls-2" d="M30.49,80.61c-.3-.12-.58-.29-.87-.43,0,.17.07.46-.24.55C29.76,80.69,30.12,80.67,30.49,80.61Z"/><polygon class="cls-2" points="31 80.51 30.49 80.61 30.82 80.74 31 80.51"/><path class="cls-2" d="M35.29,82.64a2.79,2.79,0,0,1,1.44-.16,7.49,7.49,0,0,0-1.63-.41C35,82.26,34.69,82.58,35.29,82.64Z"/><path class="cls-2" d="M33.27,82.13l.1,0C33.33,82,33.28,82,33.27,82.13Z"/><polygon class="cls-2" points="41.83 82.77 41.75 82.65 41.73 82.76 41.83 82.77"/><path class="cls-2" d="M35,81.94a.89.89,0,0,0-.93.11,5.75,5.75,0,0,1,1,0C35.14,82,35.16,81.93,35,81.94Z"/><path class="cls-2" d="M38.37,83.3c-.21-.14-.45-.27-.7-.41C37.86,83.13,38.28,83.47,38.37,83.3Z"/><path class="cls-2" d="M33.48,82.32h-.07C33.52,82.49,33.52,82.42,33.48,82.32Z"/><path class="cls-2" d="M33.48,82.32a2.41,2.41,0,0,0,.61-.27,3.28,3.28,0,0,0-.72.06A1.39,1.39,0,0,1,33.48,82.32Z"/><path class="cls-2" d="M43.18,78.58a1.16,1.16,0,0,1-1.91.56c-.86.42-.35,2.39.48,3.51,0-.27,0-.47,1-.89-.35-.25-2.07-.75-1.29-1.27,1.2-.27,1,.18,1.59.48-.52-.71,1.48-1.17,1.13-2.24l-1,.45C43.12,79,43.47,78.72,43.18,78.58Z"/><path class="cls-2" d="M39.93,82.53l-.4.06a3.73,3.73,0,0,1,1.35.85c.67-.27.81-.49.85-.68l-1.94-.15Z"/><path class="cls-2" d="M37.76,82.51c.36-.59,1.3-.86.79-1.57-1.12,0-.83.46-1.53.67,1.84.07-.56.29.73.82a4.5,4.5,0,0,1-1,0,7.21,7.21,0,0,1,.94.41l0,0h0c-.07-.09-.09-.15,0-.09h0a.82.82,0,0,1,.11-.23c.53.2.07.18-.11.23l0,.1h0c.63,0,1.27-.17,1.9-.25A8.24,8.24,0,0,0,37.76,82.51Z"/><path class="cls-2" d="M29.57,77.54a.23.23,0,0,1,0,.16C29.71,77.66,29.76,77.62,29.57,77.54Z"/><path class="cls-2" d="M30.13,78.13a.65.65,0,0,1-.7.07c-.28-.3.1-.3.15-.5-.29.08-1,.16-.33.71l.15,0c.6.44,1.26,1.5,1.12,1.55A5.07,5.07,0,0,0,30.13,78.13Z"/><path class="cls-2" d="M33.84,80.35a11.2,11.2,0,0,0,1.53-.07l-.66-.65,0,.34C33.89,79.7,34,80.11,33.84,80.35Z"/><path class="cls-2" d="M42,83.09l-.21.68c.31-.3.61-.67.9-1Z"/><polygon class="cls-2" points="44.05 82.89 44.02 83.49 44.53 83.09 44.05 82.89"/><path class="cls-2" d="M52.61,8.3l-.42,0A1.21,1.21,0,0,0,52.61,8.3Z"/><path class="cls-2" d="M55.16,9.33l.18-.24C55.16,9.19,55.06,9.28,55.16,9.33Z"/><path class="cls-2" d="M81.25,53.85c.74-.47,1.81-1,1.14-1.07H81.7A1.71,1.71,0,0,1,81.25,53.85Z"/><path class="cls-2" d="M74.62,22.53c0,.08-.05.16-.08.25l.73.07C75.07,22.76,74.87,22.63,74.62,22.53Z"/><path class="cls-2" d="M72.06,23.5l0-.85A2.56,2.56,0,0,0,72.06,23.5Z"/><path class="cls-2" d="M37.83,7.27a7.67,7.67,0,0,0-.36.7C38.13,7.89,37.81,7.61,37.83,7.27Z"/><path class="cls-2" d="M63.62,76.3a4.39,4.39,0,0,0,1.45-.43C64.26,75.93,63.49,75.75,63.62,76.3Z"/><path class="cls-2" d="M56.08,2.18c-.31,0-.47.1-.51.24C55.88,2.41,56.08,2.34,56.08,2.18Z"/><path class="cls-2" d="M66.42,74.86c-.12,0-.22,0-.34.07a3.4,3.4,0,0,1-1,.94A1.38,1.38,0,0,0,66.42,74.86Z"/><path class="cls-2" d="M7.1,44.88A.75.75,0,0,1,7,45C7.13,45,7.13,45,7.1,44.88Z"/><path class="cls-2" d="M6.88,63.21a5,5,0,0,1-.45-.63A1.75,1.75,0,0,0,6.88,63.21Z"/><path class="cls-2" d="M52.23,81.85c-.42.15,0,.08,0,0Z"/><path class="cls-2" d="M49.64,79.86a.44.44,0,0,0,.09-.35A.64.64,0,0,1,49.64,79.86Z"/><path class="cls-2" d="M67,69.12l0,0C66.88,69.09,66.91,69.09,67,69.12Z"/><path class="cls-2" d="M51.52,81.72a2.16,2.16,0,0,0,.58,0A3.9,3.9,0,0,0,51.52,81.72Z"/><path class="cls-2" d="M51.68,82l-.39,0C51.27,82.16,51.33,82.21,51.68,82Z"/><path class="cls-2" d="M52.8,81.66a2.83,2.83,0,0,1-.7.11c.1,0,.14,0,.13.08Z"/><path class="cls-2" d="M14.49,16.79l-.1,0C14.35,17.27,14.42,17.12,14.49,16.79Z"/><path class="cls-2" d="M76.47,42.51l0,.05,0-.06Z"/><path class="cls-2" d="M76,41.21c.79.55.68.88.49,1.29l1.89-.37C77.62,41.8,76.82,41.49,76,41.21Z"/><path class="cls-2" d="M46.17,7l.79.69c-1.2.82-1.87.4-1.19,1.31.19-1,1-1,1.89-.85s1.67.28,2-.7l.47.55c-.16-.06-.22,0-.37,0,.85,1.18,1.2-1.23,2.58-.48.46.32.7.71.29.83l1.28-.11c.3.15.1.44-.21.3.58.15,1.13.37,1.69.55l0,.05a7.46,7.46,0,0,1,1.45-.48c.3.45-.3.11-.3.38.37,0,.76,0,1.13,0,.06.33-.15.51-.45.56a1.4,1.4,0,0,1-1-.16c0,1.11.22,1.07.63,1s1-.11,1.52.89L57.42,11c-.05,1.31.75,1.28,1.24,2.38,0-.42-.83-2.55.33-2.48.18.29.49.52,1.2.48-.38.61.17.78.76,1.15l-.58.77c.75.19,1-.24,1.61-.33.64.56.33,1.24.08,1.87.89,1,0-1.54,1.35-.64a2.7,2.7,0,0,0,1.13,1c.47.24,1.06.39,1.71.71.31.81-.51.31-.51.71l1,0c.1.14-.11.26-.21.32.62.23.73-.63,1.58-.11.47-.25.55.35.65,1.06s.24,1.49,1.07,1.59c0,.39-.55.24-.79.54A16.43,16.43,0,0,0,72,21.35l.06,1.3c.18-1.08,1.46-.63,2.6-.12a7.33,7.33,0,0,0,.29-1.05,12.41,12.41,0,0,1,1.24,1.16c-.05.25-.41.26-.88.21l.33.16c-.06.68-.69.66-1.33.55l.27-.78a2.87,2.87,0,0,0-1.9.32,1.08,1.08,0,0,1,.48.29c-.19,0-.34,0-.4.1s.21.11.53.22l-.8.81.41-.13.24,2c.4.19.82.37,1.25.56a13.52,13.52,0,0,1,1.22.67,5.94,5.94,0,0,1,2.19,2.23c-.89-.33-1.25.26-2.15.5.76-.88-1-1.48-1.18-2.6.11.6-.35.63-.54.55l1.54,1.59c-.74.19-.38.57-.57,1.17,1.34-.82,1.34,1.19,2,1.9-.48.16-1,.08-1.17-.92-.84,1.32,2.13,1,1.34,2.31-.05-.24,0-.39-.26-.44.53.49.41,2-.08,1.7l0-.24a11.32,11.32,0,0,0,.18,1.46c.08.54.13,1.12.26,1.65.24,1.06.69,2,1.3,2.08a12.15,12.15,0,0,1-1.8-.29,45.62,45.62,0,0,1,4.21,3.15c-1.09-.32-3.72.5-4.3-.88a2,2,0,0,0,0,1.67c.19-.24,1.65-.54,1.72-.16-1.35.9-.75.66-1.94,1.74.29-.36,1.94.3,1.8,1-.25-.14-1.69-.21-1.83-.47a21.79,21.79,0,0,1,1.39,1.85c-.21-.45-1.39-.33-1.93-.09.36-.09-.33,1.29-.25,1.73l.52-.55c-.6,1.64,1.85,2.32,1.19,4.09-.25-.33-1.86-1.19-2.34-.42A15.71,15.71,0,0,1,76.68,55a5.23,5.23,0,0,1,1.21,3l-.58.09a11.69,11.69,0,0,1-.08,1.46l-1.52-3c-.57-1.14-1.11-2.23-1.39-2.94-.62.46-.62,0-1,.86-.56.12-.43-.75-.34-1l-1.17,1.88c.48.17.54.66.57,1.16s0,1,.36,1.12A19.9,19.9,0,0,0,72.9,55a2.47,2.47,0,0,1,1.26,1.55A2.54,2.54,0,0,1,73.92,59c-.56.17-1.41-1.15-1.73-1.27.21.34-.18,1.67-.46,1.67l-.13-.87c-.38.29-.27.78-.24,1.26a.94.94,0,0,1-.79,1.09c-.28.27-1.7.15-1.25.55,1.27.2,4.28,2.1,4.71,3-.07,0-.62.33-1.23.61a4.81,4.81,0,0,1-1.71.48c-1.11-.08-1-2.09-2-2.16a1.3,1.3,0,0,1,.23.84c-.45.16-.55-.67-1,.06.68.78-1.22,1.28.38.88-.36.84-.72.59-1.41,1.31.72.23.92,2.22.44,3.08a1.25,1.25,0,0,0-.69-.39,11,11,0,0,1-1,.76c-.33.2-.66.35-1,.51a12.5,12.5,0,0,0-1.9,1.15c-.26-.1-1.08.13-1.06-.43a1.47,1.47,0,0,1-.51,1c-1.33-.22.89-.72-.34-1.2.28.52-.66,1.37-1.1,2.07.66.67,1.56-.75,2-1.44.73,1,.35,2.84-1,4.35-1.15,1-1-.41-1.09-.12a3,3,0,0,0-1.88,1.93,1.69,1.69,0,0,1-1.89,1.23c-1.17-.43-.62-1.49-1-2a2.32,2.32,0,0,1,1.41-.38,2.9,2.9,0,0,0,1.19-.2l-1.05.09a1.85,1.85,0,0,1,1.33-.92c-.94-.26-4.23,1.75-6.42,1.61-.28.35-.82.78-.45,1l.61-.28c.78.47-1,1.19-.08,1.27a14.07,14.07,0,0,1-1.26,1.07,3.16,3.16,0,0,1-.78.39,2.64,2.64,0,0,1-.94.06l-.41-.87c.07.26.94.41,1.24.07-.47.5-2.15-.91-2.54.37l1,.49c-.84.58-1.89,1.82-3.12,1.56.63.87.26-.11,1.23.87-.89-1.19,3.06-.43,1.68-1.61,1.06,1,1.57.33,2.92,1.06-.1-.29-.53-.46.49-.57a1.59,1.59,0,0,1,.16-.32h.07l-.06,0s0-.06,0,0a1.18,1.18,0,0,1-.6-.32c.32-.81,1.84-1.18,2.24-1.66.61,0-.13.39.27.62a6.29,6.29,0,0,0,.59-.75c.27.62,1.85.52.64,1.38l1.21-.41a3.14,3.14,0,0,0,2.37-.64c.61-.13,1.07-1.35.82-.64L60.58,78l.1.14a10.46,10.46,0,0,0,2.44-1.83,6.25,6.25,0,0,1,3-1.41,5.15,5.15,0,0,1,1.84-1.65l.54.32c.55-.67,2.3-1.32,2.17-2a1.59,1.59,0,0,0,1.28-.22,3.72,3.72,0,0,0,1.16-1.09A16.68,16.68,0,0,1,75,67.81l-.56-.52a10,10,0,0,0,1.55-3l-.6-.32c.21-1.14,1.87-2.09,2.68-3.65.17.22-.11.58-.4.77A2.49,2.49,0,0,0,78.86,60a5.4,5.4,0,0,0,.37-1.62,4.07,4.07,0,0,1,1-2.87,1.1,1.1,0,0,1,.36-1.07.24.24,0,0,0,0,.12s0-.11.07-.18.37-.32.54-.5a2.06,2.06,0,0,0-.51.4,5.52,5.52,0,0,0,.19-1.44l.77,0a.6.6,0,0,1,0-.12c.42-.44-.2-.5-.81-.38a2.08,2.08,0,0,0-.24-.79c1.22-.12-.08-1.43,1.26-1.72-.26-.24-.22-.91-.27-1.59s-.31-1.36-.92-1.58c.17,0,.26-.13.24.14a1.91,1.91,0,0,0,.14-1.66l.95-.15c-.35-.46-.72-.92-1.13-1.36.58-.72.92-1,1.6-.23-1-1.91-.35-1.55-1.4-3.1l.6.06c-.06-.56-.91-1.41-.44-1.77A2.91,2.91,0,0,0,81.71,37a13.12,13.12,0,0,0-.22-2.44A38.28,38.28,0,0,1,80.82,29c-.76.56-.65.14-.56-.39s.15-1.16-.51-1c.32-.31.38-.83.91-.45-1-1.42-.24-2.67-1.83-3.25.29-.34.71.08.85-.18-.14-.09-.56-.34-.41-.6s.42.08.7.25c-.84-1.57-2-1.14-3.16-.7a1.49,1.49,0,0,0-.14-1.09,1.53,1.53,0,0,0-1-.4c.18-.44.27-1.08.94-.25-.25-.52-1.41-3.41-2.26-2.89.09-.28-.44-.69-.62-.74a16.93,16.93,0,0,0-1.61-2.19l.1.39c-1.18.32-.88-.64-1.69-1.3l.11-.06c-.51-1.14-.76-1.27-1-1.39s-.4-.29-1-1.39l-.4.61c-1.19,1-.93-2-2.37-2.47l.12.64c-.43-.05-.52-.75-.59-1.54a4.56,4.56,0,0,0-.35-2c-.07-.21.34,0,.59,0-1.16-1.93-.75.62-2.1-.06,0-.57,1-.89.19-1.52-.11-.31-1-.33-1.89-.45a3,3,0,0,1-2.27-1.07c.11.48.2.94-.55.93-1-.27-2-2.56-3.39-1.72a.41.41,0,0,1-.08-.35c-.88,0-2.67-.32-3.3.18,0-1.31-1.34-1.29-2.52-1.23s-2.26.26-2.09-.86L45.18.31l.09-.22a2.65,2.65,0,0,0-2.75.8c-.35-.17-.09-.38-.05-.49-2.3-.58-2.59-.35-4.4.89L37.8.56c-.24.23-1.09,0-2.17-.06a8.4,8.4,0,0,0-1.73,0,3.32,3.32,0,0,0-1.68.6.5.5,0,0,1,.17-.39c-1.15.77-2.77.58-4.15.77s-2.49.56-2.41,2a15.23,15.23,0,0,0-1.24,1.3c2-.74.2,1.21,1.16,1.24-.64.49-2.24.18-1.4-.38l.21.05c-.27-1.43-2.61.68-3-.14-3.67,2.15-7.41,4.21-10.33,7.1.37.13.73.26,1.11.42-.34.31-.64.66-1,1-.43.1-1-.2-.27-.93-.81,0-.72,1.62-.55,1.79-1.62,1.2-.47-1.4-.88-1l-.48.68.22-.06c-.08.81.19,1.09-.53,2.05-.61.49-.77-.08-1,.14-.06-.05-.15,0-.29.36L6.51,18.54l1.13-.11c-.1.87-1,1.34.31,1.2-1,.07-1.87,1.45-2.66,2.82s-1.17,2.88-1.54,3.12a4.31,4.31,0,0,1,0,.88,4.81,4.81,0,0,1-.1.85A10.26,10.26,0,0,1,3.08,29c.28-.25,1.26-.13.8.88-.88-.48-1.3-.06-1.59.58S1.72,32,.91,32.26c.56-.31.44.51.38,1.27s.06,1.49.8,1c-.28.91-.75-.07-1.31.59a5.29,5.29,0,0,1,0,1.82c0,.31-.11.63-.17,1s-.1.65-.16,1A11.88,11.88,0,0,0,.15,43c.27,0,.64-.46,1.07.13-.41.51-.82,1-1.22,1.59.19.56,1.5.37.76,1.48.2-.17.5-.42.64-.06a17.68,17.68,0,0,0,1.68,8.21c.56,1.31,1,2.65,1.57,4a15.64,15.64,0,0,1,.62,2.08c.16.73.39,1.42.49,2.2,0-.93.35-.51.67,0-.09-.39.56-.33.83-.58.13.82.24,1.69.43,2.53,1.07-.24,1.6,2,2.49,1.58l-.58-.48c1.46.06,1.16-2.58,2.43-3.29a.74.74,0,0,1-.75-.52,4.46,4.46,0,0,1-.12-1.15c-.05-.85-.17-1.67-1.39-1.91.07-.45.56,0,.75-.3-.77,0-1.08-.43-1.24-1.38l.18,0a8,8,0,0,1-1.09-2.94l-.22-1.51c-.08-.55-.21-1.13-.26-1.85l-.63.41a2,2,0,0,1,.22-1.13c-1.22-.4.37,1.68-.93,1.4.59-.62.32-1.66.08-2.68s-.26-2.06.49-2.44c-.14-.92-.77.39-.91-.54l.4-.3L6,45.37a1.11,1.11,0,0,1,.93-1c0,.15.13.4.17.56.48-.83-.31-2.18-.16-2.46l-.22.89a10.29,10.29,0,0,1-.26-2c0-.68,0-1.38,0-2.08v-1c0-.35,0-.69,0-1a8.92,8.92,0,0,0-.18-2L6,35.33c-.29-2,.68-1.43.83-3.54l.06.1a2,2,0,0,1,0-1.63c.21.62,1-.71,1.24.08,0-2.15-.22-1.12-.88-2.86l.64-.09a1.86,1.86,0,0,1-.19-1.81c.08,1,1-.27,1.23.88a2.51,2.51,0,0,0,.89-1.17,4.56,4.56,0,0,0,.29-1.11c.12-.68.24-1.23,1.24-1.21-.82-1.68-1.67,1.23-1.68.57-.68.19-.58-1.31-.09-1.86s2.34,0,3.29-1.41c-.11.14,0,.22-.12.35.34-.15.42-.48.53-.82a.92.92,0,0,1,.79-.77c-.43-.93.72-.75-.1-1.62l-.86,1.41c.35-.87-.11-2.47,1.42-3.21a2.83,2.83,0,0,1,0,1.18c.56-.09.38-.83,1-.9.73.88-1.12,1.67-1.07,3,.68,0,.54-1.95,1.19-.73a1,1,0,0,1,.33-1.4,1.47,1.47,0,0,0,.92-1.39l.44.57a1.8,1.8,0,0,1,.37-.94l.18,1.1c.16-1.22,1.73-.75,2.18-1.57-.73.56-1,.47-1.11.24s-.26-.62-.73-.53c1.27-2.24,2.25.6,4-1.22-.22.27-1.28.45-1-.16a2.53,2.53,0,0,1,1.64-.16c1.36-1-.62-.48-.24-1.22,1,.42.54-.75,1.07-1.41l.36.63c.95-.34.92-.65.84-1s-.16-.72.8-.87L25.4,10l.72-.64.19.83a2.06,2.06,0,0,1,2-1.16,1,1,0,0,1,.47-1.59c.72.19-.08.76,1.07.22-.13.53-.21,1.17-.95.73,0,.24-.09.52-.06.76.77.24,1.52-.45,1.94-.61a1,1,0,0,1-.5,0c.22-.26.44-.54.68-.79l.73-.7c.35.19.19.45,0,.71.32-.16.48-.55,1-.74,0,.6.19,1.18-.45,1.63L33.71,7.6c.17.21,1,.47.81.74.95.22,2-1.51,3.33-1.2a.71.71,0,0,1,.43-.33c.59,0,1.15.2,1.72.26a3,3,0,0,0,.89,0,2.53,2.53,0,0,0,1-.31l.75,1.08c1.08-.21-1-1.36.82-1.71,1.32-.29.42.91.84,1.24.64-.45,1.92-1.37,3-.38C46.82,7.11,46.54,6.92,46.17,7Zm12.8,4c-.3,0-1,.15-.94-.32C58.69,10,58.71,10.48,59,10.91ZM74.34,25.09c-.31-.08-.34-.42-.25-.87A1.22,1.22,0,0,1,74.34,25.09ZM56.56,79.82s0,0,0,0C57.34,79.79,57.06,79.77,56.56,79.82ZM55.09,80a.19.19,0,0,0,0,.31c0-.21.33-.34.7-.42C55.65,79.78,55.44,79.72,55.09,80ZM8,17.05l.31-.12C8.16,17.56,8.11,17.31,8,17.05Z"/><path class="cls-2" d="M72.36,23.39a.86.86,0,0,1,.28-.29C72.47,23.07,72.35,23.14,72.36,23.39Z"/><path class="cls-2" d="M37.89,7.14h0a.59.59,0,0,0,0,.13Z"/><path class="cls-2" d="M68.49,63.47a1.08,1.08,0,0,1,.61-.13C69,63.22,68.78,63.21,68.49,63.47Z"/><path class="cls-2" d="M47.86,83.09l.91-.34a1.31,1.31,0,0,1-.88-.09C47.93,82.82,48.15,83,47.86,83.09Z"/><path class="cls-2" d="M39.8,79.07c-.12.09-.26,0-.39.09l0,.34C40,79.49,40.35,79.23,39.8,79.07Z"/><path class="cls-2" d="M46.67,80.85c-.15-.61-.67-.26-1.28-.13a.2.2,0,0,1,.11,0C45.4,81.57,46.05,81.25,46.67,80.85Z"/><path class="cls-2" d="M45.24,80.75a2.16,2.16,0,0,1-.57,0C44.62,81.14,44.91,80.85,45.24,80.75Z"/><path class="cls-2" d="M53.47,81c-.35-.07,0,.8-.21.6C53.15,82.45,55,80.15,53.47,81Z"/><polygon class="cls-2" points="45.93 78.94 46.23 79.65 46.49 78.99 45.93 78.94"/><path class="cls-2" d="M50.7,78.59l-1,0c0,.12-.06.22-.2.31C50.1,78.83,50.78,78.8,50.7,78.59Z"/><path class="cls-2" d="M49.52,79a1.53,1.53,0,0,0-.75.26A2.4,2.4,0,0,0,49.52,79Z"/><polygon class="cls-2" points="47.19 78.5 47.49 78.61 48.16 78.56 47.19 78.5"/><path class="cls-2" d="M60.44,74.91l.79-.75c0-.27-.36-.26-.64,0C60.47,74.48,60.18,74.77,60.44,74.91Z"/><path class="cls-2" d="M56.71,74.48c.31,0,.4.16.64.32L57,74Z"/><path class="cls-2" d="M59.23,73c0-.28.85-1.4-.18-.69C59.1,72.57,58.33,73.25,59.23,73Z"/><polygon class="cls-2" points="71.46 63.87 71.32 64.09 72.56 64.99 71.46 63.87"/><path class="cls-2" d="M74.1,50.66c-.7.94.82.53.07,1.35.25.37.61-.67.82-.32C74.85,50.92,75.17,50.65,74.1,50.66Z"/><path class="cls-2" d="M75,51.69c0,.12.06.26.11.41A.85.85,0,0,0,75,51.69Z"/><polygon class="cls-2" points="8.03 66.27 8.31 67.15 8.37 66.39 8.03 66.27"/><path class="cls-2" d="M9.92,66.87l-.62.78,1-.16C10.14,67.37,9.84,67.13,9.92,66.87Z"/><path class="cls-2" d="M59.6,13.6l.17-.16c.06-.28-.07-.39-.31-.61Z"/><polygon class="cls-2" points="51.46 8.92 51.61 8.99 51.58 8.05 51.46 8.92"/><path class="cls-2" d="M43.56,8.56a5.69,5.69,0,0,1,1,0C43.88,8.57,43.55,7.47,43.56,8.56Z"/><path class="cls-3" d="M40.89,40.32v15H35.81V52.65H31.93v2.67H27.07v-17H31c.07-1.47.11-2.86.14-4.32H25.46V31.51h5.71c.07-1.61.14-3.22.18-4.83-.92,0-1.83,0-2.75-.11s-2.12-.29-3.14-.44v-.4a33.83,33.83,0,0,0,10.61-3.14l5.45,3.14a23.76,23.76,0,0,1-5.05.88l-.26,4.9H41.3V34H36.07a8.41,8.41,0,0,1-2.27,5.12h1.86l1.76-1.39,5.41,1Zm-5.08,1.1H31.93v8.93h3.88Zm20-10.61V55h-4.9V51.48H48.06V55H43.24V30.81H40.46V28.33h2.78V22.88h4.82v5.45h2.86V22.88h4.9v5.45h1.94v2.48Zm-4.9,0H48.06v7.76h2.86Zm0,10H48.06v8.34h2.86Z"/><path class="cls-3" d="M37.6,165.15V139.69h4.77V146H52v2.17H42.37v17h12v2.13H26.77v-2.13Z"/><path class="cls-3" d="M32.39,198.68h.48a4.49,4.49,0,0,1,.09.92,31.94,31.94,0,0,1-.35,4.38A12.46,12.46,0,0,0,35.89,200a8.13,8.13,0,0,0,.51-1.21l.22-.82h5.47a14.22,14.22,0,0,1-1.05,1.3h8.67l1.4-1.3,4.33.89-1.5,1.46c0,2.19-.06,4.35-.09,6.55a19.8,19.8,0,0,1-.19,3.53,2.51,2.51,0,0,1-.7,1.14,6.43,6.43,0,0,1-3.53.92c-1.88,0-.73-.79-1.72-1.78a9.17,9.17,0,0,0-3-.82l0-.45c1.05.06,2.06.16,3.11.16a2.76,2.76,0,0,0,1.37-.26.83.83,0,0,0,.29-.5,15.14,15.14,0,0,0,.19-2.61l0-5H39.26a32,32,0,0,1-6.87,3.91,32.06,32.06,0,0,1-2.6,7l-3.47-3.94A33,33,0,0,0,32.39,198.68Zm-5.08-8c1.24.25,4.35.41,5.08,1.56a4.13,4.13,0,0,1,.8,1.94,2.58,2.58,0,0,1-2.32,2.35c-1.94,0-2-1.21-2.32-2.77a6.63,6.63,0,0,0-1.5-2.89Zm.92-6.29c1.21.12,3.4,0,4.93.92a2.7,2.7,0,0,1,1.52,2.25c0,1.12-.83,2.42-1.91,2.42-1.52,0-1.94-.7-2.44-2a8,8,0,0,0-.89-1.75A7.88,7.88,0,0,0,28,184.69ZM42.85,202a26,26,0,0,1-1.3,2.36c-1.43,2.35-5.12,4.13-7.63,5.18l-.32-.29a19.17,19.17,0,0,0,3.59-4.48,9.38,9.38,0,0,0,.86-1.81l.29-1Zm-8.46-6.48H54.61v2H34.39ZM48.92,202c-.16.61-.35,1.21-.54,1.78a12.09,12.09,0,0,1-3.78,4.71c-2.61,2.22-5.66,3.27-8.9,4.29l-.29-.25c2.32-1.5,4.77-2.9,6.42-5.19A10.75,10.75,0,0,0,44.28,202Zm-8.39-17.6V185h7l1.15-1.37,4.73,1-1.36,1.46v8.61H47.68v-.82H40.53v.82H36.21V184.44Zm7.15,4V187H40.53v1.43Zm0,3.47v-1.47H40.53v1.47Z"/><path class="cls-3" d="M38.27,238.52c-3.34,3.56-6.35,4.33-11,5.31l-.13-.28a17.12,17.12,0,0,0,3.15-2.48,10.77,10.77,0,0,0,1.36-1.5l.67-1Zm-11-3.05H38.65V232c-3.11-.35-6.23-.77-9.34-1.24v-.29c2.61,0,5.24-.25,7.85-.41,1.81-.1,3.59-.32,5.37-.54a31,31,0,0,0,4.17-.7l1.52-.45,5.15,2.51A87.34,87.34,0,0,1,43.45,232v3.49h1.24A23.18,23.18,0,0,0,47.81,232l6,.41a23.5,23.5,0,0,1-6.32,3.05h7.76v2H43.45v5.78h-4.8v-5.78H27.31Zm4.19-3.81c1.4-.13,3.69-.06,4.64.86a2.37,2.37,0,0,1,.67,1.46,1.44,1.44,0,0,1-1.53,1.3A6,6,0,0,1,32,233.79a15.2,15.2,0,0,0-3.34-1.69l.13-.25C29.69,231.82,30.61,231.75,31.5,231.66Zm-1.65,11.76h4.8v.92H47.08l1.14-1.18,5.15,1.05-1.21,1V257H47.43v-1.88H34.65v1.82h-4.8Zm8.65,5.31v-2.29H34.65v2.29Zm0,4.29v-2.29H34.65V253Zm8.93-4.29v-2.29H43.29v2.29Zm0,4.29v-2.29H43.29V253Zm8.1-12c-.92.34-2,.73-2,1.9a3.25,3.25,0,0,0,.32.92l-.29.32c-3.14-.89-6.13-2-7.82-5l-.51-.92,1.21-.26a19.09,19.09,0,0,0,9.06,2.77Z"/><path class="cls-3" d="M29.4,292.74a20,20,0,0,0,.29-2.48l.06-3.62H26.89v-2.13h2.9v-2.67h4.57l-.09,2.67h1.52l1.4-1.34,4.36,1-1.15,1.18c-.06,3.21,0,6.42,0,9.63,0,1.3-.06,2.57-.06,3.87a4.3,4.3,0,0,1-.07,1c-.38,1.49-2.35,1.52-3.59,1.65a11.46,11.46,0,0,1-1.43.1c-2.16,0-.48-1.31-2.1-2.13a9,9,0,0,0-2.06-.64l.16-.38c.92,0,1.84.09,2.76.09a3.7,3.7,0,0,0,1.56-.22c.57-.44.44-1.68.44-2.35,0-3.11.07-6.2.07-9.31H34.3c-.06,1.49-.13,2.92-.22,4.38-.35,4.71-3.69,7.92-7.25,10.59l-.35-.19C28.36,298.87,29,295.82,29.4,292.74Zm3.79-16.88v-2.7H38v2.7h6v-2.7h4.8v2.7h6.1v2h-6.1v3H44v-3H38v3H33.19v-3H26.92v-2Zm13,7.5v1.15h3l1.15-1.27,4.48.92-1.21,1.27v15.7H49.3v-1.72H46.22v1.78H42V283.36Zm3.08,3.18H46.22v10.81H49.3Z"/><path class="cls-3" d="M76.46,236.38c0,.68,0,1.65,0,2.85,0,1.52,0,2.47,0,3a.76.76,0,0,1-.66,0,10.2,10.2,0,0,0-.16-1.12c-.11-.46-.29-.58-1-.63-1.75-.08-4.67-.06-7.35-.06,0,0-.13.05-.13.1,0,.3,0,1.2,0,1.57s.13.58.62.83a12,12,0,0,0,1.44.59,1,1,0,0,1-.18.73,29,29,0,0,0-3-.37s-.13-.12-.12-.17a5,5,0,0,0,.22-1.57v-6a6.84,6.84,0,0,0-.2-2,.24.24,0,0,1,.15-.1,18.55,18.55,0,0,0,3,.43,1.27,1.27,0,0,1,0,.72,7.54,7.54,0,0,0-1.52.33.65.65,0,0,0-.53.64,16.94,16.94,0,0,0,0,1.72.19.19,0,0,0,.16.07c2.4,0,6.53,0,7.54,0a.76.76,0,0,0,.76-.43,5.26,5.26,0,0,0,.22-1.2A.94.94,0,0,1,76.46,236.38Z"/><path class="cls-3" d="M72.91,227.05a3.38,3.38,0,0,1,3,1.55,4.84,4.84,0,0,1,.68,2.37A3.64,3.64,0,0,1,70,233.22a4.76,4.76,0,0,1-.69-2.45A3.43,3.43,0,0,1,72.91,227.05Zm-2.67,4.57c.29.44.89.67,2.18.67,2.32,0,3.45-.71,3.45-1.64a.9.9,0,0,0-.17-.52c-.33-.37-1-.59-2.32-.59-2,0-3.28.6-3.28,1.64A1,1,0,0,0,70.24,231.62Z"/><path class="cls-3" d="M75.65,225.48c-.1-.29-.32-.31-.71-.32-.61,0-3-.07-3.52,0a.74.74,0,0,0-.35.1,2.51,2.51,0,0,0-.48.73.9.9,0,0,1-.57-.07,14.67,14.67,0,0,0-.75-3,.22.22,0,0,1,.14-.08l1,0a.06.06,0,0,0,0-.1,4.12,4.12,0,0,1-1.07-2.25,2,2,0,0,1,1.13-1.76c.07,0,.06,0,0-.12a4.29,4.29,0,0,1-1.13-2.38c0-1.34,1.07-2.2,2.81-2.2l3.06,0a.55.55,0,0,0,.24-.07c.19-.17.24-.47.35-.95a1.12,1.12,0,0,1,.66.07c0,.44,0,1.27,0,2s0,1.37,0,1.94a1.14,1.14,0,0,1-.66,0,2.18,2.18,0,0,0-.1-.39c-.1-.28-.23-.32-.71-.33-1.13,0-2.62,0-3.16.06a1.1,1.1,0,0,0-1,1.17,1.86,1.86,0,0,0,.34,1,.14.14,0,0,0,.1,0,7.31,7.31,0,0,1,1.24-.1h2.65c.24,0,.38,0,.44-.2a1.85,1.85,0,0,0,.22-.64.88.88,0,0,1,.66.06c0,.68,0,1.32,0,2.12s0,1.25,0,1.71a1.23,1.23,0,0,1-.66,0,2.24,2.24,0,0,0-.13-.54c-.07-.19-.3-.22-.51-.24a32,32,0,0,0-3.43.05,1.12,1.12,0,0,0-1,1.15,1.52,1.52,0,0,0,.27.83.36.36,0,0,0,.32.15h3.73c.42,0,.54-.11.62-.38a3.13,3.13,0,0,0,.1-.47,1.24,1.24,0,0,1,.66.07c0,.67,0,1.32,0,2,0,1.16,0,1.46,0,1.93a1.07,1.07,0,0,1-.66,0A1.86,1.86,0,0,0,75.65,225.48Z"/><path class="cls-3" d="M71.13,208.88a1.39,1.39,0,0,0-.52,1.17,1.24,1.24,0,0,0,.25.8,9.25,9.25,0,0,0,1,.55c.06.09-.19.7-.31.7a4.67,4.67,0,0,1-1.17-.37A6.26,6.26,0,0,1,69.34,209a2.43,2.43,0,0,1,1-2,2.89,2.89,0,0,1,1.71-.44c.79,0,1.91,0,2.61,0,.33,0,.62-.12.62-.46a2.09,2.09,0,0,0-.08-.59,1.94,1.94,0,0,1,.74.1,3.4,3.4,0,0,1,.64,1.88c0,.56-.2.93-.5,1a1.81,1.81,0,0,1-.31.09s0,.06,0,.08a4.72,4.72,0,0,1,.82,1.91,1.6,1.6,0,0,1-.41,1,2.27,2.27,0,0,1-1.69.69,2.85,2.85,0,0,1-1-.29c-.3-.54-.81-2.69-1.07-3.3a.24.24,0,0,0-.18-.13.78.78,0,0,0-.22,0A1.54,1.54,0,0,0,71.13,208.88Zm1.9-.17a11.48,11.48,0,0,0,.56,1.44,1.41,1.41,0,0,0,.54.14,1.08,1.08,0,0,0,1.18-1.12.56.56,0,0,0-.1-.39.35.35,0,0,0-.29-.1c-.54,0-1.52,0-1.81,0C73.08,208.65,73,208.68,73,208.71Z"/><path class="cls-3" d="M70.68,202a.19.19,0,0,0,.1.06l2.54,0a6.17,6.17,0,0,0,1.27-.07.85.85,0,0,0,.67-.89,1.56,1.56,0,0,0-.25-.93,1.43,1.43,0,0,1,.68,0,2.58,2.58,0,0,1,.91,2.07,1.88,1.88,0,0,1-.85,1.77,3.31,3.31,0,0,1-1.82.27H70.85c-.07,0-.16,0-.17.08l-.05.87a3.91,3.91,0,0,1-.78-.17c0-.22-.14-.56-.19-.7a.28.28,0,0,0-.15-.08c-.1,0-1,0-1.42,0a9,9,0,0,0-.92-1.86,2.09,2.09,0,0,1,0-.42c.44,0,1.32.06,2.34.06.07,0,.12,0,.12-.06,0-.29,0-1.43-.07-1.92a10.32,10.32,0,0,0,1.18.19C70.68,200.8,70.68,201.44,70.68,202Z"/><path class="cls-3" d="M72.91,191.85a3.37,3.37,0,0,1,3,1.56,4.77,4.77,0,0,1,.68,2.36A3.4,3.4,0,0,1,73,199.53,3.44,3.44,0,0,1,70,198a4.83,4.83,0,0,1-.69-2.46A3.43,3.43,0,0,1,72.91,191.85Zm-2.67,4.57c.29.44.89.67,2.18.67,2.32,0,3.45-.71,3.45-1.64a.9.9,0,0,0-.17-.52c-.33-.37-1-.59-2.32-.59-2,0-3.28.61-3.28,1.64A1,1,0,0,0,70.24,196.42Z"/><path class="cls-3" d="M66.14,187.52c0-.4,0-1.06,0-2.52s0-2.13,0-2.55a1,1,0,0,1,.66,0,4.12,4.12,0,0,0,.16.81c.11.34.35.41.82.41.78,0,1.75,0,2.69,0,.07,0,.11,0,.12-.09a14.66,14.66,0,0,0,0-2.13c0-1.12,0-1.62,0-1.84,0,0-.07-.1-.12-.1H67.58c-.22,0-.51.1-.59.34a3.75,3.75,0,0,0-.19,1c-.08.09-.59.09-.66,0,0-.74,0-1.26,0-2.6s0-1.95,0-2.47a.8.8,0,0,1,.66,0,3.41,3.41,0,0,0,.17.84c.12.31.31.41.83.43,1.12,0,1.86,0,3.72,0,1.15,0,2.47,0,3.24,0,.4,0,.69-.07.82-.37a5.09,5.09,0,0,0,.22-1.1,1.11,1.11,0,0,1,.66.08c0,.43,0,1.27,0,2.59s0,2.24,0,2.61a.84.84,0,0,1-.66,0,7,7,0,0,0-.15-.87c-.08-.27-.32-.4-.79-.42-.82,0-1.9,0-3,0,0,0-.12,0-.12.08,0,.34,0,1.17,0,1.93a11.73,11.73,0,0,0,0,2.11s.08,0,.1,0c1.08,0,2.11,0,2.83,0,.47,0,.76-.05.89-.46a7.23,7.23,0,0,0,.2-1,.87.87,0,0,1,.66.07c0,.3,0,1.11,0,2.76,0,1.33,0,2.18,0,2.5a1.14,1.14,0,0,1-.66,0,7.85,7.85,0,0,0-.15-.8c-.12-.45-.37-.55-1.05-.6-.25,0-1.82,0-3.33,0s-3,0-3.47,0-.74.1-.83.44a5.94,5.94,0,0,0-.17.93A1.14,1.14,0,0,1,66.14,187.52Z"/><path class="cls-3" d="M72.91,167.32a3.37,3.37,0,0,1,3,1.56,4.84,4.84,0,0,1,.68,2.37A3.41,3.41,0,0,1,73,175,3.45,3.45,0,0,1,70,173.5a4.79,4.79,0,0,1-.69-2.45A3.44,3.44,0,0,1,72.91,167.32Zm-2.67,4.57c.29.44.89.68,2.18.68,2.32,0,3.45-.71,3.45-1.64a.91.91,0,0,0-.17-.53c-.33-.37-1-.59-2.32-.59-2,0-3.28.61-3.28,1.64A1,1,0,0,0,70.24,171.89Z"/><path class="cls-3" d="M70.68,163.23s.07.07.1.07l2.54,0a6.17,6.17,0,0,0,1.27-.07.85.85,0,0,0,.67-.9,1.58,1.58,0,0,0-.25-.93,1.58,1.58,0,0,1,.68,0,2.56,2.56,0,0,1,.91,2.06,1.9,1.9,0,0,1-.85,1.78,3.31,3.31,0,0,1-1.82.27l-3.08,0c-.07,0-.16,0-.17.09l-.05.86a3.32,3.32,0,0,1-.78-.17,7.09,7.09,0,0,0-.19-.69.27.27,0,0,0-.15-.09H68.09a9.31,9.31,0,0,0-.92-1.87,1.93,1.93,0,0,1,0-.42c.44.05,1.32.07,2.34.07.07,0,.12,0,.12-.07,0-.29,0-1.42-.07-1.91a10.32,10.32,0,0,0,1.18.19C70.68,162,70.68,162.66,70.68,163.23Z"/><path class="cls-3" d="M70.12,160.78a15.12,15.12,0,0,0-1-3.1s.12-.17.15-.17.58,0,.88,0c0,0,.07-.09,0-.12a4.9,4.9,0,0,1-.91-2.2,2.36,2.36,0,0,1,.8-1.79,3.38,3.38,0,0,1,2.3-.83A3.72,3.72,0,0,1,75.52,154a5.28,5.28,0,0,1,1.11,3.15v.34s0,.05.09.05c.3,0,1.47,0,1.88,0s.62-.11.72-.5c.06-.22.09-.65.16-1a1.51,1.51,0,0,1,.64.1v.46a36.59,36.59,0,0,0,.22,4.38,1.12,1.12,0,0,1-.68,0,5,5,0,0,0-.2-.86c-.12-.27-.39-.32-.81-.32s-2,0-3.57,0c-1.85,0-2.76,0-3.56,0a.58.58,0,0,0-.56.3,3.82,3.82,0,0,0-.21.71A1.48,1.48,0,0,1,70.12,160.78ZM71,157.4a.4.4,0,0,0,.27.17c.49,0,2.52,0,3.25,0a1.24,1.24,0,0,0,.93-.44,1.44,1.44,0,0,0,.32-1,1,1,0,0,0-.41-.81,3.06,3.06,0,0,0-1.86-.49,3.4,3.4,0,0,0-2.06.54,1.49,1.49,0,0,0-.63,1.27A1.77,1.77,0,0,0,71,157.4Z"/><path class="cls-3" d="M72.91,143.64a3.37,3.37,0,0,1,3,1.56,4.84,4.84,0,0,1,.68,2.37A3.41,3.41,0,0,1,73,151.33,3.45,3.45,0,0,1,70,149.82a4.79,4.79,0,0,1-.69-2.45A3.44,3.44,0,0,1,72.91,143.64Zm-2.67,4.57c.29.44.89.68,2.18.68,2.32,0,3.45-.71,3.45-1.64a.91.91,0,0,0-.17-.53c-.33-.37-1-.59-2.32-.59-2,0-3.28.61-3.28,1.64A1,1,0,0,0,70.24,148.21Z"/><path class="cls-3" d="M70.68,139.55s.07.07.1.07l2.54,0a6.17,6.17,0,0,0,1.27-.07.85.85,0,0,0,.67-.9,1.58,1.58,0,0,0-.25-.93,1.58,1.58,0,0,1,.68,0,2.56,2.56,0,0,1,.91,2.06,1.9,1.9,0,0,1-.85,1.78,3.31,3.31,0,0,1-1.82.27l-3.08,0c-.07,0-.16,0-.17.09l-.05.86a3.32,3.32,0,0,1-.78-.17,7.09,7.09,0,0,0-.19-.69.27.27,0,0,0-.15-.09H68.09a9.31,9.31,0,0,0-.92-1.87,1.93,1.93,0,0,1,0-.42c.44,0,1.32.07,2.34.07.07,0,.12,0,.12-.07,0-.29,0-1.42-.07-1.91a10.32,10.32,0,0,0,1.18.19C70.68,138.33,70.68,139,70.68,139.55Z"/><line class="cls-4" x1="41.47" y1="95.3" x2="41.47" y2="125.82"/><line class="cls-4" x1="41.47" y1="354.18" x2="41.47" y2="384.7"/><circle class="cls-1" cx="40.67" cy="328.1" r="14.31"/><path class="cls-5" d="M33.08,324.74v-1.6h1.34v1.6h.67v.62h-.67v1.75c.28-.21.53-.45.82-.67l.13.06a7.57,7.57,0,0,1-.95,1.56v3.84H33.08v-2.67a13.17,13.17,0,0,1-1.35,1l-.35-1.61a7.9,7.9,0,0,0,1.7-.7v-2.57h-.37A4.22,4.22,0,0,1,31.65,327l-.11,0a9.93,9.93,0,0,0,.19-2c0-.49,0-1,0-1.46h1.22c0,.42,0,.83-.09,1.25Zm3.81.87v-.95H35.52V324h1.37v-.89h1.43V324h1.35v.65H38.32v.95H40.1v.66H34.93v-.66Zm-1.77,2.47a5.48,5.48,0,0,1,1.55.53,1.23,1.23,0,0,1,.61.9c0,.47-.45.65-.73.65a.77.77,0,0,1-.41-.11,2.36,2.36,0,0,1-.4-.79,4,4,0,0,0-.71-1.11Zm2.61-.86v-.82h1.43v.82h.89v.64h-.89v3.06a1.2,1.2,0,0,1-.09.5c-.14.31-1.51.42-1.88.42,0,0-.23,0-.26,0s0-.45-.36-.7a3.87,3.87,0,0,0-1.07-.24v-.13c.5,0,1,0,1.49,0a1.74,1.74,0,0,0,.65-.08.33.33,0,0,0,.08-.22v-2.61H35.11v-.64Z"/><path class="cls-5" d="M45,323.11a5.21,5.21,0,0,1-.48.63H47l.62-.48,1.68.46c-.18.09-.39.17-.58.27a.73.73,0,0,0-.08.09l-.17.15a4.71,4.71,0,0,1-.56.44,3,3,0,0,1-.53.34L46,325.6h1.79l.42-.38,1.47.33-.48.43v2.94H47.7v-.6H43.62V330a.79.79,0,0,0,.07.37c.06.12.29.2.42.25a11.76,11.76,0,0,0,2.32.15,3.64,3.64,0,0,0,2-.35,8.62,8.62,0,0,0,1.06-1.26l.14.05a3.68,3.68,0,0,0-.31.86c0,.43.6.36.6.52a.31.31,0,0,1-.06.16,1.91,1.91,0,0,1-.91.72,9.42,9.42,0,0,1-2.77.29,12.29,12.29,0,0,1-3-.26c-.26-.09-.76-.27-.85-.57a2.36,2.36,0,0,1-.12-.75v-4.85c-.26.11-.52.2-.79.29l0-.08a5.94,5.94,0,0,0,1.73-2.41Zm-1.38,2.18v.31H45.2a10.62,10.62,0,0,0,1.35-1.24H43.86a9,9,0,0,1-1.65.93ZM45,327.67v-1.41H43.62v1.41Zm2.7,0v-1.41H46.33v1.41Z"/></g></g></svg>