<svg xmlns="http://www.w3.org/2000/svg" viewBox="0 0 91.89 388.34"><defs><style>.cls-1{fill:#a9000d;}.cls-2{fill:#a98d66;}.cls-3{fill:#fff;}.cls-4{fill:none;stroke:#000;stroke-miterlimit:10;}.cls-5{fill:#231f20;}.cls-6{fill:#307e45;}.cls-7{fill:#af3637;}.cls-8{fill:#cd3d40;}</style></defs><title>資產 38</title><g id="圖層_2" data-name="圖層 2"><g id="work"><circle class="cls-1" cx="46.08" cy="44.66" r="34.68"/><path class="cls-2" d="M.74,50.64c0-.43-.62-.2-.74-.25C.26,51.08.9,50.59.74,50.64Z"/><polygon class="cls-2" points="3.58 57.07 3.3 57.03 4.17 57.81 3.58 57.07"/><path class="cls-2" d="M5.73,63c.74-1-1-2.06-1.07-3.26l.16-.26-1-.19C4.46,60.59,5.63,62,5.73,63Z"/><path class="cls-2" d="M5.24,67.17c.27-.4.67.51-.26-.8a.74.74,0,0,1,0,.18A3.39,3.39,0,0,1,5.24,67.17Z"/><path class="cls-2" d="M5,66.55c-.35-.61-.09.58,0,0Z"/><path class="cls-2" d="M6.78,69.23,6,68.65c-.1.29.3,1,0,.85C6.63,70.21,6.73,69.9,6.78,69.23Z"/><path class="cls-2" d="M7.91,69.54l-.39-.31C7.48,69.36,7.52,69.48,7.91,69.54Z"/><path class="cls-2" d="M6.7,68.56l.82.67c.08-.2.36-.4-.35-.32C7.48,68.81,7.12,68.81,6.7,68.56Z"/><path class="cls-2" d="M6.53,68c-.09-.54-.25-1.2.51-.59C6.11,66,5.53,66.56,6.53,68Z"/><path class="cls-2" d="M6.88,62.86c0-.23,0-.47,0-.71l-.53-.37c.13.09.18.41.23.68S6.74,63,6.88,62.86Z"/><path class="cls-2" d="M9.69,74.25c.21-.1.28-.63.46-.87L9.53,73C9.62,73.38,9.92,74,9.69,74.25Z"/><path class="cls-2" d="M10.15,73.38l.93.55C10.56,73.2,10.31,73.18,10.15,73.38Z"/><polygon class="cls-2" points="8.99 69.02 7.42 68.1 9.17 69.28 8.99 69.02"/><polygon class="cls-2" points="12.28 77.2 11.49 77.14 12.79 77.34 12.28 77.2"/><path class="cls-2" d="M14.18,79c-.63,0,0,.93-.58.83a4.61,4.61,0,0,0,2,.63A2.6,2.6,0,0,1,14.18,79Z"/><path class="cls-2" d="M16.56,80.67a5.41,5.41,0,0,0-1-.22A2.63,2.63,0,0,0,16.56,80.67Z"/><path class="cls-2" d="M12.11,75.29a1.1,1.1,0,0,0,.07,1l.2-.72Z"/><path class="cls-2" d="M12.38,75.56v0l.56.64Z"/><path class="cls-2" d="M12,75.22l.07.07C12.13,75.22,12.13,75.19,12,75.22Z"/><path class="cls-2" d="M10,71.47c.65.25,1.69.94,1.41-.29C10.78,71.12,10.94,71.83,10,71.47Z"/><path class="cls-2" d="M12.31,74.33a10.3,10.3,0,0,1-.55-.9c-.12.12-.19.43-.51.32C11.61,74,11.94,74.16,12.31,74.33Z"/><polygon class="cls-2" points="12.81 74.57 12.31 74.33 12.54 74.65 12.81 74.57"/><path class="cls-2" d="M15.54,79a3.25,3.25,0,0,1,1.39.74,9,9,0,0,0-1.26-1.34C15.47,78.5,15,78.6,15.54,79Z"/><path class="cls-2" d="M14,77.34l.1,0C14.09,77.3,14.06,77.25,14,77.34Z"/><polygon class="cls-2" points="21.42 83.08 21.41 82.93 21.33 83.01 21.42 83.08"/><path class="cls-2" d="M15.67,78.25a1,1,0,0,0-.9-.47,6.14,6.14,0,0,1,.9.63C15.76,78.37,15.8,78.33,15.67,78.25Z"/><path class="cls-2" d="M18,81.44c-.12-.25-.27-.5-.41-.77C17.6,81,17.8,81.52,18,81.44Z"/><path class="cls-2" d="M14.08,77.62l-.07,0C14,77.8,14.05,77.74,14.08,77.62Z"/><path class="cls-2" d="M14.08,77.62a2.1,2.1,0,0,0,.69.16,3.68,3.68,0,0,0-.68-.39A.89.89,0,0,1,14.08,77.62Z"/><path class="cls-2" d="M25,80.4a1.33,1.33,0,0,1-2.07-.69c-1-.17-1.64,1.78-1.49,3.22.17-.21.28-.37,1.36-.16-.18-.42-1.48-1.88-.48-1.84,1.25.5.81.74,1.2,1.36-.09-.91,2-.1,2.28-1.19l-1.17-.23C24.67,80.72,25.16,80.68,25,80.4Z"/><path class="cls-2" d="M19.81,81.73l-.4-.19a4.15,4.15,0,0,1,.77,1.53c.76.18,1,.08,1.15-.06l-1.69-1.29Z"/><path class="cls-2" d="M17.85,80.4c.64-.26,1.65.07,1.57-.84-1-.7-1-.11-1.75-.37,1.63,1.19-.67-.1.21,1.14a5.7,5.7,0,0,1-.95-.58,9.36,9.36,0,0,1,.63.92l0-.07h0c0-.12,0-.17,0-.07h0a1.27,1.27,0,0,1,.22-.13c.37.49,0,.2-.22.13l-.08.06h0c.59.37,1.26.63,1.87.94A9.53,9.53,0,0,0,17.85,80.4Z"/><path class="cls-2" d="M13.11,71.13a.17.17,0,0,1-.07.14C13.17,71.32,13.24,71.32,13.11,71.13Z"/><path class="cls-2" d="M13.3,72c-.15,0-.43,0-.66-.38s.24-.19.4-.34c-.3-.11-1-.47-.67.41l.15,0c.31.75.34,2.07.18,2A5,5,0,0,0,13.3,72Z"/><path class="cls-2" d="M15.46,76.18a12.92,12.92,0,0,0,1.42.88l-.25-1-.19.27C15.85,75.66,15.73,76.07,15.46,76.18Z"/><path class="cls-2" d="M21.41,83.46l-.56.44c.44-.06.92-.19,1.37-.29Z"/><polygon class="cls-2" points="23.39 84.5 23.02 84.98 23.71 84.96 23.39 84.5"/><path class="cls-2" d="M76.53,21.11l-.39-.22A1.34,1.34,0,0,0,76.53,21.11Z"/><path class="cls-2" d="M78.28,23.63l.28-.09C78.35,23.5,78.22,23.52,78.28,23.63Z"/><path class="cls-2" d="M74.8,80.33c.92,0,2.14.1,1.63-.35l-.6-.35A2,2,0,0,1,74.8,80.33Z"/><path class="cls-2" d="M87.91,47.78l-.2.18.56.5A6.53,6.53,0,0,0,87.91,47.78Z"/><path class="cls-2" d="M85.24,47.14l.44-.82A3,3,0,0,0,85.24,47.14Z"/><path class="cls-2" d="M63.46,11.05c-.24.12-.48.23-.73.37C63.4,11.75,63.25,11.32,63.46,11.05Z"/><path class="cls-2" d="M45.21,90.27a5.16,5.16,0,0,0,1.58.43C46,90.31,45.42,89.73,45.21,90.27Z"/><path class="cls-2" d="M82.88,18c-.29-.17-.48-.19-.59-.1C82.58,18.08,82.79,18.15,82.88,18Z"/><path class="cls-2" d="M48.63,90.59l-.35-.12a3.92,3.92,0,0,1-1.49.23A1.6,1.6,0,0,0,48.63,90.59Z"/><path class="cls-2" d="M11.85,27.28a1,1,0,0,1-.13.09C11.8,27.43,11.83,27.37,11.85,27.28Z"/><path class="cls-2" d="M1.17,44.21a7.27,7.27,0,0,1,0-.85A1.86,1.86,0,0,0,1.17,44.21Z"/><path class="cls-2" d="M31.48,88.43c-.46-.11-.09,0,0,0Z"/><path class="cls-2" d="M30.22,85.29a.44.44,0,0,0,.29-.23A.55.55,0,0,1,30.22,85.29Z"/><path class="cls-2" d="M52.69,86.09h0C52.58,86,52.6,86,52.69,86.09Z"/><path class="cls-2" d="M30.9,87.93a2.58,2.58,0,0,0,.51.37A3.38,3.38,0,0,0,30.9,87.93Z"/><path class="cls-2" d="M30.89,88.25l-.37-.2C30.42,88.14,30.45,88.22,30.89,88.25Z"/><path class="cls-2" d="M32.12,88.61a2.83,2.83,0,0,1-.71-.31c.08.07.1.12.07.13Z"/><path class="cls-2" d="M36,5.87l-.1,0C35.52,6.21,35.69,6.12,36,5.87Z"/><path class="cls-2" d="M77.75,67.48s0,0,0,0l0,0Z"/><path class="cls-2" d="M78.18,66c.32,1,0,1.2-.38,1.48l1.81.68C79.15,67.45,78.67,66.73,78.18,66Z"/><path class="cls-2" d="M71.39,15.91,71.75,17c-1.55-.06-1.94-.84-1.81.36.7-.71,1.51-.18,2.2.47s1.38,1.29,2.18.65l.14.76c-.12-.15-.23-.09-.34-.24.16,1.55,1.75-.28,2.59,1.23.25.56.26,1.05-.18.89l1.21.72c.2.32-.14.45-.34.13.44.49.81,1,1.22,1.56l-.06,0a7.8,7.8,0,0,1,1.55.5c0,.58-.33-.1-.47.14.33.23.7.44,1,.69-.13.34-.41.36-.69.21a1.68,1.68,0,0,1-.8-.76c-.59,1-.36,1.07,0,1.27s.9.52.87,1.76l-.69-.78c-.72,1.12,0,1.61-.14,2.9.23-.36.6-2.8,1.58-2a1.4,1.4,0,0,0,.81,1.18c-.66.31-.27.81,0,1.52l-.91.31c.56.66,1,.42,1.58.73.26.91-.37,1.33-.92,1.73.25,1.46.86-1.36,1.5.29a3.39,3.39,0,0,0,.42,1.67c.27.51.7,1,1.08,1.71-.17.94-.6,0-.81.33l.88.62c0,.2-.23.18-.35.17.41.6,1-.12,1.4.88.53.07.28.67,0,1.38s-.62,1.52,0,2.13c-.25.33-.6-.12-1,0a20.47,20.47,0,0,0,1.72,2.95l-.66,1.24c.74-.9,1.56.3,2.23,1.46a8,8,0,0,0,.82-.8,12.83,12.83,0,0,1,.39,1.82c-.18.2-.48,0-.85-.34.07.13.13.25.19.34-.43.59-.94.2-1.42-.28l.67-.56a2.76,2.76,0,0,0-1.77-.85,1.27,1.27,0,0,1,.25.56c-.16-.12-.3-.19-.39-.15s.12.24.32.53L85,48.32l.41.13-.93,2c.22.41.47.83.72,1.26s.43.87.62,1.34a6.87,6.87,0,0,1,.54,3.36c-.55-.82-1.19-.48-2.07-.78,1.13-.38,0-2,.51-3.12-.25.62-.65.38-.76.19l.37,2.39c-.72-.25-.65.32-1.16.77,1.59,0,.42,1.89.56,2.93-.49-.12-.91-.51-.44-1.53-1.46.76,1.2,2.16-.24,2.93.11-.26.24-.36.05-.56.15.76-.83,2.07-1.08,1.54l.11-.25a12.65,12.65,0,0,0-.72,1.47c-.26.55-.57,1.11-.78,1.68-.44,1.11-.61,2.2-.17,2.65a11.75,11.75,0,0,1-1.33-1.26,50.28,50.28,0,0,1,1.6,5.2c-.71-.89-3.43-1.56-3.06-3.16a2.46,2.46,0,0,0-1.07,1.52c.32-.11,1.73.41,1.54.79a9.92,9.92,0,0,0-2.7.56c.46-.18,1.44,1.31.92,1.84-.12-.26-1.29-1.1-1.26-1.41a22.12,22.12,0,0,1,0,2.44c.1-.53-1-1-1.59-1.13.36.11-1.09,1-1.3,1.45l.79-.23c-1.54,1.18.13,3.09-1.54,4.33,0-.44-.86-2.06-1.76-1.62a17.59,17.59,0,0,1,.33,2.87,5.67,5.67,0,0,1-.86,3.33l-.57-.22a13.13,13.13,0,0,1-1,1.23c.11-.75.31-2.12.53-3.41s.44-2.58.64-3.35c-.82.08-.5-.37-1.38.25-.57-.18.1-.89.34-1.08l-2.22,1.07c.31.4,0,.87-.24,1.34s-.64.82-.39,1.17A22.35,22.35,0,0,0,66.83,77,2.42,2.42,0,0,1,67,79a3.27,3.27,0,0,1-.62,1.2,2.92,2.92,0,0,1-1.12.8c-.6-.14-.52-1.75-.72-2,0,.41-1.22,1.37-1.47,1.22l.43-.83c-.52.06-.73.54-1,1a1.09,1.09,0,0,1-1.39.53c-.42.1-1.62-.76-1.47-.17,1,.83,2.49,4.08,2.33,5.07-.09,0-.76,0-1.48-.12a5.53,5.53,0,0,1-1.83-.49c-1-.67.4-2.35-.43-2.92a1.35,1.35,0,0,1-.33.85c-.5-.11-.07-.87-1-.49.13,1-1.9.45-.2,1-.85.51-1,.12-2.1.36.5.58-.54,2.38-1.51,2.85a1.16,1.16,0,0,0-.39-.7,12.13,12.13,0,0,1-1.37.11c-.42,0-.82-.06-1.2-.09A13.74,13.74,0,0,0,47.68,86c-.19-.23-1.09-.48-.72-.94a1.57,1.57,0,0,1-1.06.52c-1.09-.91,1.25-.1.42-1.18-.06.59-1.45.78-2.28,1.12.21.93,1.89.23,2.69-.11,0,1.26-1.41,2.55-3.54,3.07-1.67.22-.64-.87-.94-.7a3.5,3.5,0,0,0-2.88.54,1.93,1.93,0,0,1-2.46,0c-.83-1,.29-1.58.19-2.2a2.75,2.75,0,0,1,1.53.48,3.38,3.38,0,0,0,1.22.51l-1-.52a2.18,2.18,0,0,1,1.77,0c-.71-.74-5-.94-6.9-2.33-.46.13-1.22.17-1,.58l.73.13c.45.83-1.59.41-.8,1a16,16,0,0,1-1.78.15,4,4,0,0,1-.95-.13,3.24,3.24,0,0,1-.9-.5l.12-1c-.09.26.63.89,1.1.79-.71.13-1.48-2-2.56-1.19l.65,1c-1.1,0-2.76.41-3.74-.55.09,1.1.29.06.63,1.46-.14-1.52,3.06,1.44,2.46-.36A2.1,2.1,0,0,0,28.53,87a4.12,4.12,0,0,1,1.2,1.25c.07-.29-.22-.68.79-.19a1.38,1.38,0,0,1,.32-.17l.06.05,0-.06c.06,0,.07,0,0,0a1.15,1.15,0,0,1-.38-.61c.76-.48,2.37.09,3-.07.57.34-.35.24-.11.67.32-.08.65-.17,1-.28-.1.66,1.4,1.47-.21,1.5l1.36.35a3.67,3.67,0,0,0,2.55.82c.64.23,1.77-.52,1.12-.08L41.39,90v.17A12.23,12.23,0,0,0,44.73,90a7.57,7.57,0,0,1,3.55.45A6,6,0,0,1,51,90.08l.3.56c.9-.25,2.88.13,3.18-.52a1.79,1.79,0,0,0,1.29.5,4.24,4.24,0,0,0,1.7-.31,20.79,20.79,0,0,1,3.23-1.09l-.18-.74a12,12,0,0,0,3.22-1.73l-.34-.59c.9-.88,3-.84,4.63-1.77,0,.29-.45.45-.83.47a2.92,2.92,0,0,0,1.78-.38,6.18,6.18,0,0,0,1.33-1.23,4.89,4.89,0,0,1,2.69-2,1.3,1.3,0,0,1,1-.76.26.26,0,0,0-.07.11l.17-.13c.24,0,.51-.09.78-.16a2.71,2.71,0,0,0-.7.09,6.77,6.77,0,0,0,1.07-1.18l.66.39.09-.1c.63-.16.14-.55-.45-.77a2.25,2.25,0,0,0,.28-.84c1.12.55.82-1.32,2.13-.87-.07-.35.38-.94.75-1.57s.57-1.4.19-1.93c.14.09.31,0,.12.26a2.3,2.3,0,0,0,1.14-1.44l.89.38a16.77,16.77,0,0,0-.13-1.85c.93-.34,1.41-.46,1.48.66.3-2.31.65-1.6.71-3.61l.46.39c.29-.55.09-1.8.69-1.87a3.32,3.32,0,0,0,1.3-1.23,15.19,15.19,0,0,0,1.25-2.37c.92-1.77,1.58-3.91,2.66-5.47-1,.08-.62-.25-.24-.68s.78-1,.14-1.22c.45-.1.79-.54,1,.12,0-1.89,1.33-2.6.32-4.06.44-.15.55.49.82.34-.07-.17-.28-.65,0-.8s.31.32.45.64c.18-1.93-1.07-2.25-2.24-2.51a1.77,1.77,0,0,0,.5-1.08,1.7,1.7,0,0,0-.63-1c.4-.29.82-.82.93.33.07-.63.71-4-.3-4,.23-.21,0-.9-.11-1.06a19.43,19.43,0,0,0-.17-3l-.12.4c-1.17-.42-.4-1.11-.73-2.21h.12c.19-1.34,0-1.61-.09-1.86a1,1,0,0,1-.14-.52A12.64,12.64,0,0,1,89,34l-.66.3c-1.56.17.28-2.4-.71-3.69l-.24.65c-.35-.32-.06-1,.31-1.74a4.88,4.88,0,0,0,.74-2c.06-.22.31.19.5.4,0-2.43-1,.08-1.79-1.35.34-.49,1.36-.17,1-1.23.06-.34-.69-.9-1.42-1.57a3.59,3.59,0,0,1-1.42-2.35c-.15.49-.32.95-1,.47a6.67,6.67,0,0,1-.7-2.07c-.23-.77-.54-1.5-1.38-1.53a.41.41,0,0,1,.11-.35c-.8-.51-2.2-1.93-3-1.9.69-1.13-.52-1.92-1.62-2.6a9.83,9.83,0,0,1-1.4-1,.65.65,0,0,1,0-1.06L74.07,9.7l.2-.14a3.23,3.23,0,0,0-1.65-1,3.5,3.5,0,0,0-1.29,0c-.23-.35.13-.36.22-.44C69.77,6.26,69.37,6.29,67,6.23l.17-.77c-.36,0-1-.67-2-1.34a11.89,11.89,0,0,0-1.61-1,3.91,3.91,0,0,0-1.9-.48.56.56,0,0,1,.38-.23,5.26,5.26,0,0,1-2.17-.64c-.71-.34-1.4-.83-2.09-1.11-1.37-.61-2.62-1-3.37.26a18.37,18.37,0,0,0-1.91.37c2.28.51-.53,1.12.35,1.69-.9,0-2.19-1.11-1.07-1.1L52,2c.6-1.33-2.81-.89-2.67-1.78C44.65,0,40-.29,35.59.6c.25.32.5.62.74,1-.5.09-1,.23-1.48.34-.45-.14-.74-.69.33-.94-.72-.45-1.65,1-1.6,1.24-2.19.16.45-1.46-.19-1.31l-.85.33.23.07c-.28.31-.4.59-.61.82A2.76,2.76,0,0,1,31,2.76c-.84.1-.63-.48-1-.4,0-.07-.14-.07-.49.16l-1.86.63,1.07.51c-.63.7-1.69.64-.48,1.2-.89-.45-2.55.28-4.1,1.07s-2.81,1.92-3.28,1.93a5.15,5.15,0,0,1-.55.78,5.17,5.17,0,0,1-.62.7,12.18,12.18,0,0,1-1.56,1.25c.4-.08,1.17.55.14,1.21-.46-.9-1.08-.75-1.73-.33a3.29,3.29,0,0,1-2.26.86c.67,0,.06.69-.46,1.35S13,15.05,14,15c-.8.68-.6-.46-1.47-.17a6.71,6.71,0,0,1-1.1,1.67c-.22.26-.48.5-.72.76L10,18a13.87,13.87,0,0,0-2.79,3.65c.2.18.81-.06.82.71l-2,.78c-.17.63,1,1.17-.24,1.79.26,0,.66-.11.56.3A20.55,20.55,0,0,0,3,33.82c-.29,1.53-.67,3-1,4.57a21.59,21.59,0,0,1-.64,2.28C1.11,41.43.92,42.2.58,43c.53-.83.57-.26.57.38.13-.41.65,0,1,0-.35.84-.74,1.7-1,2.58,1,.43.27,2.77,1.24,3l-.23-.79C3.32,49,4.5,46.42,6,46.53a.87.87,0,0,1-.34-.93,5.28,5.28,0,0,1,.53-1.15A2,2,0,0,0,6,41.84c.3-.37.45.37.79.18-.63-.49-.66-1.06-.26-2l.14.13a9.43,9.43,0,0,1,.76-3.39c.21-.49.43-1,.68-1.55S8.62,34,9,33.3l-.76,0a2.29,2.29,0,0,1,.84-.93c-.77-1.08-.67,1.79-1.58.77.84-.23,1.23-1.36,1.63-2.46s1-2.07,1.85-2c.43-.93-.87-.06-.44-1l.51-.06-.4-.49a1.14,1.14,0,0,1,1.4-.46c-.13.12-.14.45-.2.61.9-.5,1.06-2.2,1.35-2.38l-.72.72a13.49,13.49,0,0,1,1-2l1.32-1.9.64-1c.24-.3.47-.6.68-.91a10.93,10.93,0,0,0,1.09-1.94l-.39-.07a2.48,2.48,0,0,1,1.3-1.44,4.2,4.2,0,0,0,1.62-1.34v.12a2.34,2.34,0,0,1,1-1.46c-.2.66,1.35-.09,1,.72,1.38-1.92.52-1.13,1-3l.62.26a2.14,2.14,0,0,1,1-1.72c-.56.94,1.08.32.51,1.43a2.94,2.94,0,0,0,1.52-.57,5.28,5.28,0,0,0,1-.82c.54-.54,1-1,1.87-.41.34-1.91-2.26.2-1.85-.38-.71-.2.32-1.46,1.1-1.69s2.06,1.25,3.82.51c-.18.06-.15.18-.33.24.4.05.68-.2,1-.44a1.11,1.11,0,0,1,1.19-.24c.2-1,1.12-.26.93-1.44l-1.66.75c.87-.57,1.45-2.17,3.3-2a3.13,3.13,0,0,1-.79,1c.57.22.86-.51,1.45-.24.12,1.13-2,.83-2.84,2,.63.34,1.72-1.38,1.54,0,.16-.9.64-1,1.18-1A1.75,1.75,0,0,0,39,5.91l0,.71c.18-.14.54-.55.92-.6l-.52,1c.91-1,2.06.29,3-.16-1,.08-1.17-.11-1.18-.39s.14-.67-.33-.85c2.54-1.19,1.69,1.72,4.49,1.18-.38.1-1.47-.33-.87-.71a2.9,2.9,0,0,1,1.61.77c1.9-.09-.28-.74.53-1.16.64.89,1-.32,1.84-.58l0,.72a2,2,0,0,0,1,0,.78.78,0,0,0,.36-.44c.15-.34.28-.68,1.26-.27l-1,.89L51.26,6l-.32.79a2.79,2.79,0,0,1,1.34-.26,3.36,3.36,0,0,1,1.21.42c-.15-.56.39-1.25,1.38-1,.56.57-.52.59.86.8-.42.37-.87.85-1.31.06-.11.22-.4.38-.5.59.58.64,1.69.51,2.17.61a1.2,1.2,0,0,1-.47-.28c.36-.09.73-.19,1.1-.26l1.09-.15c.22.36-.08.48-.38.61.4,0,.77-.17,1.36,0-.33.51-.5,1.09-1.36,1.09l2,0c0,.27.65,1,.34,1.09.77.75,2.77,0,3.81,1a.76.76,0,0,1,.58,0c.54.38,1,.87,1.46,1.27a4,4,0,0,0,.85.51,3.19,3.19,0,0,0,1.08.34l.1,1.36c1.12.49-.2-1.77,1.69-.92,1.38.57-.1,1,.1,1.55.85,0,2.52,0,3,1.54C71.9,16.45,71.75,16.11,71.39,15.91Zm9.44,11.54c-.27-.2-1-.49-.67-.88C81.05,26.48,80.82,26.9,80.83,27.45ZM86.25,50c-.21-.26,0-.59.27-.95A1.41,1.41,0,0,1,86.25,50ZM36.64,89.24l0,0C37.38,89.66,37.13,89.49,36.64,89.24Zm-1.48-.67c-.18.06-.19.16-.15.28.16-.16.5-.09.89.05C35.83,88.69,35.66,88.52,35.16,88.57ZM30,2.67l.35.07C29.8,3.19,29.91,2.94,30,2.67Z"/><path class="cls-2" d="M85.55,47.22a.79.79,0,0,1,.39-.11C85.82,47,85.68,47,85.55,47.22Z"/><path class="cls-2" d="M63.59,11l0,0a.29.29,0,0,0-.1.09Z"/><path class="cls-2" d="M57.55,82.05a1.25,1.25,0,0,1,.63.21C58.14,82.09,58,82,57.55,82.05Z"/><path class="cls-2" d="M26.76,86.92l1,.26a1.5,1.5,0,0,1-.75-.6C27,86.74,27.06,87.05,26.76,86.92Z"/><path class="cls-2" d="M21.59,78.76c-.17,0-.25-.16-.41-.16l-.17.29C21.51,79.21,22,79.23,21.59,78.76Z"/><path class="cls-2" d="M26.93,84.36c.2-.6-.47-.6-1.11-.87l.1.06C25.35,84.21,26.13,84.33,26.93,84.36Z"/><path class="cls-2" d="M25.67,83.43a2.32,2.32,0,0,1-.56-.3C24.88,83.39,25.3,83.32,25.67,83.43Z"/><path class="cls-2" d="M33.11,88.45c-.28-.25-.43.68-.54.38C32,89.47,35,88.63,33.11,88.45Z"/><polygon class="cls-2" points="27.31 82.34 27.2 83.11 27.8 82.72 27.31 82.34"/><path class="cls-2" d="M31.93,84.86,31,84.32c0,.13-.19.15-.37.15C31.25,84.71,31.88,85.08,31.93,84.86Z"/><path class="cls-2" d="M30.63,84.47a1.74,1.74,0,0,0-.83-.22A2.76,2.76,0,0,0,30.63,84.47Z"/><polygon class="cls-2" points="28.72 82.72 28.94 82.99 29.6 83.35 28.72 82.72"/><path class="cls-2" d="M43.12,87.35l1.18-.19c.13-.25-.18-.42-.61-.33S43,87.09,43.12,87.35Z"/><path class="cls-2" d="M39.92,84.9c.28.19.27.36.41.63l.16-.92Z"/><path class="cls-2" d="M43.16,85.07c.13-.25,1.63-.7.25-.68C43.28,84.66,42.16,84.8,43.16,85.07Z"/><polygon class="cls-2" points="59.97 83.97 59.7 84.08 60.24 85.51 59.97 83.97"/><path class="cls-2" d="M70.65,73.68c-1.2.48.37.91-.8,1.26,0,.46,1-.29.92.14C71.13,74.31,71.57,74.24,70.65,73.68Z"/><path class="cls-2" d="M70.77,75.08a2.57,2.57,0,0,0-.17.43A1.23,1.23,0,0,0,70.77,75.08Z"/><polygon class="cls-2" points="0.46 47.69 0.21 48.67 0.68 48.01 0.46 47.69"/><path class="cls-2" d="M1.73,49.39l-1,.33.92.46C1.63,50,1.52,49.58,1.73,49.39Z"/><path class="cls-2" d="M80,30.25l.24,0c.19-.21.14-.39,0-.75Z"/><polygon class="cls-2" points="75.17 20.92 75.27 21.08 75.74 20.25 75.17 20.92"/><path class="cls-2" d="M68.11,15.64a5.85,5.85,0,0,1,1,.6C68.4,15.84,68.69,14.71,68.11,15.64Z"/><path class="cls-3" d="M42.05,35.23c-3.79,5.52-8.39,7.33-14.35,9.71l-.29-.24a25,25,0,0,0,7-9.47Zm6.49-3.95h15v2.58h-15v9.63h-6V33.86H27.66V31.28H42.49V29A76.89,76.89,0,0,1,29,27.29V26.8A120.71,120.71,0,0,0,53,24.14l7.86,3.27a91.08,91.08,0,0,1-12.33,1.53ZM37.94,43.21V44.5H52.61L54.14,43l6.49,1.25-1.77,1.69V60.38H52.69V58.45H37.94v2.09h-6V43.21Zm14.75,3.87H37.94v3H52.69ZM37.94,52.6v3.19H52.69V52.6ZM64.1,39.86c-2,.73-2.94,2.22-1.65,4.08l-.29.28c-5.4-1-10.52-4.11-12.29-9.48l.93-.12c4.67,3.55,7.53,4.28,13.3,4.88Z"/><path d="M39.11,143.33v14.4c0,4.39-.41,7.6-3.56,10.87a16.3,16.3,0,0,1-2.35,2l-1.46,1-.45-.32A15,15,0,0,0,33,168.79c1.4-2.54,1.72-7,1.72-9.82V143.33Zm4.67,2H48.3V167.2H43.78Zm14-2v28.23H53.32V143.33Z"/><path d="M36.22,191.61h1.59l1.27-1.37,4.54,1-1.68,1.5v15.86h-4v-1.27H36.22v1.3H32.28V190.68h3.94Zm1.71,13.63V193.8H36.22v11.44Zm10.78-13.32V187.7h4.51v4.22H58.5V194H53.22v3.94H59.9v2.19H53.22v16H48.71V205.5a21.64,21.64,0,0,1-1.88,3.43,14.74,14.74,0,0,1-3.17,3.43A25.17,25.17,0,0,1,40,214.9l-.32-.22c2.42-2.86,2.92-4.07,4.2-7.53a17.3,17.3,0,0,0,1.08-5.63h3.78v-1.4H43.08v-2.19h5.63V194H44.23v-2.07ZM55,201c.73,3.56,2.32,7.31,5.47,9.38l-.06.35a3.52,3.52,0,0,0-1.08.25,2.63,2.63,0,0,0-1.18,2.29,4.55,4.55,0,0,0,.32,1.46l-.45.26c-4.29-3-4-9.34-4.13-13.92Z"/><path d="M37.14,237.68v10.68a17.63,17.63,0,0,1-.16,2.29c-.44,4.35-1.94,6.61-5.21,9.44l-.35-.13c1.43-3.37,1.33-6.13,1.33-9.66V234.44h4.39v1.14h8.33c-1.08-.57-1-.92-1.34-2.09a2.65,2.65,0,0,0-.79-1.24l.25-.23c1.27-.69,6.17-1.17,6.1,2.13,0,.89-.6,1.08-1.27,1.43H59v2.1Zm21,19a5.22,5.22,0,0,0,.32,1.56l-.29.16a7.6,7.6,0,0,1-.76-.67c-1.24-1.37-2.23-4.45-2.83-6.2v9H50.74v-8.45c-1.33,3.46-1.84,4.07-4.67,6.48l-.32-.12a24.33,24.33,0,0,0,2.32-8,2.26,2.26,0,0,1-1.17.38c-1.46,0-1.18-1.5-1.34-2.51a2.83,2.83,0,0,0-.48-1.5v13.83H41.24v-8.49c-1.69,3.25-2.61,4.77-5.66,6.93l-.28-.19a16.87,16.87,0,0,0,1.39-2.35,28.32,28.32,0,0,0,2-9.06l.09-2.26h2.45v-1.62h-3.5v-2h3.5v-3.4h3.84v3.4h2.2v2h-2.2v1.62c.58.35,2.64,1.21,2.83,1.78l.42,1.15v-3h2.41v-1.71h-2.6v-2h2.6v-3.33h3.85v3.33h4v2h-4v1.24h1c.19.79.39,1.59.64,2.35.6,1.71,2,4.42,3.37,5.53l.92.73.06.32C59,254.37,58.15,254.88,58.15,256.72Z"/><path d="M40.54,291l-.06,3.15h3.33v2h-3.4c-.12.7-.22,1.43-.38,2.16a7.11,7.11,0,0,1-1.17,2.45c-1.37,2-4.17,3.4-6.33,4.41l-.38-.25c3.08-2.86,3.37-4.7,3.75-8.77H32.15v-2h3.78L36,291H31.7v-2.07h6.52a18.09,18.09,0,0,0,1.08-4.86h4.23a13.24,13.24,0,0,1-3.72,4.86h4.07V291Zm18.53-5.18,0,7.12H55v-.67H53.54v12.9H49.6v-8.7a16.84,16.84,0,0,1-8.68,7.4l-.38-.25A24.29,24.29,0,0,0,42.73,301a16.79,16.79,0,0,0,2.71-7.09H49.6v-1.68H48.26v.67H44.45v-8.87h3.81V285H49.6v-3.08H44v1.62H32.18v-2h4.67a2.51,2.51,0,0,1-.54-.38c-.76-.7-.28-2.48-1-3.28-.23-.22-.42-.41-.61-.63L35,277c1.78-.19,5.25.1,5.21,2.93,0,.85-.57,1.17-1.2,1.62h5v-1.69h5.6v-3.08h3.94v3H59.9v2.13H53.54l0,3.08h1.3L56,283.76l4.13.93Zm-23.42,2.76c-2.26,0-1.72-1.75-2-3.27a3.47,3.47,0,0,0-.6-1.08l.32-.26c1.75.29,4.1.51,4.19,3.12C37.58,288,36.47,288.56,35.65,288.56Zm14-1.62H48.26v3.28H49.6Zm5.37,0H53.54v3.28H55Zm3.43,15.39c0,.47.13,1,.16,1.46l-.35.12a11.6,11.6,0,0,1-3.4-5.59,19.93,19.93,0,0,1-.6-5h.7a15.94,15.94,0,0,0,3.52,4.9,7,7,0,0,0,2,1.23v.45A2.28,2.28,0,0,0,58.4,302.33Z"/><path d="M80.25,288.69a2.84,2.84,0,0,0,.46-1.54,1.27,1.27,0,0,0-1.25-1.42c-.76,0-1.25.29-2.25,1.93-.82,1.35-1.59,2.69-3.46,2.69-2,0-3.09-1.68-3.09-3.65a22.41,22.41,0,0,1,.3-2.92,16,16,0,0,0,2.56.29,1.13,1.13,0,0,1,0,.68,2.67,2.67,0,0,0-1.8.78,1.84,1.84,0,0,0-.39,1.27,1.37,1.37,0,0,0,1.41,1.44c.71,0,1.13-.38,1.59-1.09S75,286,75.5,285.24a3,3,0,0,1,2.72-1.81c1.8,0,3.27,1.44,3.27,4.11a6.19,6.19,0,0,1-.56,2.67,10.28,10.28,0,0,1-2.78.6,1,1,0,0,1-.22-.66A4.79,4.79,0,0,0,80.25,288.69Z"/><path d="M73,279.9a2.12,2.12,0,0,1,.12,1.28,1.07,1.07,0,0,1-.77.59,1.19,1.19,0,0,1-.86-.1,2.18,2.18,0,0,1-.4-1.32,1.41,1.41,0,0,1,.21-.81,1.76,1.76,0,0,1,.67-.13A1.5,1.5,0,0,1,73,279.9Zm8.2-1.48c0,.31,0,.95,0,2.1,0,1,0,1.58,0,2a1.14,1.14,0,0,1-.66,0,3.63,3.63,0,0,0-.15-.66c-.07-.22-.22-.24-.64-.25s-1.37,0-2.17,0c-.57,0-1.22,0-1.52,0a.69.69,0,0,0-.42.12,1.82,1.82,0,0,0-.41.72.79.79,0,0,1-.57-.05,12.06,12.06,0,0,0-.6-3H77c.86,0,2,0,2.74,0,.49,0,.64-.1.71-.3a3.59,3.59,0,0,0,.15-.68A1,1,0,0,1,81.23,278.42Z"/><path d="M81.39,274.16a3.18,3.18,0,0,1-1.19,2.61,3.9,3.9,0,0,1-2.38.71,3.51,3.51,0,0,1-3-1.73,5.52,5.52,0,0,1-.74-2.54,3.82,3.82,0,0,1,.24-1.49,1.27,1.27,0,0,1,.49-.62.6.6,0,0,1,.35,0,2.52,2.52,0,0,1,1,.81c0,.05,0,.23,0,.27-.39.35-1.27,1-1.27,1.83s.78,1.3,2,1.3a3.33,3.33,0,0,0,1.93-.54,2.08,2.08,0,0,0,.88-1.8,2.83,2.83,0,0,0-.7-1.87.21.21,0,0,1,.14-.12,1.2,1.2,0,0,1,.69.15A3.9,3.9,0,0,1,81.39,274.16Z"/><path d="M70.61,270.65a15.68,15.68,0,0,0-.61-3.39c0-.07.24-.17.34-.15.27.15.47.22,1.62.22l3,0s.06-.06.05-.09a4,4,0,0,1-.9-2.15c0-1.42,1-2.27,2.83-2.27.89,0,2.45,0,3.08,0,0,0,.23,0,.28-.1a2.08,2.08,0,0,0,.27-.85.77.77,0,0,1,.66.08c0,.24,0,.87,0,2,0,.67,0,1.39,0,1.83a.76.76,0,0,1-.66,0l-.1-.42c-.08-.24-.23-.29-.72-.31a23.22,23.22,0,0,0-3.32.06,1.23,1.23,0,0,0-1,1.28,1.68,1.68,0,0,0,.17.78c0,.05.1.1.2.1,1.35,0,3.28,0,3.81,0s.71,0,.81-.3a2.74,2.74,0,0,0,.13-.56c.09-.12.56-.07.66,0,0,.52,0,1,0,2.06s0,1.57,0,2a.84.84,0,0,1-.66,0,5.31,5.31,0,0,0-.13-.6c-.1-.28-.39-.3-1-.32s-1.64,0-2.72,0c-3.45,0-4.42,0-4.91.07a.47.47,0,0,0-.47.3c-.05.19-.09.46-.14.75A.83.83,0,0,1,70.61,270.65Z"/><path d="M74.5,261.43a18.93,18.93,0,0,0-.29-3.2c.58,0,1.41.1,3.17.1a9.93,9.93,0,0,0,1.82-.08,1,1,0,0,0,.68-1.05,1.16,1.16,0,0,0-.29-.83.44.44,0,0,0-.22-.12c-.25,0-1.13-.05-3.5,0a.56.56,0,0,0-.54.29,7.59,7.59,0,0,0-.19.89,1.18,1.18,0,0,1-.66-.05,22.18,22.18,0,0,0-.25-3.43H76l3.45,0c.3,0,.5-.08.54-.3a3.53,3.53,0,0,0,0-.73,2,2,0,0,1,.68.1,13,13,0,0,1,.76,3s-.08.08-.11.12a5.75,5.75,0,0,1-.92.1s-.08,0-.05.08a3.74,3.74,0,0,1,1,2.27c0,1.35-.91,1.91-2.13,1.95-.84,0-2.44,0-3.28,0-.36,0-.56.05-.63.33a3.49,3.49,0,0,0-.13.62A1.43,1.43,0,0,1,74.5,261.43Z"/><path d="M75.9,248.69a1.39,1.39,0,0,0-.52,1.17,1.23,1.23,0,0,0,.25.79,7.9,7.9,0,0,0,1,.56c.06.08-.19.69-.31.69a4,4,0,0,1-1.17-.37,6.21,6.21,0,0,1-1.08-2.71,2.44,2.44,0,0,1,1-2,3,3,0,0,1,1.71-.44c.79,0,1.91.05,2.6.05.34,0,.63-.11.63-.45a2,2,0,0,0-.08-.59,1.77,1.77,0,0,1,.74.1,3.34,3.34,0,0,1,.64,1.87c0,.56-.2.94-.5,1l-.31.08s0,.07,0,.09a4.61,4.61,0,0,1,.82,1.91,1.57,1.57,0,0,1-.41,1,2.27,2.27,0,0,1-1.69.69,3,3,0,0,1-1.05-.28c-.31-.54-.81-2.69-1.07-3.3a.31.31,0,0,0-.18-.14.78.78,0,0,0-.22,0A1.48,1.48,0,0,0,75.9,248.69Zm1.9-.17a12.13,12.13,0,0,0,.56,1.44,1.42,1.42,0,0,0,.54.13A1.08,1.08,0,0,0,80.08,249a.55.55,0,0,0-.1-.39.35.35,0,0,0-.29-.1c-.54,0-1.52,0-1.81,0C77.85,248.45,77.8,248.49,77.8,248.52Z"/><path d="M80.47,244.29c-.06-.23-.34-.32-.67-.35-.51,0-1.83,0-2.63,0-.42,0-1,0-1.21,0s-.38.15-.61.83a2.34,2.34,0,0,1-.56-.09A12.08,12.08,0,0,0,74,241.8a.23.23,0,0,1,.12-.08l.93,0a.05.05,0,0,0,0-.08,4.15,4.15,0,0,1-1-2.17,2,2,0,0,1,.93-1.77,3.53,3.53,0,0,1,2-.48c1.1,0,2.39,0,3,0a.37.37,0,0,0,.28-.13,1.9,1.9,0,0,0,.27-.85,1.16,1.16,0,0,1,.66.08c0,.28,0,.85,0,2,0,.94,0,1.28,0,1.86a1.34,1.34,0,0,1-.66,0,4.53,4.53,0,0,0-.11-.46c-.07-.19-.22-.25-.43-.27a24.84,24.84,0,0,0-3.53.07,1.15,1.15,0,0,0-.78.5,1.21,1.21,0,0,0-.19.73,1.72,1.72,0,0,0,.22.78.4.4,0,0,0,.29.14l3.86,0c.44,0,.52-.13.57-.35a3.7,3.7,0,0,0,.1-.49,1.25,1.25,0,0,1,.66.05c0,.66,0,1.27,0,2,0,1.15,0,1.59,0,2a1.23,1.23,0,0,1-.66,0A5.12,5.12,0,0,0,80.47,244.29Z"/><path d="M80.25,230.1a2.86,2.86,0,0,0,.46-1.54,1.27,1.27,0,0,0-1.25-1.42c-.76,0-1.25.29-2.25,1.93-.82,1.35-1.59,2.69-3.46,2.69-2,0-3.09-1.68-3.09-3.66a22.43,22.43,0,0,1,.3-2.91,16,16,0,0,0,2.56.29,1.13,1.13,0,0,1,0,.68,2.62,2.62,0,0,0-1.8.78,1.83,1.83,0,0,0-.39,1.26,1.37,1.37,0,0,0,1.41,1.44c.71,0,1.13-.37,1.59-1.08s.69-1.15,1.15-1.91a3,3,0,0,1,2.72-1.81c1.8,0,3.27,1.44,3.27,4.11a6.19,6.19,0,0,1-.56,2.67,10.28,10.28,0,0,1-2.78.6,1,1,0,0,1-.22-.66A4.79,4.79,0,0,0,80.25,230.1Z"/><path d="M74.89,224a15,15,0,0,0-1-3.09s.12-.17.15-.17.58,0,.88,0c0,0,.07-.08,0-.12a4.87,4.87,0,0,1-.91-2.19,2.36,2.36,0,0,1,.8-1.8,3.41,3.41,0,0,1,2.3-.83,3.7,3.7,0,0,1,3.08,1.39,5.26,5.26,0,0,1,1.11,3.15v.34s0,.05.09.05c.3,0,1.47,0,1.88,0s.62-.12.72-.51c0-.22.09-.64.16-1a1.26,1.26,0,0,1,.64.1v.45a36.87,36.87,0,0,0,.22,4.39,1.12,1.12,0,0,1-.68,0,4.78,4.78,0,0,0-.2-.86c-.12-.28-.39-.33-.81-.33s-2,0-3.57,0c-1.85,0-2.76,0-3.56,0a.57.57,0,0,0-.56.31,4.83,4.83,0,0,0-.22.71A1.44,1.44,0,0,1,74.89,224Zm.83-3.38a.37.37,0,0,0,.27.17c.49,0,2.52,0,3.25,0a1.28,1.28,0,0,0,.93-.44,1.46,1.46,0,0,0,.32-.95,1,1,0,0,0-.41-.81,3,3,0,0,0-1.86-.49,3.33,3.33,0,0,0-2.06.54,1.48,1.48,0,0,0-.63,1.27A1.69,1.69,0,0,0,75.72,220.61Z"/><path d="M73,212.2a2.16,2.16,0,0,1,.12,1.29,1.1,1.1,0,0,1-.77.59,1.3,1.3,0,0,1-.86-.1,2.18,2.18,0,0,1-.4-1.32,1.41,1.41,0,0,1,.21-.81,1.79,1.79,0,0,1,.67-.14A1.54,1.54,0,0,1,73,212.2Zm8.2-1.47c0,.31,0,1,0,2.1,0,.95,0,1.57,0,2a1.14,1.14,0,0,1-.66,0,3.44,3.44,0,0,0-.15-.66c-.07-.22-.22-.24-.64-.26s-1.37,0-2.17,0c-.57,0-1.22,0-1.52,0a.69.69,0,0,0-.42.12,1.82,1.82,0,0,0-.41.72.79.79,0,0,1-.57-.05,12.06,12.06,0,0,0-.6-3H77c.86,0,2,0,2.74,0,.49,0,.64-.1.71-.3a3.59,3.59,0,0,0,.15-.68A1,1,0,0,1,81.23,210.73Z"/><path d="M81.39,206.47a3.19,3.19,0,0,1-1.19,2.61,3.9,3.9,0,0,1-2.38.71,3.51,3.51,0,0,1-3-1.73,5.52,5.52,0,0,1-.74-2.54,3.82,3.82,0,0,1,.24-1.49,1.27,1.27,0,0,1,.49-.62.6.6,0,0,1,.35,0,2.62,2.62,0,0,1,1,.82s0,.23,0,.27c-.39.35-1.27,1-1.27,1.83s.78,1.3,2,1.3a3.33,3.33,0,0,0,1.93-.54,2.08,2.08,0,0,0,.88-1.8,2.85,2.85,0,0,0-.7-1.88.23.23,0,0,1,.14-.11,1.2,1.2,0,0,1,.69.15A3.89,3.89,0,0,1,81.39,206.47Z"/><path d="M74.3,202.84c0-.22,0-1.17,0-2.27s0-1.51,0-2a1.62,1.62,0,0,1,.66,0,3,3,0,0,0,.17.51.25.25,0,0,0,.3.13c.76-.23,2.79-1,3.16-1.23v-.07a16.82,16.82,0,0,0-2.89-1c-.24,0-.47,0-.56.27a2.64,2.64,0,0,0-.18.74,1.35,1.35,0,0,1-.66-.1c0-.35,0-.89,0-1.54s0-1.13,0-1.69a2.84,2.84,0,0,1,.66,0,2.94,2.94,0,0,0,.17.6c.13.33.35.54,1,.77a69.66,69.66,0,0,1,7.75,3.66c.39.22.88.49,1.12.61l.07.22a2.41,2.41,0,0,1-.54,1.25.72.72,0,0,1-.39,0,19.35,19.35,0,0,0-3.1-2.3l-.44.22c-.93.41-2.45,1-3.89,1.64-1.13.51-1.42.65-1.59,1.15,0,.16-.1.43-.15.65A2,2,0,0,1,74.3,202.84Z"/><path d="M70.91,191.16c0-.4,0-1.06,0-2.52s0-2.13,0-2.55a1,1,0,0,1,.66,0,5.56,5.56,0,0,0,.15.82c.12.34.36.4.83.4.78,0,1.75,0,2.69,0,.07,0,.11,0,.12-.08a15,15,0,0,0,0-2.14c0-1.11,0-1.62,0-1.84,0,0-.07-.1-.12-.1H72.35c-.22,0-.51.11-.59.34a3.75,3.75,0,0,0-.19,1,.8.8,0,0,1-.66,0c0-.75,0-1.27,0-2.61s0-1.94,0-2.47a.84.84,0,0,1,.66,0,3.61,3.61,0,0,0,.17.85c.12.3.31.4.83.42,1.12,0,1.86,0,3.72,0,1.15,0,2.47,0,3.24,0,.4,0,.69-.06.82-.37a5.09,5.09,0,0,0,.22-1.1,1,1,0,0,1,.66.09c0,.42,0,1.26,0,2.58s0,2.24,0,2.61a.8.8,0,0,1-.66,0,6.53,6.53,0,0,0-.15-.86c-.08-.27-.32-.41-.79-.43-.82,0-1.9,0-3,0,0,0-.12,0-.12.08,0,.34,0,1.17,0,1.93a12,12,0,0,0,0,2.12l.1,0c1.08,0,2.11,0,2.82,0,.48,0,.77,0,.9-.45a7.41,7.41,0,0,0,.2-1,.92.92,0,0,1,.66.07c0,.3,0,1.12,0,2.76,0,1.33,0,2.18,0,2.5a1.06,1.06,0,0,1-.66,0,7.07,7.07,0,0,0-.15-.79c-.12-.46-.37-.56-1-.61-.25,0-1.83,0-3.33,0-1.66,0-3,0-3.47,0s-.74.1-.83.44a5.94,5.94,0,0,0-.17.93A1.06,1.06,0,0,1,70.91,191.16Z"/><path d="M77.68,171a3.39,3.39,0,0,1,3,1.56,4.84,4.84,0,0,1,.68,2.37,3.64,3.64,0,0,1-6.59,2.25,4.79,4.79,0,0,1-.69-2.45A3.44,3.44,0,0,1,77.68,171ZM75,175.53c.28.44.89.68,2.18.68,2.32,0,3.45-.71,3.45-1.64a.91.91,0,0,0-.17-.53c-.34-.37-1-.59-2.32-.59-2,0-3.28.61-3.28,1.64A1,1,0,0,0,75,175.53Z"/><path d="M75.45,166.87s.06.07.1.07l2.54,0a6.17,6.17,0,0,0,1.27-.07A.85.85,0,0,0,80,166a1.58,1.58,0,0,0-.25-.93,1.58,1.58,0,0,1,.68,0,2.56,2.56,0,0,1,.91,2.06,1.89,1.89,0,0,1-.85,1.78,3.31,3.31,0,0,1-1.82.27H75.62c-.07,0-.16,0-.17.08l0,.86a3.32,3.32,0,0,1-.78-.17c-.05-.22-.14-.55-.19-.69a.22.22,0,0,0-.15-.08c-.1,0-1,0-1.42,0a9,9,0,0,0-.92-1.86,2.1,2.1,0,0,1,0-.43c.44,0,1.32.07,2.34.07.07,0,.12,0,.12-.07,0-.28,0-1.42-.07-1.91a10.32,10.32,0,0,0,1.18.19C75.45,165.66,75.45,166.3,75.45,166.87Z"/><path d="M74.89,164.42a14.85,14.85,0,0,0-1-3.09s.12-.17.15-.17.58,0,.88,0c0,0,.07-.08,0-.12a4.9,4.9,0,0,1-.91-2.2,2.36,2.36,0,0,1,.8-1.79,3.36,3.36,0,0,1,2.3-.83,3.7,3.7,0,0,1,3.08,1.39,5.23,5.23,0,0,1,1.11,3.14v.34s0,0,.09,0c.3,0,1.47,0,1.88,0s.62-.12.72-.51c0-.22.09-.64.16-1a1.38,1.38,0,0,1,.64.11v.45a36.87,36.87,0,0,0,.22,4.39,1.3,1.3,0,0,1-.68,0,5.12,5.12,0,0,0-.2-.87c-.12-.27-.39-.32-.81-.32s-2,0-3.57,0c-1.85,0-2.76,0-3.56,0a.57.57,0,0,0-.56.31,4.83,4.83,0,0,0-.22.71A1.61,1.61,0,0,1,74.89,164.42Zm.83-3.38a.37.37,0,0,0,.27.17c.49,0,2.52,0,3.25,0a1.21,1.21,0,0,0,.93-.44,1.44,1.44,0,0,0,.32-.94,1.05,1.05,0,0,0-.41-.82,3.06,3.06,0,0,0-1.86-.49,3.4,3.4,0,0,0-2.06.54,1.5,1.5,0,0,0-.63,1.27A1.7,1.7,0,0,0,75.72,161Z"/><path d="M77.68,147.28a3.39,3.39,0,0,1,3,1.56,4.84,4.84,0,0,1,.68,2.37,3.64,3.64,0,0,1-6.59,2.25,4.79,4.79,0,0,1-.69-2.45A3.44,3.44,0,0,1,77.68,147.28ZM75,151.85c.28.44.89.68,2.18.68,2.32,0,3.45-.71,3.45-1.64a.85.85,0,0,0-.17-.52c-.34-.38-1-.6-2.32-.6-2,0-3.28.61-3.28,1.64A1,1,0,0,0,75,151.85Z"/><path d="M75.45,143.19s.06.07.1.07l2.54,0a6.17,6.17,0,0,0,1.27-.07.85.85,0,0,0,.67-.9,1.58,1.58,0,0,0-.25-.93,1.58,1.58,0,0,1,.68,0,2.56,2.56,0,0,1,.91,2.06,1.89,1.89,0,0,1-.85,1.78,3.31,3.31,0,0,1-1.82.27H75.62c-.07,0-.16,0-.17.08l0,.86a3.32,3.32,0,0,1-.78-.17c-.05-.22-.14-.55-.19-.69a.22.22,0,0,0-.15-.08c-.1,0-1,0-1.42,0a9,9,0,0,0-.92-1.86,2.1,2.1,0,0,1,0-.43c.44.05,1.32.07,2.34.07.07,0,.12,0,.12-.07,0-.28,0-1.42-.07-1.91a10.32,10.32,0,0,0,1.18.19C75.45,142,75.45,142.62,75.45,143.19Z"/><line class="cls-4" x1="46.38" y1="98.94" x2="46.38" y2="129.46"/><line class="cls-4" x1="46.38" y1="357.82" x2="46.38" y2="388.34"/><circle class="cls-1" cx="45.76" cy="331.74" r="14.31"/><path class="cls-3" d="M37,334.71A10.87,10.87,0,0,0,38,333a18.15,18.15,0,0,0,1.63-4.45,10.54,10.54,0,0,0,.22-1.25l0-.56,1.72,0c-.1.39-.18.79-.27,1.19a15.22,15.22,0,0,0,3.31,5.71,3.94,3.94,0,0,0,.73.54l0,.12a1,1,0,0,0-.73.29.9.9,0,0,0-.18.43,1.23,1.23,0,0,0,.08.38l-.15.06a8.53,8.53,0,0,1-1.65-1.94,10.65,10.65,0,0,1-1.26-2.77c-.16-.62-.23-1.24-.33-1.88-.1.38-.21.76-.31,1.13a8.87,8.87,0,0,1-.84,1.82,9.63,9.63,0,0,1-2.57,3.07c-.27.21-.57.43-.87.62l-.1-.09C36.6,335.2,36.79,335,37,334.71Z"/><path class="cls-3" d="M49.32,327.22h5.27v.62H48.87l-.44.45h5.73v.61H48v-.29a15.9,15.9,0,0,1-1.72.94l-.07-.08A6.45,6.45,0,0,0,48,326.68l1.57,0C49.47,326.9,49.4,327.06,49.32,327.22Zm-2.68,5.27v-.62h2.49v-1.78H50.5v1.68a7,7,0,0,0,.65-1.52l1.35.24a5,5,0,0,1-1.73,1.38h1.67v.62H50.5v.27c.56.11,1.91.51,1.9,1.26a.59.59,0,0,1-.62.61c-.56,0-.63-.35-.75-.79a1.5,1.5,0,0,0-.53-.8v2.41H49.13v-2.11a6.15,6.15,0,0,1-2.62,1.83l-.08-.09a4.92,4.92,0,0,0,1.49-2.35h1.21v-.24Zm6-3.09.45-.43,1.26.36-.42.34c0,.85,0,1.71,0,2.56,0,.28.07,1.8.31,1.8a2.53,2.53,0,0,0,.17-.4c.14-.32.26-.66.4-1l.12,0a8.24,8.24,0,0,0-.18,1.07c0,.45.35.42.35.64a.59.59,0,0,1,0,.13c-.07.29-.24,1-.63,1a1.85,1.85,0,0,1-1-.56,3.84,3.84,0,0,1-.7-2.81c0-.72,0-1.43,0-2.16H47v-.61Zm-5.41.9a7.43,7.43,0,0,1,1.06.25c.3.1.7.3.7.67a.55.55,0,0,1-.62.52c-.49,0-.58-.31-.7-.68a1.79,1.79,0,0,0-.51-.7Z"/><path class="cls-5" d="M89,331.22a4.36,4.36,0,0,0-.58-.69l-1.19-1.24c-.29-.3-.31-.69,0-.86s.5-.42.51-.56a.21.21,0,0,0-.19-.25,2,2,0,0,0-.82.4,2.4,2.4,0,0,1-2.5.15,1.52,1.52,0,0,0-.61-.24.23.23,0,0,0-.16.21,1.06,1.06,0,0,0,.29.5.83.83,0,0,1,.25.49c0,.09-.38.21-.79.25l-5.3.57a12.88,12.88,0,0,1-1.52.06l-5.53-.15a3.49,3.49,0,0,0-1.14.14,1.9,1.9,0,0,0-.66.51,2.9,2.9,0,0,0-.41,1.11l0,.16c-.07.41-.14,1-.16,1.35a10.86,10.86,0,0,1-.11,1.16,5.91,5.91,0,0,0-.06,1.11c0,.31.06.57.12.58a.36.36,0,0,0,.24-.14,2.13,2.13,0,0,0,.26-.68,4.6,4.6,0,0,0,0-1.24,4,4,0,0,1-.06-.73,3.91,3.91,0,0,1,.18.74l.14.71a5,5,0,0,1,0,1.5l-.07.41a8.44,8.44,0,0,0-.06,1.51l.16,2.3c0,.42.06.86.07,1a.51.51,0,0,0,.15.33,1.73,1.73,0,0,0,.72.11,4.57,4.57,0,0,0,.79,0c.1,0,0-.35-.21-.71l-.26-.43a2.1,2.1,0,0,1-.22-1.39l.17-.71c.09-.41.24-.74.31-.74s.25.33.38.72l.48,1.47a5.55,5.55,0,0,0,.49,1.1,2,2,0,0,0,.37.45,2.89,2.89,0,0,0,.78.07,1.61,1.61,0,0,0,.73-.1c0-.06-.17-.26-.48-.45a2.28,2.28,0,0,1-.8-1.08l-.3-.91a2,2,0,0,1-.14-.92.38.38,0,0,1,.33-.17c.12,0,.28.18.36.37s.24.19.35,0a.21.21,0,0,1,.4,0c.11.19.28.17.37,0a2.59,2.59,0,0,1,.66-.75,2.91,2.91,0,0,1,1.26-.45l2-.19a1.41,1.41,0,0,1,1.05.28,2.8,2.8,0,0,1,.4,1.12l.29,2a5,5,0,0,0,.23,1,1,1,0,0,0,.73.25,1.38,1.38,0,0,0,.67-.1,1.31,1.31,0,0,0-.3-.6,2.8,2.8,0,0,1-.4-1.27l0-.4c0-.42.06-.72.16-.66a1.8,1.8,0,0,1,.41.75c.11.36.31,1,.43,1.37l.07.21a3.33,3.33,0,0,0,.35.82,1.67,1.67,0,0,0,.65.09c.3,0,.56,0,.58-.12s0-.18-.11-.26a4.87,4.87,0,0,1-.5-.83l-.32-.62a2.92,2.92,0,0,1-.26-1.43l.06-.56a2,2,0,0,1,.65-1.17,3.79,3.79,0,0,0,.93-1.09l.93-1.73a2.7,2.7,0,0,1,1-1l.52-.23a5.59,5.59,0,0,1,1.45-.41l.23,0a3,3,0,0,0,.83-.16,2.25,2.25,0,0,0,.2-.43A.93.93,0,0,0,89,331.22Z"/><path class="cls-6" d="M85.35,312.49l.46.57a1.61,1.61,0,0,1,.27,1.59l-.18.46c-.05.15-.11.3-.17.44L85,313.64l-2,.74,1.12-1.77-1.49-.83h0A1.61,1.61,0,0,1,85,312l.4.49Z"/><path class="cls-6" d="M85.38,309.9l-.21-.26.51-.42.21.26a2.33,2.33,0,0,1-.33,3.27l-.42-.52A1.66,1.66,0,0,0,85.38,309.9Z"/><path class="cls-7" d="M67.65,317.47a.46.46,0,0,0-.1.65l.32.42a10,10,0,0,0,7.5,3.67,11.1,11.1,0,0,0,2.3-.18,19.16,19.16,0,0,1,5.6-9.91l-.6-.34a1.78,1.78,0,0,0-.37.45l-.62,1.1A10,10,0,0,1,70,318l-1.94-.6A.5.5,0,0,0,67.65,317.47Z"/><path class="cls-8" d="M83.27,312.12a19.16,19.16,0,0,0-5.6,9.91,10.92,10.92,0,0,0,8.06-6.48L85,313.64l-2,.74,1.12-1.77Z"/><path class="cls-6" d="M86.15,301.7l.46.57a1.61,1.61,0,0,1,.27,1.59l-.18.47c-.06.14-.11.29-.17.43l-.73-1.91-2,.75L85,301.82,83.47,301h0a1.62,1.62,0,0,1,2.27.23l.4.48Z"/><path class="cls-6" d="M86.17,299.11l-.21-.26.52-.42.21.26a2.33,2.33,0,0,1-.33,3.27l-.42-.51A1.66,1.66,0,0,0,86.17,299.11Z"/><path class="cls-7" d="M68.45,306.68a.47.47,0,0,0-.1.65,4.63,4.63,0,0,0,.32.42,10,10,0,0,0,7.5,3.68,11.1,11.1,0,0,0,2.3-.18,19.15,19.15,0,0,1,5.6-9.92l-.6-.33a1.62,1.62,0,0,0-.37.45l-.62,1.1a10,10,0,0,1-11.68,4.66l-1.94-.59A.46.46,0,0,0,68.45,306.68Z"/><path class="cls-8" d="M84.07,301.33a19.15,19.15,0,0,0-5.6,9.92,10.93,10.93,0,0,0,8.06-6.49l-.73-1.91-2,.75L85,301.82Z"/></g></g></svg>